%TF.GenerationSoftware,KiCad,Pcbnew,(2015-06-24 BZR 5814, Git a8bffb8)-product*%
%TF.CreationDate,2015-07-05T17:44:44-06:00*%
%TF.JobID,Power Monitor,506F776572204D6F6E69746F722E6B69,rev?*%
%TF.FileFunction,Soldermask,Top*%
%FSLAX46Y46*%
G04 Gerber Fmt 4.6, Leading zero omitted, Abs format (unit mm)*
G04 Created by KiCad (PCBNEW (2015-06-24 BZR 5814, Git a8bffb8)-product) date 7/5/2015 5:44:44 PM*
%MOMM*%
G01*
G04 APERTURE LIST*
%ADD10C,0.100000*%
%ADD11C,3.000000*%
%ADD12R,1.727200X1.727200*%
%ADD13O,1.727200X1.727200*%
%ADD14R,1.400000X0.800000*%
%ADD15R,0.939800X0.939800*%
%ADD16C,0.939800*%
%ADD17C,1.397000*%
%ADD18C,1.600000*%
%ADD19R,2.200000X2.100000*%
%ADD20R,2.700000X2.100000*%
%ADD21R,2.000000X2.100000*%
%ADD22R,2.600000X2.700000*%
%ADD23C,1.501140*%
%ADD24R,2.032000X1.727200*%
%ADD25O,2.032000X1.727200*%
%ADD26O,0.899160X1.501140*%
%ADD27R,2.032000X2.032000*%
%ADD28O,2.032000X2.032000*%
%ADD29R,2.000000X0.600000*%
G04 APERTURE END LIST*
D10*
D11*
X143750000Y-62500000D03*
X143750000Y-112500000D03*
X162750000Y-102500000D03*
D12*
X121770000Y-74810000D03*
D13*
X119230000Y-74810000D03*
X121770000Y-72270000D03*
X119230000Y-72270000D03*
X121770000Y-69730000D03*
X119230000Y-69730000D03*
X121770000Y-67190000D03*
X119230000Y-67190000D03*
D14*
X130150000Y-64970000D03*
X135850000Y-64970000D03*
X135850000Y-62430000D03*
X130150000Y-62430000D03*
D15*
X154500000Y-78000000D03*
D16*
X154500000Y-79270000D03*
X153230000Y-78000000D03*
X153230000Y-79270000D03*
X151960000Y-78000000D03*
X151960000Y-79270000D03*
X150690000Y-78000000D03*
X150690000Y-79270000D03*
X149420000Y-78000000D03*
X149420000Y-79270000D03*
X148150000Y-78000000D03*
X148150000Y-79270000D03*
X146880000Y-78000000D03*
X146880000Y-79270000D03*
X145610000Y-78000000D03*
X145610000Y-79270000D03*
D17*
X137500000Y-79500000D03*
X135000000Y-77000000D03*
X137500000Y-74500000D03*
D18*
X126000000Y-108000000D03*
D19*
X117900000Y-112050000D03*
X119800000Y-103950000D03*
D20*
X127200000Y-112050000D03*
D21*
X117100000Y-103950000D03*
D22*
X131300000Y-107400000D03*
D18*
X119000000Y-108000000D03*
X126000000Y-95500000D03*
D19*
X117900000Y-99550000D03*
X119800000Y-91450000D03*
D20*
X127200000Y-99550000D03*
D21*
X117100000Y-91450000D03*
D22*
X131300000Y-94900000D03*
D18*
X119000000Y-95500000D03*
X126000000Y-83000000D03*
D19*
X117900000Y-87050000D03*
X119800000Y-78950000D03*
D20*
X127200000Y-87050000D03*
D21*
X117100000Y-78950000D03*
D22*
X131300000Y-82400000D03*
D18*
X119000000Y-83000000D03*
D17*
X161000000Y-77460000D03*
X161000000Y-82540000D03*
X135290000Y-67950000D03*
X130210000Y-67950000D03*
X135290000Y-69950000D03*
X130210000Y-69950000D03*
X133960000Y-110500000D03*
X139040000Y-110500000D03*
X133960000Y-108500000D03*
X139040000Y-108500000D03*
X129960000Y-101500000D03*
X135040000Y-101500000D03*
X129960000Y-99500000D03*
X135040000Y-99500000D03*
X129960000Y-89000000D03*
X135040000Y-89000000D03*
X129960000Y-87000000D03*
X135040000Y-87000000D03*
X135290000Y-71950000D03*
X130210000Y-71950000D03*
X137810000Y-112500000D03*
X130190000Y-112500000D03*
X133810000Y-103500000D03*
X126190000Y-103500000D03*
X133810000Y-91000000D03*
X126190000Y-91000000D03*
D23*
X141460000Y-69000000D03*
X144000000Y-69000000D03*
D24*
X126500000Y-62760000D03*
D25*
X126500000Y-65300000D03*
X126500000Y-67840000D03*
D23*
X146270000Y-91500000D03*
X143730000Y-91500000D03*
X157770000Y-74000000D03*
X155230000Y-74000000D03*
X150270000Y-74000000D03*
X147730000Y-74000000D03*
X161000000Y-95730000D03*
X161000000Y-98270000D03*
X116500000Y-74770000D03*
X116500000Y-72230000D03*
D26*
X156500000Y-71000000D03*
X157770000Y-71000000D03*
X155230000Y-71000000D03*
X149000000Y-71000000D03*
X150270000Y-71000000D03*
X147730000Y-71000000D03*
D27*
X143000000Y-82730000D03*
D28*
X143000000Y-85270000D03*
D27*
X146812000Y-107442000D03*
D28*
X146812000Y-104902000D03*
D29*
X148800000Y-85245000D03*
X148800000Y-86515000D03*
X148800000Y-87785000D03*
X148800000Y-89055000D03*
X148800000Y-90325000D03*
X148800000Y-91595000D03*
X148800000Y-92865000D03*
X148800000Y-94135000D03*
X148800000Y-95405000D03*
X148800000Y-96675000D03*
X148800000Y-97945000D03*
X148800000Y-99215000D03*
X148800000Y-100485000D03*
X148800000Y-101755000D03*
X158200000Y-101755000D03*
X158200000Y-100485000D03*
X158200000Y-99215000D03*
X158200000Y-97945000D03*
X158200000Y-96675000D03*
X158200000Y-95405000D03*
X158200000Y-94135000D03*
X158200000Y-92865000D03*
X158200000Y-91595000D03*
X158200000Y-90325000D03*
X158200000Y-89055000D03*
X158200000Y-87785000D03*
X158200000Y-86515000D03*
X158200000Y-85245000D03*
D24*
X164000000Y-93080000D03*
D25*
X164000000Y-90540000D03*
X164000000Y-88000000D03*
X164000000Y-85460000D03*
X164000000Y-82920000D03*
D11*
X162750000Y-72500000D03*
M02*
