%TF.GenerationSoftware,KiCad,Pcbnew,(2015-06-24 BZR 5814, Git a8bffb8)-product*%
%TF.CreationDate,2015-07-05T17:44:44-06:00*%
%TF.JobID,Power Monitor,506F776572204D6F6E69746F722E6B69,rev?*%
%TF.FileFunction,Copper,L2,Bot,Signal*%
%FSLAX46Y46*%
G04 Gerber Fmt 4.6, Leading zero omitted, Abs format (unit mm)*
G04 Created by KiCad (PCBNEW (2015-06-24 BZR 5814, Git a8bffb8)-product) date 7/5/2015 5:44:44 PM*
%MOMM*%
G01*
G04 APERTURE LIST*
%ADD10C,0.100000*%
%ADD11R,1.727200X1.727200*%
%ADD12O,1.727200X1.727200*%
%ADD13R,0.939800X0.939800*%
%ADD14C,0.939800*%
%ADD15C,1.397000*%
%ADD16C,1.501140*%
%ADD17R,2.032000X1.727200*%
%ADD18O,2.032000X1.727200*%
%ADD19O,0.899160X1.501140*%
%ADD20R,2.032000X2.032000*%
%ADD21O,2.032000X2.032000*%
%ADD22C,0.600000*%
%ADD23C,0.254000*%
G04 APERTURE END LIST*
D10*
D11*
X121770000Y-74810000D03*
D12*
X119230000Y-74810000D03*
X121770000Y-72270000D03*
X119230000Y-72270000D03*
X121770000Y-69730000D03*
X119230000Y-69730000D03*
X121770000Y-67190000D03*
X119230000Y-67190000D03*
D13*
X154500000Y-78000000D03*
D14*
X154500000Y-79270000D03*
X153230000Y-78000000D03*
X153230000Y-79270000D03*
X151960000Y-78000000D03*
X151960000Y-79270000D03*
X150690000Y-78000000D03*
X150690000Y-79270000D03*
X149420000Y-78000000D03*
X149420000Y-79270000D03*
X148150000Y-78000000D03*
X148150000Y-79270000D03*
X146880000Y-78000000D03*
X146880000Y-79270000D03*
X145610000Y-78000000D03*
X145610000Y-79270000D03*
D15*
X137500000Y-79500000D03*
X135000000Y-77000000D03*
X137500000Y-74500000D03*
X161000000Y-77460000D03*
X161000000Y-82540000D03*
X135290000Y-67950000D03*
X130210000Y-67950000D03*
X135290000Y-69950000D03*
X130210000Y-69950000D03*
X133960000Y-110500000D03*
X139040000Y-110500000D03*
X133960000Y-108500000D03*
X139040000Y-108500000D03*
X129960000Y-101500000D03*
X135040000Y-101500000D03*
X129960000Y-99500000D03*
X135040000Y-99500000D03*
X129960000Y-89000000D03*
X135040000Y-89000000D03*
X129960000Y-87000000D03*
X135040000Y-87000000D03*
X135290000Y-71950000D03*
X130210000Y-71950000D03*
X137810000Y-112500000D03*
X130190000Y-112500000D03*
X133810000Y-103500000D03*
X126190000Y-103500000D03*
X133810000Y-91000000D03*
X126190000Y-91000000D03*
D16*
X141460000Y-69000000D03*
X144000000Y-69000000D03*
D17*
X126500000Y-62760000D03*
D18*
X126500000Y-65300000D03*
X126500000Y-67840000D03*
D16*
X146270000Y-91500000D03*
X143730000Y-91500000D03*
X157770000Y-74000000D03*
X155230000Y-74000000D03*
X150270000Y-74000000D03*
X147730000Y-74000000D03*
X161000000Y-95730000D03*
X161000000Y-98270000D03*
X116500000Y-74770000D03*
X116500000Y-72230000D03*
D19*
X156500000Y-71000000D03*
X157770000Y-71000000D03*
X155230000Y-71000000D03*
X149000000Y-71000000D03*
X150270000Y-71000000D03*
X147730000Y-71000000D03*
D20*
X143000000Y-82730000D03*
D21*
X143000000Y-85270000D03*
D20*
X146812000Y-107442000D03*
D21*
X146812000Y-104902000D03*
D17*
X164000000Y-93080000D03*
D18*
X164000000Y-90540000D03*
X164000000Y-88000000D03*
X164000000Y-85460000D03*
X164000000Y-82920000D03*
D22*
X156591000Y-96647000D03*
X129440000Y-107400000D03*
X137149000Y-62432400D03*
X131404360Y-64968120D03*
X129439000Y-82537300D03*
X129437000Y-94888600D03*
X150391000Y-94344400D03*
X146904400Y-88213800D03*
X146076800Y-93048800D03*
X150598300Y-85379500D03*
X153326100Y-80484700D03*
X156159100Y-92809100D03*
X152319500Y-88977400D03*
D23*
X129440000Y-107400000D02*
X129410000Y-107370000D01*
X140730000Y-82730000D02*
X143000000Y-82730000D01*
X137500000Y-79500000D02*
X140730000Y-82730000D01*
X154500000Y-80274300D02*
X154500000Y-79270000D01*
X152044300Y-82730000D02*
X154500000Y-80274300D01*
X143000000Y-82730000D02*
X152044300Y-82730000D01*
X157770000Y-76251000D02*
X157770000Y-74000000D01*
X154751000Y-79270000D02*
X157770000Y-76251000D01*
X154500000Y-79270000D02*
X154751000Y-79270000D01*
X164000000Y-90540000D02*
X163540000Y-90540000D01*
X163540000Y-90540000D02*
X162150000Y-89150000D01*
X162150000Y-89150000D02*
X162150000Y-88113300D01*
X119230000Y-74810000D02*
X120493000Y-76073000D01*
X121031000Y-76073000D02*
X121031000Y-76055000D01*
X120493000Y-76073000D02*
X121031000Y-76073000D01*
X128706600Y-98246600D02*
X129960000Y-99500000D01*
X128706600Y-88253400D02*
X128706600Y-98246600D01*
X129960000Y-87000000D02*
X128706600Y-88253400D01*
X128714200Y-85754200D02*
X129960000Y-87000000D01*
X128714200Y-76055000D02*
X128714200Y-85754200D01*
X129185000Y-76055000D02*
X128714200Y-76055000D01*
X135290000Y-69950000D02*
X129185000Y-76055000D01*
X128714200Y-76055000D02*
X121031000Y-76055000D01*
X162149200Y-88112500D02*
X162150000Y-88113300D01*
X162149200Y-78609200D02*
X162149200Y-88112500D01*
X161000000Y-77460000D02*
X162149200Y-78609200D01*
X134730100Y-90079900D02*
X133810000Y-91000000D01*
X145038300Y-90079900D02*
X134730100Y-90079900D01*
X146904400Y-88213800D02*
X145038300Y-90079900D01*
X131960000Y-87000000D02*
X129960000Y-89000000D01*
X135040000Y-87000000D02*
X131960000Y-87000000D01*
X135625600Y-103500000D02*
X133810000Y-103500000D01*
X146076800Y-93048800D02*
X135625600Y-103500000D01*
X131960000Y-99500000D02*
X129960000Y-101500000D01*
X135040000Y-99500000D02*
X131960000Y-99500000D01*
X131960000Y-112500000D02*
X133960000Y-110500000D01*
X130190000Y-112500000D02*
X131960000Y-112500000D01*
X135960000Y-108500000D02*
X133960000Y-110500000D01*
X139040000Y-108500000D02*
X135960000Y-108500000D01*
X164000000Y-93080000D02*
X163580000Y-93080000D01*
X163580000Y-93080000D02*
X162500000Y-92000000D01*
X162500000Y-92000000D02*
X162500000Y-90989000D01*
X150998500Y-85779700D02*
X150598300Y-85379500D01*
X157760300Y-85779700D02*
X150998500Y-85779700D01*
X157760300Y-86249300D02*
X157760300Y-85779700D01*
X162500000Y-90989000D02*
X157760300Y-86249300D01*
X157760300Y-85779700D02*
X161000000Y-82540000D01*
X152230000Y-77000000D02*
X153230000Y-78000000D01*
X135000000Y-77000000D02*
X152230000Y-77000000D01*
X153174700Y-80484700D02*
X153326100Y-80484700D01*
X151960000Y-79270000D02*
X153174700Y-80484700D01*
X156151200Y-92809100D02*
X152319500Y-88977400D01*
X156159100Y-92809100D02*
X156151200Y-92809100D01*
X145156000Y-78000000D02*
X145610000Y-78000000D01*
X133290000Y-69950000D02*
X135290000Y-67950000D01*
X130210000Y-69950000D02*
X133290000Y-69950000D01*
G36*
X141869327Y-62124204D02*
X141868674Y-62872513D01*
X142154436Y-63564109D01*
X142683108Y-64093704D01*
X143374204Y-64380673D01*
X144122513Y-64381326D01*
X144814109Y-64095564D01*
X145343704Y-63566892D01*
X145630673Y-62875796D01*
X145631326Y-62127487D01*
X145364203Y-61481000D01*
X149269000Y-61481000D01*
X149269000Y-62500000D01*
X149278242Y-62546463D01*
X149278242Y-62593838D01*
X149527232Y-63845596D01*
X149502016Y-65413958D01*
X149502438Y-65416275D01*
X149502026Y-65418596D01*
X149506867Y-65440576D01*
X149510901Y-65462708D01*
X149512178Y-65464687D01*
X149512685Y-65466989D01*
X149525563Y-65485435D01*
X149537765Y-65504348D01*
X149539703Y-65505689D01*
X149541052Y-65507620D01*
X151712052Y-67591619D01*
X151731830Y-67604258D01*
X151751399Y-67617333D01*
X151752695Y-67617590D01*
X151753808Y-67618302D01*
X151776960Y-67622417D01*
X151800000Y-67627000D01*
X152922945Y-67627000D01*
X154656162Y-67971758D01*
X154703537Y-67971758D01*
X154750000Y-67981000D01*
X166019000Y-67981000D01*
X166019000Y-107019000D01*
X154750000Y-107019000D01*
X154703537Y-107028242D01*
X154656162Y-107028242D01*
X152922945Y-107373000D01*
X152500000Y-107373000D01*
X152495159Y-107373962D01*
X152490259Y-107373374D01*
X152471006Y-107378767D01*
X152451399Y-107382667D01*
X152447295Y-107385408D01*
X152442543Y-107386740D01*
X152426823Y-107399087D01*
X152410197Y-107410197D01*
X152407453Y-107414302D01*
X152403574Y-107417350D01*
X152054346Y-107824782D01*
X150947237Y-108564529D01*
X150814529Y-108697236D01*
X149730665Y-110319354D01*
X149658844Y-110492745D01*
X149626003Y-110657849D01*
X149403574Y-110917349D01*
X149393773Y-110934776D01*
X149382667Y-110951399D01*
X149381704Y-110956238D01*
X149379285Y-110960541D01*
X149376898Y-110980398D01*
X149373000Y-111000000D01*
X149373000Y-111929781D01*
X149278242Y-112406162D01*
X149278242Y-112453537D01*
X149269000Y-112500000D01*
X149269000Y-113519000D01*
X145363591Y-113519000D01*
X145630673Y-112875796D01*
X145631326Y-112127487D01*
X145345564Y-111435891D01*
X144816892Y-110906296D01*
X144125796Y-110619327D01*
X143377487Y-110618674D01*
X142685891Y-110904436D01*
X142156296Y-111433108D01*
X141869327Y-112124204D01*
X141868674Y-112872513D01*
X142135797Y-113519000D01*
X138170658Y-113519000D01*
X138420689Y-113415689D01*
X138724622Y-113112286D01*
X138889313Y-112715668D01*
X138889687Y-112286216D01*
X138725689Y-111889311D01*
X138422286Y-111585378D01*
X138025668Y-111420687D01*
X137596216Y-111420313D01*
X137199311Y-111584311D01*
X136895378Y-111887714D01*
X136730687Y-112284332D01*
X136730313Y-112713784D01*
X136894311Y-113110689D01*
X137197714Y-113414622D01*
X137449083Y-113519000D01*
X130550658Y-113519000D01*
X130800689Y-113415689D01*
X131104622Y-113112286D01*
X131147926Y-113008000D01*
X131960000Y-113008000D01*
X132154403Y-112969331D01*
X132319210Y-112859210D01*
X133641717Y-111536703D01*
X133744332Y-111579313D01*
X134173784Y-111579687D01*
X134570689Y-111415689D01*
X134691555Y-111295033D01*
X138424572Y-111295033D01*
X138500121Y-111459145D01*
X138908266Y-111592737D01*
X139336466Y-111559970D01*
X139579879Y-111459145D01*
X139655428Y-111295033D01*
X139475823Y-111115428D01*
X139835033Y-111115428D01*
X139999145Y-111039879D01*
X140132737Y-110631734D01*
X140099970Y-110203534D01*
X139999145Y-109960121D01*
X139835033Y-109884572D01*
X139219605Y-110500000D01*
X138860395Y-110500000D01*
X138860395Y-110500000D01*
X138244967Y-109884572D01*
X138080855Y-109960121D01*
X137947263Y-110368266D01*
X137980030Y-110796466D01*
X138080855Y-111039879D01*
X138244967Y-111115428D01*
X138860395Y-110500000D01*
X139219605Y-110500000D01*
X138860395Y-110500000D01*
X138860395Y-110500000D01*
X139219605Y-110500000D01*
X139835033Y-111115428D01*
X139475823Y-111115428D01*
X139040000Y-110679605D01*
X138424572Y-111295033D01*
X134691555Y-111295033D01*
X134874622Y-111112286D01*
X135039313Y-110715668D01*
X135039687Y-110286216D01*
X134996566Y-110181854D01*
X136170420Y-109008000D01*
X138081881Y-109008000D01*
X138124311Y-109110689D01*
X138427714Y-109414622D01*
X138616061Y-109492831D01*
X138500121Y-109540855D01*
X138424572Y-109704967D01*
X139040000Y-110320395D01*
X139655428Y-109704967D01*
X139579879Y-109540855D01*
X139450363Y-109498462D01*
X139650689Y-109415689D01*
X139954622Y-109112286D01*
X140119313Y-108715668D01*
X140119687Y-108286216D01*
X139955689Y-107889311D01*
X139652286Y-107585378D01*
X139612844Y-107569000D01*
X145510250Y-107569000D01*
X145415000Y-107664250D01*
X145415000Y-108533786D01*
X145473004Y-108673820D01*
X145580181Y-108780996D01*
X145720215Y-108839000D01*
X146589750Y-108839000D01*
X146685000Y-108743750D01*
X146685000Y-107569000D01*
X146939000Y-107569000D01*
X146685000Y-107569000D01*
X146685000Y-107569000D01*
X146939000Y-107569000D01*
X146939000Y-108743750D01*
X147034250Y-108839000D01*
X147903785Y-108839000D01*
X148043819Y-108780996D01*
X148150996Y-108673820D01*
X148209000Y-108533786D01*
X148209000Y-107664250D01*
X148113750Y-107569000D01*
X146939000Y-107569000D01*
X146685000Y-107569000D01*
X146685000Y-107569000D01*
X145510250Y-107569000D01*
X139612844Y-107569000D01*
X139255668Y-107420687D01*
X138826216Y-107420313D01*
X138429311Y-107584311D01*
X138125378Y-107887714D01*
X138082074Y-107992000D01*
X135960000Y-107992000D01*
X135765596Y-108030669D01*
X135600790Y-108140790D01*
X135039325Y-108702255D01*
X135039687Y-108286216D01*
X134875689Y-107889311D01*
X134572286Y-107585378D01*
X134175668Y-107420687D01*
X133746216Y-107420313D01*
X133349311Y-107584311D01*
X133045378Y-107887714D01*
X132880687Y-108284332D01*
X132880313Y-108713784D01*
X133044311Y-109110689D01*
X133347714Y-109414622D01*
X133553342Y-109500007D01*
X133349311Y-109584311D01*
X133045378Y-109887714D01*
X132880687Y-110284332D01*
X132880313Y-110713784D01*
X132923434Y-110818146D01*
X131749580Y-111992000D01*
X131148119Y-111992000D01*
X131105689Y-111889311D01*
X130802286Y-111585378D01*
X130405668Y-111420687D01*
X129976216Y-111420313D01*
X129579311Y-111584311D01*
X129275378Y-111887714D01*
X129110687Y-112284332D01*
X129110313Y-112713784D01*
X129274311Y-113110689D01*
X129577714Y-113414622D01*
X129829083Y-113519000D01*
X114231000Y-113519000D01*
X114231000Y-106998213D01*
X118331891Y-106998213D01*
X117999381Y-107330144D01*
X117819206Y-107764054D01*
X117818796Y-108233885D01*
X117998213Y-108668109D01*
X118330144Y-109000619D01*
X118764054Y-109180794D01*
X119233885Y-109181204D01*
X119668109Y-109001787D01*
X120000619Y-108669856D01*
X120180794Y-108235946D01*
X120181204Y-107766115D01*
X120001787Y-107331891D01*
X119669856Y-106999381D01*
X119667044Y-106998213D01*
X125331891Y-106998213D01*
X119667044Y-106998213D01*
X119667044Y-106998213D01*
X125331891Y-106998213D01*
X124999381Y-107330144D01*
X124819206Y-107764054D01*
X124818796Y-108233885D01*
X124998213Y-108668109D01*
X125330144Y-109000619D01*
X125764054Y-109180794D01*
X126233885Y-109181204D01*
X126668109Y-109001787D01*
X127000619Y-108669856D01*
X127180794Y-108235946D01*
X127181204Y-107766115D01*
X127001787Y-107331891D01*
X126669856Y-106999381D01*
X126235946Y-106819206D01*
X125766115Y-106818796D01*
X125331891Y-106998213D01*
X119667044Y-106998213D01*
X119235946Y-106819206D01*
X118766115Y-106818796D01*
X118331891Y-106998213D01*
X114231000Y-106998213D01*
X114231000Y-104874631D01*
X145415000Y-104874631D01*
X145415000Y-104929369D01*
X145521340Y-105463978D01*
X145824172Y-105917197D01*
X146015442Y-106045000D01*
X145720215Y-106045000D01*
X145580181Y-106103004D01*
X145473004Y-106210180D01*
X145415000Y-106350214D01*
X145415000Y-107219750D01*
X145510250Y-107315000D01*
X146685000Y-107315000D01*
X146685000Y-107295000D01*
X146939000Y-107295000D01*
X146939000Y-107315000D01*
X148113750Y-107315000D01*
X148209000Y-107219750D01*
X148209000Y-106350214D01*
X148150996Y-106210180D01*
X148043819Y-106103004D01*
X147903785Y-106045000D01*
X147608558Y-106045000D01*
X147799828Y-105917197D01*
X148102660Y-105463978D01*
X148209000Y-104929369D01*
X148209000Y-104874631D01*
X148102660Y-104340022D01*
X147799828Y-103886803D01*
X147346609Y-103583971D01*
X146812000Y-103477631D01*
X146277391Y-103583971D01*
X136260049Y-103583971D01*
X138939584Y-100904436D01*
X161685891Y-100904436D01*
X161156296Y-101433108D01*
X160869327Y-102124204D01*
X160868674Y-102872513D01*
X161154436Y-103564109D01*
X161683108Y-104093704D01*
X162374204Y-104380673D01*
X163122513Y-104381326D01*
X163814109Y-104095564D01*
X164343704Y-103566892D01*
X164630673Y-102875796D01*
X164631326Y-102127487D01*
X164345564Y-101435891D01*
X163816892Y-100906296D01*
X163125796Y-100619327D01*
X162377487Y-100618674D01*
X161685891Y-100904436D01*
X138939584Y-100904436D01*
X140741159Y-99102861D01*
X160346744Y-99102861D01*
X160428715Y-99272371D01*
X160855793Y-99414691D01*
X161304824Y-99382743D01*
X161571285Y-99272371D01*
X161653256Y-99102861D01*
X161000000Y-98449605D01*
X160346744Y-99102861D01*
X140741159Y-99102861D01*
X142145305Y-97698715D01*
X159997629Y-97698715D01*
X159855309Y-98125793D01*
X159887257Y-98574824D01*
X159997629Y-98841285D01*
X160167139Y-98923256D01*
X160820395Y-98270000D01*
X161179605Y-98270000D01*
X161832861Y-98923256D01*
X162002371Y-98841285D01*
X162144691Y-98414207D01*
X162112743Y-97965176D01*
X162002371Y-97698715D01*
X161832861Y-97616744D01*
X161179605Y-98270000D01*
X160820395Y-98270000D01*
X160820395Y-98270000D01*
X160167139Y-97616744D01*
X159997629Y-97698715D01*
X142145305Y-97698715D01*
X142686763Y-97157257D01*
X160695176Y-97157257D01*
X160428715Y-97267629D01*
X160346744Y-97437139D01*
X161000000Y-98090395D01*
X161653256Y-97437139D01*
X161571285Y-97267629D01*
X161144207Y-97125309D01*
X160695176Y-97157257D01*
X142686763Y-97157257D01*
X145073878Y-94770142D01*
X160359854Y-94770142D01*
X160041261Y-95088180D01*
X159868627Y-95503929D01*
X159868234Y-95954096D01*
X160040142Y-96370146D01*
X160358180Y-96688739D01*
X160773929Y-96861373D01*
X161224096Y-96861766D01*
X161640146Y-96689858D01*
X161958739Y-96371820D01*
X162131373Y-95956071D01*
X162131766Y-95505904D01*
X161959858Y-95089854D01*
X161641820Y-94771261D01*
X161226071Y-94598627D01*
X160775904Y-94598234D01*
X160359854Y-94770142D01*
X145073878Y-94770142D01*
X145900420Y-93943600D01*
X162595536Y-93943600D01*
X162623722Y-94088874D01*
X162707596Y-94216556D01*
X162834216Y-94302026D01*
X162984000Y-94332064D01*
X165016000Y-94332064D01*
X165161274Y-94303878D01*
X165288956Y-94220004D01*
X165374426Y-94093384D01*
X165404464Y-93943600D01*
X165404464Y-92216400D01*
X165376278Y-92071126D01*
X165292404Y-91943444D01*
X165165784Y-91857974D01*
X165016000Y-91827936D01*
X163046356Y-91827936D01*
X163008000Y-91789580D01*
X163008000Y-91465390D01*
X163343943Y-91689860D01*
X163820231Y-91784600D01*
X164179769Y-91784600D01*
X164656057Y-91689860D01*
X165059834Y-91420065D01*
X165329629Y-91016288D01*
X165424369Y-90540000D01*
X165329629Y-90063712D01*
X165059834Y-89659935D01*
X164656057Y-89390140D01*
X164179769Y-89295400D01*
X163820231Y-89295400D01*
X163343943Y-89390140D01*
X163202841Y-89484421D01*
X162658000Y-88939580D01*
X162658000Y-88346784D01*
X162854581Y-88752867D01*
X163218280Y-89075570D01*
X163677787Y-89234527D01*
X163873000Y-89150643D01*
X163873000Y-88127000D01*
X164127000Y-88127000D01*
X164127000Y-89150643D01*
X164322213Y-89234527D01*
X164781720Y-89075570D01*
X165145419Y-88752867D01*
X165355393Y-88319118D01*
X165294712Y-88127000D01*
X164127000Y-88127000D01*
X163873000Y-88127000D01*
X163873000Y-88127000D01*
X163853000Y-88127000D01*
X163853000Y-87873000D01*
X163873000Y-87873000D01*
X163873000Y-86849357D01*
X164127000Y-86849357D01*
X164127000Y-87873000D01*
X165294712Y-87873000D01*
X165355393Y-87680882D01*
X165145419Y-87247133D01*
X164781720Y-86924430D01*
X164322213Y-86765473D01*
X164127000Y-86849357D01*
X163873000Y-86849357D01*
X163873000Y-86849357D01*
X163677787Y-86765473D01*
X163218280Y-86924430D01*
X162854581Y-87247133D01*
X162657200Y-87654868D01*
X162657200Y-85870073D01*
X162670371Y-85936288D01*
X162940166Y-86340065D01*
X163343943Y-86609860D01*
X163820231Y-86704600D01*
X164179769Y-86704600D01*
X164656057Y-86609860D01*
X165059834Y-86340065D01*
X165329629Y-85936288D01*
X165424369Y-85460000D01*
X165329629Y-84983712D01*
X165059834Y-84579935D01*
X164656057Y-84310140D01*
X164179769Y-84215400D01*
X163820231Y-84215400D01*
X163343943Y-84310140D01*
X162940166Y-84579935D01*
X162670371Y-84983712D01*
X162657200Y-85049927D01*
X162657200Y-83330073D01*
X162670371Y-83396288D01*
X162940166Y-83800065D01*
X163343943Y-84069860D01*
X163820231Y-84164600D01*
X164179769Y-84164600D01*
X164656057Y-84069860D01*
X165059834Y-83800065D01*
X165329629Y-83396288D01*
X165424369Y-82920000D01*
X165329629Y-82443712D01*
X165059834Y-82039935D01*
X164656057Y-81770140D01*
X164179769Y-81675400D01*
X163820231Y-81675400D01*
X163343943Y-81770140D01*
X162940166Y-82039935D01*
X162670371Y-82443712D01*
X162657200Y-82509927D01*
X162657200Y-78609200D01*
X162619628Y-78420313D01*
X162618531Y-78414796D01*
X162508410Y-78249990D01*
X162036703Y-77778283D01*
X162079313Y-77675668D01*
X162079687Y-77246216D01*
X161915689Y-76849311D01*
X161612286Y-76545378D01*
X161215668Y-76380687D01*
X160786216Y-76380313D01*
X160389311Y-76544311D01*
X158173242Y-76544311D01*
X158239331Y-76445403D01*
X158278000Y-76251000D01*
X158278000Y-75014460D01*
X158410146Y-74959858D01*
X158728739Y-74641820D01*
X158901373Y-74226071D01*
X158901766Y-73775904D01*
X158729858Y-73359854D01*
X158411820Y-73041261D01*
X158005430Y-72872513D01*
X160868674Y-72872513D01*
X161154436Y-73564109D01*
X161683108Y-74093704D01*
X162374204Y-74380673D01*
X163122513Y-74381326D01*
X163814109Y-74095564D01*
X164343704Y-73566892D01*
X164630673Y-72875796D01*
X164631326Y-72127487D01*
X164345564Y-71435891D01*
X163816892Y-70906296D01*
X163125796Y-70619327D01*
X162377487Y-70618674D01*
X161685891Y-70904436D01*
X158600580Y-70904436D01*
X158600580Y-70676841D01*
X158537356Y-70358992D01*
X158357309Y-70089532D01*
X158087849Y-69909485D01*
X157770000Y-69846261D01*
X157452151Y-69909485D01*
X157182691Y-70089532D01*
X157135000Y-70160907D01*
X157087309Y-70089532D01*
X156817849Y-69909485D01*
X156500000Y-69846261D01*
X156182151Y-69909485D01*
X155912691Y-70089532D01*
X155860623Y-70167458D01*
X155727506Y-70021899D01*
X155483840Y-69908170D01*
X155357000Y-69974730D01*
X155357000Y-70873000D01*
X155377000Y-70873000D01*
X155377000Y-71127000D01*
X155357000Y-71127000D01*
X155357000Y-72025270D01*
X155483840Y-72091830D01*
X155727506Y-71978101D01*
X155860623Y-71832542D01*
X155912691Y-71910468D01*
X156182151Y-72090515D01*
X156500000Y-72153739D01*
X156817849Y-72090515D01*
X157087309Y-71910468D01*
X157135000Y-71839093D01*
X157182691Y-71910468D01*
X157452151Y-72090515D01*
X157770000Y-72153739D01*
X158087849Y-72090515D01*
X158357309Y-71910468D01*
X158537356Y-71641008D01*
X158600580Y-71323159D01*
X158600580Y-70904436D01*
X161685891Y-70904436D01*
X158600580Y-70904436D01*
X158600580Y-70904436D01*
X161685891Y-70904436D01*
X161156296Y-71433108D01*
X160869327Y-72124204D01*
X160868674Y-72872513D01*
X158005430Y-72872513D01*
X157996071Y-72868627D01*
X157545904Y-72868234D01*
X157129854Y-73040142D01*
X156811261Y-73358180D01*
X156638627Y-73773929D01*
X156638234Y-74224096D01*
X156810142Y-74640146D01*
X157128180Y-74958739D01*
X157262000Y-75014306D01*
X157262000Y-76040580D01*
X155350900Y-77951680D01*
X155350900Y-77872998D01*
X155255652Y-77872998D01*
X155350900Y-77777750D01*
X155350900Y-77454315D01*
X155292896Y-77314281D01*
X155185720Y-77207104D01*
X155045686Y-77149100D01*
X154722250Y-77149100D01*
X154627000Y-77244350D01*
X154627000Y-77873000D01*
X154647000Y-77873000D01*
X154647000Y-78127000D01*
X154627000Y-78127000D01*
X154627000Y-78147000D01*
X154373000Y-78147000D01*
X154373000Y-78127000D01*
X154353000Y-78127000D01*
X154353000Y-77873000D01*
X154373000Y-77873000D01*
X154373000Y-77244350D01*
X154277750Y-77149100D01*
X153954314Y-77149100D01*
X153814280Y-77207104D01*
X153727460Y-77293924D01*
X153712625Y-77279063D01*
X153399997Y-77149248D01*
X153097405Y-77148984D01*
X152589210Y-76640790D01*
X152424403Y-76530669D01*
X152230000Y-76492000D01*
X135958119Y-76492000D01*
X135915689Y-76389311D01*
X135612286Y-76085378D01*
X135215668Y-75920687D01*
X134786216Y-75920313D01*
X134389311Y-76084311D01*
X134085378Y-76387714D01*
X133920687Y-76784332D01*
X133920313Y-77213784D01*
X134084311Y-77610689D01*
X134387714Y-77914622D01*
X134784332Y-78079313D01*
X135213784Y-78079687D01*
X135610689Y-77915689D01*
X135914622Y-77612286D01*
X135957926Y-77508000D01*
X144898454Y-77508000D01*
X144889063Y-77517375D01*
X144853570Y-77602850D01*
X144796790Y-77640790D01*
X144686669Y-77805597D01*
X144648000Y-78000000D01*
X144686669Y-78194403D01*
X144796790Y-78359210D01*
X144853369Y-78397015D01*
X144888222Y-78481366D01*
X145127375Y-78720937D01*
X145320902Y-78801297D01*
X145610000Y-79090395D01*
X145899226Y-78801169D01*
X146091366Y-78721778D01*
X146245058Y-78568354D01*
X146311646Y-78635058D01*
X146159063Y-78787375D01*
X146078703Y-78980902D01*
X145789605Y-79270000D01*
X146078831Y-79559226D01*
X146158222Y-79751366D01*
X146397375Y-79990937D01*
X146710003Y-80120752D01*
X147048512Y-80121047D01*
X147361366Y-79991778D01*
X147515058Y-79838354D01*
X147667375Y-79990937D01*
X147980003Y-80120752D01*
X148318512Y-80121047D01*
X148631366Y-79991778D01*
X148724826Y-79898481D01*
X148971124Y-79898481D01*
X149018293Y-80038967D01*
X149343142Y-80134159D01*
X149679692Y-80097790D01*
X149821707Y-80038967D01*
X149868876Y-79898481D01*
X150241124Y-79898481D01*
X149868876Y-79898481D01*
X149868876Y-79898481D01*
X150241124Y-79898481D01*
X150288293Y-80038967D01*
X150613142Y-80134159D01*
X150949692Y-80097790D01*
X151091707Y-80038967D01*
X151138876Y-79898481D01*
X150690000Y-79449605D01*
X150330790Y-79449605D01*
X150510395Y-79270000D01*
X150245730Y-79005335D01*
X150188967Y-78868293D01*
X150068109Y-78827714D01*
X150061519Y-78821124D01*
X150055000Y-78823313D01*
X150048481Y-78821124D01*
X150041891Y-78827714D01*
X149921033Y-78868293D01*
X149887758Y-78981847D01*
X149599605Y-79270000D01*
X149864270Y-79534665D01*
X149921033Y-79671707D01*
X150041891Y-79712286D01*
X150048481Y-79718876D01*
X150055000Y-79716687D01*
X150061519Y-79718876D01*
X150068109Y-79712286D01*
X150188967Y-79671707D01*
X150222242Y-79558153D01*
X150330790Y-79449605D01*
X150690000Y-79449605D01*
X150330790Y-79449605D01*
X150330790Y-79449605D01*
X150690000Y-79449605D01*
X150241124Y-79898481D01*
X149868876Y-79898481D01*
X149868876Y-79898481D01*
X149420000Y-79449605D01*
X148971124Y-79898481D01*
X148724826Y-79898481D01*
X148870937Y-79752625D01*
X148951297Y-79559098D01*
X149240395Y-79270000D01*
X148951169Y-78980774D01*
X148871778Y-78788634D01*
X148718354Y-78634942D01*
X148870937Y-78482625D01*
X148886863Y-78444270D01*
X149155335Y-78444270D01*
X149018293Y-78501033D01*
X148977714Y-78621891D01*
X148971124Y-78628481D01*
X148973313Y-78635000D01*
X148971124Y-78641519D01*
X148977714Y-78648109D01*
X149018293Y-78768967D01*
X149131847Y-78802242D01*
X149420000Y-79090395D01*
X149684665Y-78825730D01*
X149821707Y-78768967D01*
X149862286Y-78648109D01*
X149868876Y-78641519D01*
X149866687Y-78635000D01*
X149868876Y-78628481D01*
X149862286Y-78621891D01*
X149821707Y-78501033D01*
X149708153Y-78467758D01*
X149420000Y-78179605D01*
X149155335Y-78444270D01*
X148886863Y-78444270D01*
X148951297Y-78289098D01*
X149240395Y-78000000D01*
X149226253Y-77985858D01*
X149405858Y-77806253D01*
X149420000Y-77820395D01*
X149434143Y-77806253D01*
X149613748Y-77985858D01*
X149599605Y-78000000D01*
X149864270Y-78264665D01*
X149921033Y-78401707D01*
X150041891Y-78442286D01*
X150048481Y-78448876D01*
X150055000Y-78446687D01*
X150061519Y-78448876D01*
X150066125Y-78444270D01*
X150425335Y-78444270D01*
X150288293Y-78501033D01*
X150247714Y-78621891D01*
X150241124Y-78628481D01*
X150243313Y-78635000D01*
X150241124Y-78641519D01*
X150247714Y-78648109D01*
X150288293Y-78768967D01*
X150401847Y-78802242D01*
X150690000Y-79090395D01*
X150954665Y-78825730D01*
X151091707Y-78768967D01*
X151132286Y-78648109D01*
X151138876Y-78641519D01*
X151136687Y-78635000D01*
X151138876Y-78628481D01*
X151132286Y-78621891D01*
X151091707Y-78501033D01*
X150978153Y-78467758D01*
X150690000Y-78179605D01*
X150425335Y-78444270D01*
X150066125Y-78444270D01*
X150068109Y-78442286D01*
X150188967Y-78401707D01*
X150222242Y-78288153D01*
X150510395Y-78000000D01*
X150496253Y-77985858D01*
X150675858Y-77806253D01*
X150690000Y-77820395D01*
X150704143Y-77806253D01*
X150883748Y-77985858D01*
X150869605Y-78000000D01*
X151134270Y-78264665D01*
X151191033Y-78401707D01*
X151311891Y-78442286D01*
X151318481Y-78448876D01*
X151325000Y-78446687D01*
X151331519Y-78448876D01*
X151338109Y-78442286D01*
X151458967Y-78401707D01*
X151492242Y-78288153D01*
X151780395Y-78000000D01*
X151766253Y-77985858D01*
X151945858Y-77806253D01*
X151960000Y-77820395D01*
X151974143Y-77806253D01*
X152153748Y-77985858D01*
X152139605Y-78000000D01*
X152428831Y-78289226D01*
X152508222Y-78481366D01*
X152661646Y-78635058D01*
X152594942Y-78701646D01*
X152442625Y-78549063D01*
X152249098Y-78468703D01*
X151960000Y-78179605D01*
X151670774Y-78468831D01*
X151478634Y-78548222D01*
X151239063Y-78787375D01*
X151158703Y-78980902D01*
X150869605Y-79270000D01*
X151158831Y-79559226D01*
X151238222Y-79751366D01*
X151477375Y-79990937D01*
X151790003Y-80120752D01*
X152092596Y-80121016D01*
X152682890Y-80711310D01*
X152748439Y-80869952D01*
X152939841Y-81061687D01*
X152978246Y-81077634D01*
X151833880Y-82222000D01*
X144404464Y-82222000D01*
X144404464Y-81714000D01*
X144376278Y-81568726D01*
X144292404Y-81441044D01*
X144165784Y-81355574D01*
X144016000Y-81325536D01*
X141984000Y-81325536D01*
X141838726Y-81353722D01*
X141711044Y-81437596D01*
X141625574Y-81564216D01*
X141595536Y-81714000D01*
X141595536Y-82222000D01*
X140940420Y-82222000D01*
X138616901Y-79898481D01*
X145161124Y-79898481D01*
X145208293Y-80038967D01*
X145533142Y-80134159D01*
X145869692Y-80097790D01*
X146011707Y-80038967D01*
X146058876Y-79898481D01*
X145610000Y-79449605D01*
X145161124Y-79898481D01*
X138616901Y-79898481D01*
X138536703Y-79818283D01*
X138579313Y-79715668D01*
X138579687Y-79286216D01*
X138415689Y-78889311D01*
X138394708Y-78868293D01*
X144841033Y-78868293D01*
X144745841Y-79193142D01*
X144782210Y-79529692D01*
X144841033Y-79671707D01*
X144981519Y-79718876D01*
X145430395Y-79270000D01*
X144981519Y-78821124D01*
X144841033Y-78868293D01*
X138394708Y-78868293D01*
X138112286Y-78585378D01*
X137715668Y-78420687D01*
X137286216Y-78420313D01*
X136889311Y-78584311D01*
X136585378Y-78887714D01*
X136420687Y-79284332D01*
X136420313Y-79713784D01*
X136584311Y-80110689D01*
X136887714Y-80414622D01*
X137284332Y-80579313D01*
X137713784Y-80579687D01*
X137818146Y-80536566D01*
X140370790Y-83089210D01*
X140535597Y-83199331D01*
X140730000Y-83238000D01*
X141595536Y-83238000D01*
X141595536Y-83746000D01*
X141623722Y-83891274D01*
X141707596Y-84018956D01*
X141834216Y-84104426D01*
X141984000Y-84134464D01*
X142192272Y-84134464D01*
X142012172Y-84254803D01*
X141709340Y-84708022D01*
X141603000Y-85242631D01*
X141603000Y-85297369D01*
X141709340Y-85831978D01*
X142012172Y-86285197D01*
X142465391Y-86588029D01*
X143000000Y-86694369D01*
X143534609Y-86588029D01*
X143987828Y-86285197D01*
X144290660Y-85831978D01*
X144397000Y-85297369D01*
X144397000Y-85242631D01*
X144290660Y-84708022D01*
X143987828Y-84254803D01*
X143807728Y-84134464D01*
X144016000Y-84134464D01*
X144161274Y-84106278D01*
X144288956Y-84022404D01*
X144374426Y-83895784D01*
X144404464Y-83746000D01*
X144404464Y-83238000D01*
X152044300Y-83238000D01*
X152238703Y-83199331D01*
X152403510Y-83089210D01*
X154859210Y-80633510D01*
X154969331Y-80468704D01*
X154992975Y-80349835D01*
X155008000Y-80274300D01*
X155008000Y-79965190D01*
X155220937Y-79752625D01*
X155350752Y-79439997D01*
X155350797Y-79388623D01*
X158129210Y-76610210D01*
X158173242Y-76544311D01*
X160389311Y-76544311D01*
X158173242Y-76544311D01*
X158173242Y-76544311D01*
X160389311Y-76544311D01*
X160085378Y-76847714D01*
X159920687Y-77244332D01*
X159920313Y-77673784D01*
X160084311Y-78070689D01*
X160387714Y-78374622D01*
X160784332Y-78539313D01*
X161213784Y-78539687D01*
X161318146Y-78496566D01*
X161641200Y-78819620D01*
X161641200Y-81654343D01*
X161612286Y-81625378D01*
X161215668Y-81460687D01*
X160786216Y-81460313D01*
X160389311Y-81624311D01*
X160085378Y-81927714D01*
X159920687Y-82324332D01*
X159920313Y-82753784D01*
X159963434Y-82858146D01*
X157549880Y-85271700D01*
X151279394Y-85271700D01*
X151279418Y-85244635D01*
X151175961Y-84994248D01*
X150984559Y-84802513D01*
X150734354Y-84698618D01*
X150463435Y-84698382D01*
X150213048Y-84801839D01*
X150021313Y-84993241D01*
X149917418Y-85243446D01*
X149917182Y-85514365D01*
X150020639Y-85764752D01*
X150212041Y-85956487D01*
X150462246Y-86060382D01*
X150560848Y-86060468D01*
X150639290Y-86138910D01*
X150804096Y-86249031D01*
X150836350Y-86255446D01*
X150998500Y-86287700D01*
X157259938Y-86287700D01*
X157290969Y-86443703D01*
X157401090Y-86608510D01*
X161992000Y-91199420D01*
X155259940Y-91199420D01*
X153000533Y-88940013D01*
X153000618Y-88842535D01*
X152897161Y-88592148D01*
X152705759Y-88400413D01*
X152455554Y-88296518D01*
X152184635Y-88296282D01*
X151934248Y-88399739D01*
X151742513Y-88591141D01*
X151638618Y-88841346D01*
X151638382Y-89112265D01*
X151741839Y-89362652D01*
X151933241Y-89554387D01*
X152183446Y-89658282D01*
X152282048Y-89658368D01*
X155478060Y-92854380D01*
X155477982Y-92943965D01*
X155581439Y-93194352D01*
X155772841Y-93386087D01*
X156023046Y-93489982D01*
X156293965Y-93490218D01*
X156544352Y-93386761D01*
X156736087Y-93195359D01*
X156839982Y-92945154D01*
X156840218Y-92674235D01*
X156736761Y-92423848D01*
X156545359Y-92232113D01*
X156295154Y-92128218D01*
X156188645Y-92128125D01*
X155259940Y-91199420D01*
X161992000Y-91199420D01*
X155259940Y-91199420D01*
X155259940Y-91199420D01*
X161992000Y-91199420D01*
X161992000Y-92000000D01*
X162030669Y-92194403D01*
X162140790Y-92359210D01*
X162595536Y-92813956D01*
X162595536Y-93943600D01*
X145900420Y-93943600D01*
X146114187Y-93729833D01*
X146211665Y-93729918D01*
X146462052Y-93626461D01*
X146653787Y-93435059D01*
X146757682Y-93184854D01*
X146757918Y-92913935D01*
X146654461Y-92663548D01*
X146585169Y-92594135D01*
X146910146Y-92459858D01*
X147228739Y-92141820D01*
X147401373Y-91726071D01*
X147401766Y-91275904D01*
X147229858Y-90859854D01*
X146911820Y-90541261D01*
X146496071Y-90368627D01*
X146045904Y-90368234D01*
X145629854Y-90540142D01*
X145311261Y-90858180D01*
X145138627Y-91273929D01*
X145138234Y-91724096D01*
X145310142Y-92140146D01*
X145628180Y-92458739D01*
X145681705Y-92480965D01*
X145499813Y-92662541D01*
X145395918Y-92912746D01*
X145395832Y-93011348D01*
X135415180Y-102992000D01*
X134768119Y-102992000D01*
X134725689Y-102889311D01*
X134422286Y-102585378D01*
X134118285Y-102459145D01*
X134500121Y-102459145D01*
X134908266Y-102592737D01*
X135336466Y-102559970D01*
X135579879Y-102459145D01*
X135655428Y-102295033D01*
X135475823Y-102115428D01*
X135835033Y-102115428D01*
X135999145Y-102039879D01*
X136132737Y-101631734D01*
X136099970Y-101203534D01*
X135999145Y-100960121D01*
X135835033Y-100884572D01*
X135219605Y-101500000D01*
X134860395Y-101500000D01*
X134860395Y-101500000D01*
X134244967Y-100884572D01*
X134080855Y-100960121D01*
X133947263Y-101368266D01*
X133980030Y-101796466D01*
X134080855Y-102039879D01*
X134244967Y-102115428D01*
X134860395Y-101500000D01*
X135219605Y-101500000D01*
X134860395Y-101500000D01*
X134860395Y-101500000D01*
X135219605Y-101500000D01*
X135835033Y-102115428D01*
X135475823Y-102115428D01*
X135040000Y-101679605D01*
X134424572Y-102295033D01*
X130691555Y-102295033D01*
X130874622Y-102112286D01*
X131039313Y-101715668D01*
X131039687Y-101286216D01*
X130996566Y-101181854D01*
X132170420Y-100008000D01*
X134081881Y-100008000D01*
X134124311Y-100110689D01*
X134427714Y-100414622D01*
X134616061Y-100492831D01*
X134500121Y-100540855D01*
X134424572Y-100704967D01*
X135040000Y-101320395D01*
X135655428Y-100704967D01*
X135579879Y-100540855D01*
X135450363Y-100498462D01*
X135650689Y-100415689D01*
X135954622Y-100112286D01*
X136119313Y-99715668D01*
X136119687Y-99286216D01*
X135955689Y-98889311D01*
X135652286Y-98585378D01*
X135255668Y-98420687D01*
X134826216Y-98420313D01*
X134429311Y-98584311D01*
X134125378Y-98887714D01*
X134082074Y-98992000D01*
X131960000Y-98992000D01*
X131765596Y-99030669D01*
X131600790Y-99140790D01*
X131039325Y-99702255D01*
X131039687Y-99286216D01*
X130875689Y-98889311D01*
X130572286Y-98585378D01*
X130175668Y-98420687D01*
X129746216Y-98420313D01*
X129641854Y-98463434D01*
X129214600Y-98036180D01*
X129214600Y-92332861D01*
X143076744Y-92332861D01*
X143158715Y-92502371D01*
X143585793Y-92644691D01*
X144034824Y-92612743D01*
X144301285Y-92502371D01*
X144383256Y-92332861D01*
X144203651Y-92153256D01*
X144562861Y-92153256D01*
X144732371Y-92071285D01*
X144874691Y-91644207D01*
X144842743Y-91195176D01*
X144732371Y-90928715D01*
X144562861Y-90846744D01*
X143909605Y-91500000D01*
X143550395Y-91500000D01*
X143550395Y-91500000D01*
X142897139Y-90846744D01*
X142727629Y-90928715D01*
X142585309Y-91355793D01*
X142617257Y-91804824D01*
X142727629Y-92071285D01*
X142897139Y-92153256D01*
X143550395Y-91500000D01*
X143909605Y-91500000D01*
X143550395Y-91500000D01*
X143550395Y-91500000D01*
X143909605Y-91500000D01*
X144562861Y-92153256D01*
X144203651Y-92153256D01*
X143730000Y-91679605D01*
X143076744Y-92332861D01*
X129214600Y-92332861D01*
X129214600Y-89781275D01*
X129347714Y-89914622D01*
X129744332Y-90079313D01*
X130173784Y-90079687D01*
X130570689Y-89915689D01*
X130874622Y-89612286D01*
X131039313Y-89215668D01*
X131039687Y-88786216D01*
X130996566Y-88681854D01*
X131218299Y-88460121D01*
X134080855Y-88460121D01*
X133947263Y-88868266D01*
X133980030Y-89296466D01*
X134080855Y-89539879D01*
X134244967Y-89615428D01*
X134860395Y-89000000D01*
X134244967Y-88384572D01*
X134080855Y-88460121D01*
X131218299Y-88460121D01*
X132170420Y-87508000D01*
X134081881Y-87508000D01*
X134124311Y-87610689D01*
X134427714Y-87914622D01*
X134616061Y-87992831D01*
X134500121Y-88040855D01*
X134424572Y-88204967D01*
X135040000Y-88820395D01*
X135655428Y-88204967D01*
X135579879Y-88040855D01*
X135450363Y-87998462D01*
X135650689Y-87915689D01*
X135930727Y-87636139D01*
X146519148Y-87636139D01*
X146327413Y-87827541D01*
X146223518Y-88077746D01*
X146223432Y-88176348D01*
X144827880Y-89571900D01*
X135929587Y-89571900D01*
X135999145Y-89539879D01*
X136132737Y-89131734D01*
X136099970Y-88703534D01*
X135999145Y-88460121D01*
X135835033Y-88384572D01*
X135219605Y-89000000D01*
X135233748Y-89014143D01*
X135054143Y-89193748D01*
X135040000Y-89179605D01*
X134627246Y-89592359D01*
X134535697Y-89610569D01*
X134370890Y-89720690D01*
X134128283Y-89963297D01*
X134025668Y-89920687D01*
X133596216Y-89920313D01*
X133199311Y-90084311D01*
X132895378Y-90387714D01*
X132730687Y-90784332D01*
X132730313Y-91213784D01*
X132894311Y-91610689D01*
X133197714Y-91914622D01*
X133594332Y-92079313D01*
X134023784Y-92079687D01*
X134420689Y-91915689D01*
X134724622Y-91612286D01*
X134889313Y-91215668D01*
X134889687Y-90786216D01*
X134846566Y-90681854D01*
X134940520Y-90587900D01*
X143115062Y-90587900D01*
X143076744Y-90667139D01*
X143730000Y-91320395D01*
X144383256Y-90667139D01*
X144344938Y-90587900D01*
X145038300Y-90587900D01*
X145232703Y-90549231D01*
X145397510Y-90439110D01*
X146941787Y-88894833D01*
X147039265Y-88894918D01*
X147289652Y-88791461D01*
X147481387Y-88600059D01*
X147585282Y-88349854D01*
X147585518Y-88078935D01*
X147482061Y-87828548D01*
X147290659Y-87636813D01*
X147040454Y-87532918D01*
X146769535Y-87532682D01*
X146519148Y-87636139D01*
X135930727Y-87636139D01*
X135954622Y-87612286D01*
X136119313Y-87215668D01*
X136119687Y-86786216D01*
X135955689Y-86389311D01*
X135652286Y-86085378D01*
X135255668Y-85920687D01*
X134826216Y-85920313D01*
X134429311Y-86084311D01*
X134125378Y-86387714D01*
X134082074Y-86492000D01*
X131960000Y-86492000D01*
X131765596Y-86530669D01*
X131600790Y-86640790D01*
X131039325Y-87202255D01*
X131039687Y-86786216D01*
X130875689Y-86389311D01*
X130572286Y-86085378D01*
X130175668Y-85920687D01*
X129746216Y-85920313D01*
X129641854Y-85963434D01*
X129222200Y-85543780D01*
X129222200Y-76555600D01*
X129379403Y-76524331D01*
X129544210Y-76414210D01*
X130663387Y-75295033D01*
X136884572Y-75295033D01*
X136960121Y-75459145D01*
X137368266Y-75592737D01*
X137796466Y-75559970D01*
X138039879Y-75459145D01*
X138115428Y-75295033D01*
X137965086Y-75144691D01*
X147585793Y-75144691D01*
X148034824Y-75112743D01*
X148301285Y-75002371D01*
X148383256Y-74832861D01*
X147730000Y-74179605D01*
X147076744Y-74832861D01*
X138526905Y-74832861D01*
X138592737Y-74631734D01*
X138567721Y-74304824D01*
X146617257Y-74304824D01*
X146727629Y-74571285D01*
X146897139Y-74653256D01*
X147550395Y-74000000D01*
X147909605Y-74000000D01*
X148562861Y-74653256D01*
X148732371Y-74571285D01*
X148874691Y-74144207D01*
X148842743Y-73695176D01*
X148732371Y-73428715D01*
X148562861Y-73346744D01*
X147909605Y-74000000D01*
X147550395Y-74000000D01*
X147550395Y-74000000D01*
X146897139Y-73346744D01*
X146727629Y-73428715D01*
X137697274Y-73428715D01*
X137631734Y-73407263D01*
X137203534Y-73440030D01*
X136960121Y-73540855D01*
X136884572Y-73704967D01*
X137500000Y-74320395D01*
X138115428Y-73704967D01*
X138039879Y-73540855D01*
X137697274Y-73428715D01*
X146727629Y-73428715D01*
X137697274Y-73428715D01*
X137697274Y-73428715D01*
X146727629Y-73428715D01*
X146585309Y-73855793D01*
X146617257Y-74304824D01*
X138567721Y-74304824D01*
X138559970Y-74203534D01*
X138459145Y-73960121D01*
X138295033Y-73884572D01*
X137679605Y-74500000D01*
X138295033Y-75115428D01*
X138459145Y-75039879D01*
X138526905Y-74832861D01*
X147076744Y-74832861D01*
X138526905Y-74832861D01*
X138526905Y-74832861D01*
X147076744Y-74832861D01*
X147158715Y-75002371D01*
X147585793Y-75144691D01*
X155085793Y-75144691D01*
X155534824Y-75112743D01*
X155801285Y-75002371D01*
X155883256Y-74832861D01*
X155230000Y-74179605D01*
X154576744Y-74832861D01*
X151037364Y-74832861D01*
X151228739Y-74641820D01*
X151401373Y-74226071D01*
X151401766Y-73775904D01*
X151258311Y-73428715D01*
X154227629Y-73428715D01*
X154085309Y-73855793D01*
X154117257Y-74304824D01*
X154227629Y-74571285D01*
X154397139Y-74653256D01*
X155050395Y-74000000D01*
X155409605Y-74000000D01*
X156062861Y-74653256D01*
X156232371Y-74571285D01*
X156374691Y-74144207D01*
X156342743Y-73695176D01*
X156232371Y-73428715D01*
X156062861Y-73346744D01*
X155409605Y-74000000D01*
X155050395Y-74000000D01*
X155050395Y-74000000D01*
X154397139Y-73346744D01*
X154227629Y-73428715D01*
X151258311Y-73428715D01*
X151229858Y-73359854D01*
X150911820Y-73041261D01*
X150540938Y-72887257D01*
X154925176Y-72887257D01*
X154658715Y-72997629D01*
X154576744Y-73167139D01*
X155230000Y-73820395D01*
X155883256Y-73167139D01*
X155801285Y-72997629D01*
X155374207Y-72855309D01*
X154925176Y-72887257D01*
X150540938Y-72887257D01*
X150496071Y-72868627D01*
X150045904Y-72868234D01*
X149629854Y-73040142D01*
X149311261Y-73358180D01*
X149138627Y-73773929D01*
X149138234Y-74224096D01*
X149310142Y-74640146D01*
X149628180Y-74958739D01*
X150043929Y-75131373D01*
X150494096Y-75131766D01*
X150910146Y-74959858D01*
X151037364Y-74832861D01*
X154576744Y-74832861D01*
X151037364Y-74832861D01*
X151037364Y-74832861D01*
X154576744Y-74832861D01*
X154658715Y-75002371D01*
X155085793Y-75144691D01*
X147585793Y-75144691D01*
X147585793Y-75144691D01*
X137965086Y-75144691D01*
X137500000Y-74679605D01*
X136884572Y-75295033D01*
X130663387Y-75295033D01*
X131998299Y-73960121D01*
X136540855Y-73960121D01*
X136407263Y-74368266D01*
X136440030Y-74796466D01*
X136540855Y-75039879D01*
X136704967Y-75115428D01*
X137320395Y-74500000D01*
X136704967Y-73884572D01*
X136540855Y-73960121D01*
X131998299Y-73960121D01*
X134210675Y-71747745D01*
X134210313Y-72163784D01*
X134374311Y-72560689D01*
X134677714Y-72864622D01*
X135074332Y-73029313D01*
X135503784Y-73029687D01*
X135848490Y-72887257D01*
X147425176Y-72887257D01*
X147158715Y-72997629D01*
X147076744Y-73167139D01*
X147730000Y-73820395D01*
X148383256Y-73167139D01*
X148301285Y-72997629D01*
X147874207Y-72855309D01*
X147425176Y-72887257D01*
X135848490Y-72887257D01*
X135900689Y-72865689D01*
X136204622Y-72562286D01*
X136369313Y-72165668D01*
X136369323Y-72153739D01*
X149000000Y-72153739D01*
X149317849Y-72090515D01*
X149587309Y-71910468D01*
X149635000Y-71839093D01*
X149682691Y-71910468D01*
X149952151Y-72090515D01*
X150270000Y-72153739D01*
X150587849Y-72090515D01*
X150857309Y-71910468D01*
X151037356Y-71641008D01*
X151100580Y-71323159D01*
X151100580Y-71127000D01*
X154399420Y-71127000D01*
X154399420Y-71427990D01*
X154511245Y-71736172D01*
X154732494Y-71978101D01*
X154976160Y-72091830D01*
X155103000Y-72025270D01*
X155103000Y-71127000D01*
X154399420Y-71127000D01*
X151100580Y-71127000D01*
X151100580Y-70676841D01*
X151037356Y-70358992D01*
X150857309Y-70089532D01*
X150756089Y-70021899D01*
X154732494Y-70021899D01*
X154511245Y-70263828D01*
X154399420Y-70572010D01*
X154399420Y-70873000D01*
X155103000Y-70873000D01*
X155103000Y-69974730D01*
X154976160Y-69908170D01*
X154732494Y-70021899D01*
X150756089Y-70021899D01*
X150587849Y-69909485D01*
X150270000Y-69846261D01*
X149952151Y-69909485D01*
X149682691Y-70089532D01*
X149635000Y-70160907D01*
X149587309Y-70089532D01*
X149317849Y-69909485D01*
X149000000Y-69846261D01*
X144753941Y-69846261D01*
X144958739Y-69641820D01*
X145131373Y-69226071D01*
X145131766Y-68775904D01*
X144959858Y-68359854D01*
X144641820Y-68041261D01*
X144226071Y-67868627D01*
X143775904Y-67868234D01*
X143359854Y-68040142D01*
X143041261Y-68358180D01*
X142868627Y-68773929D01*
X142868234Y-69224096D01*
X143040142Y-69640146D01*
X143358180Y-69958739D01*
X143773929Y-70131373D01*
X144224096Y-70131766D01*
X144640146Y-69959858D01*
X144753941Y-69846261D01*
X149000000Y-69846261D01*
X144753941Y-69846261D01*
X144753941Y-69846261D01*
X149000000Y-69846261D01*
X148682151Y-69909485D01*
X148412691Y-70089532D01*
X148360623Y-70167458D01*
X148227506Y-70021899D01*
X147983840Y-69908170D01*
X147476160Y-69908170D01*
X147476160Y-69908170D01*
X147232494Y-70021899D01*
X147011245Y-70263828D01*
X146899420Y-70572010D01*
X146899420Y-70873000D01*
X147603000Y-70873000D01*
X147603000Y-69974730D01*
X147476160Y-69908170D01*
X147983840Y-69908170D01*
X147476160Y-69908170D01*
X147476160Y-69908170D01*
X147983840Y-69908170D01*
X147857000Y-69974730D01*
X147857000Y-70873000D01*
X147877000Y-70873000D01*
X147877000Y-71127000D01*
X147857000Y-71127000D01*
X147603000Y-71127000D01*
X147603000Y-71127000D01*
X146899420Y-71127000D01*
X146899420Y-71427990D01*
X147011245Y-71736172D01*
X147232494Y-71978101D01*
X147476160Y-72091830D01*
X147603000Y-72025270D01*
X147603000Y-71127000D01*
X147857000Y-71127000D01*
X147603000Y-71127000D01*
X147603000Y-71127000D01*
X147857000Y-71127000D01*
X147857000Y-72025270D01*
X147983840Y-72091830D01*
X148227506Y-71978101D01*
X148360623Y-71832542D01*
X148412691Y-71910468D01*
X148682151Y-72090515D01*
X149000000Y-72153739D01*
X136369323Y-72153739D01*
X136369687Y-71736216D01*
X136205689Y-71339311D01*
X135902286Y-71035378D01*
X135696658Y-70949993D01*
X135900689Y-70865689D01*
X136204622Y-70562286D01*
X136369313Y-70165668D01*
X136369602Y-69832861D01*
X140806744Y-69832861D01*
X140888715Y-70002371D01*
X141315793Y-70144691D01*
X141764824Y-70112743D01*
X142031285Y-70002371D01*
X142113256Y-69832861D01*
X141460000Y-69179605D01*
X140806744Y-69832861D01*
X136369602Y-69832861D01*
X136369687Y-69736216D01*
X136205689Y-69339311D01*
X135902286Y-69035378D01*
X135696658Y-68949993D01*
X135900689Y-68865689D01*
X136204622Y-68562286D01*
X136260085Y-68428715D01*
X140457629Y-68428715D01*
X140315309Y-68855793D01*
X140347257Y-69304824D01*
X140457629Y-69571285D01*
X140627139Y-69653256D01*
X141280395Y-69000000D01*
X141639605Y-69000000D01*
X142292861Y-69653256D01*
X142462371Y-69571285D01*
X142604691Y-69144207D01*
X142572743Y-68695176D01*
X142462371Y-68428715D01*
X142292861Y-68346744D01*
X141639605Y-69000000D01*
X141280395Y-69000000D01*
X141280395Y-69000000D01*
X140627139Y-68346744D01*
X140457629Y-68428715D01*
X136260085Y-68428715D01*
X136369313Y-68165668D01*
X136369555Y-67887257D01*
X141155176Y-67887257D01*
X140888715Y-67997629D01*
X140806744Y-68167139D01*
X141460000Y-68820395D01*
X142113256Y-68167139D01*
X142031285Y-67997629D01*
X141604207Y-67855309D01*
X141155176Y-67887257D01*
X136369555Y-67887257D01*
X136369687Y-67736216D01*
X136205689Y-67339311D01*
X135902286Y-67035378D01*
X135505668Y-66870687D01*
X135076216Y-66870313D01*
X134679311Y-67034311D01*
X134375378Y-67337714D01*
X134210687Y-67734332D01*
X134210313Y-68163784D01*
X134253434Y-68268146D01*
X133079580Y-69442000D01*
X131168119Y-69442000D01*
X131125689Y-69339311D01*
X130822286Y-69035378D01*
X130633939Y-68957169D01*
X130749879Y-68909145D01*
X130825428Y-68745033D01*
X130210000Y-68129605D01*
X129594572Y-68745033D01*
X129670121Y-68909145D01*
X129799637Y-68951538D01*
X129599311Y-69034311D01*
X129295378Y-69337714D01*
X129130687Y-69734332D01*
X129130313Y-70163784D01*
X129294311Y-70560689D01*
X129597714Y-70864622D01*
X129803342Y-70950007D01*
X129599311Y-71034311D01*
X129295378Y-71337714D01*
X129130687Y-71734332D01*
X129130313Y-72163784D01*
X129294311Y-72560689D01*
X129597714Y-72864622D01*
X129994332Y-73029313D01*
X130423784Y-73029687D01*
X130820689Y-72865689D01*
X131124622Y-72562286D01*
X131289313Y-72165668D01*
X131289687Y-71736216D01*
X131125689Y-71339311D01*
X130822286Y-71035378D01*
X130616658Y-70949993D01*
X130820689Y-70865689D01*
X131124622Y-70562286D01*
X131167926Y-70458000D01*
X133290000Y-70458000D01*
X133484403Y-70419331D01*
X133649210Y-70309210D01*
X134210675Y-69747745D01*
X134210313Y-70163784D01*
X134253434Y-70268146D01*
X128974580Y-75547000D01*
X123014600Y-75547000D01*
X123014600Y-75032250D01*
X122919350Y-74937000D01*
X121897000Y-74937000D01*
X121897000Y-74957000D01*
X121643000Y-74957000D01*
X121643000Y-74937000D01*
X120620650Y-74937000D01*
X120525400Y-75032250D01*
X120525400Y-75386980D01*
X120391346Y-75252926D01*
X120474600Y-74834383D01*
X120474600Y-74785617D01*
X120379860Y-74309329D01*
X120110065Y-73905552D01*
X119706288Y-73635757D01*
X119352582Y-73565400D01*
X120830615Y-73565400D01*
X120690581Y-73623404D01*
X120583404Y-73730580D01*
X120525400Y-73870614D01*
X120525400Y-74587750D01*
X120620650Y-74683000D01*
X121643000Y-74683000D01*
X121643000Y-73660650D01*
X121547750Y-73565400D01*
X121992250Y-73565400D01*
X121897000Y-73660650D01*
X121897000Y-74683000D01*
X122919350Y-74683000D01*
X123014600Y-74587750D01*
X123014600Y-73870614D01*
X122956596Y-73730580D01*
X122849419Y-73623404D01*
X122709385Y-73565400D01*
X121992250Y-73565400D01*
X121547750Y-73565400D01*
X121547750Y-73565400D01*
X120830615Y-73565400D01*
X119352582Y-73565400D01*
X119230000Y-73541017D01*
X118753712Y-73635757D01*
X118349935Y-73905552D01*
X118080140Y-74309329D01*
X117985400Y-74785617D01*
X117985400Y-74834383D01*
X118080140Y-75310671D01*
X118349935Y-75714448D01*
X118753712Y-75984243D01*
X119230000Y-76078983D01*
X119689218Y-75987638D01*
X120133790Y-76432210D01*
X120298597Y-76542331D01*
X120493000Y-76581000D01*
X121031000Y-76581000D01*
X121121492Y-76563000D01*
X128206200Y-76563000D01*
X128206200Y-85754200D01*
X128244869Y-85948603D01*
X128354990Y-86113410D01*
X128923297Y-86681717D01*
X128880687Y-86784332D01*
X128880313Y-87213784D01*
X128923434Y-87318146D01*
X128347390Y-87894190D01*
X128237269Y-88058997D01*
X128198600Y-88253400D01*
X128198600Y-98246600D01*
X128237269Y-98441003D01*
X128347390Y-98605810D01*
X128923297Y-99181717D01*
X128880687Y-99284332D01*
X128880313Y-99713784D01*
X129044311Y-100110689D01*
X129347714Y-100414622D01*
X129553342Y-100500007D01*
X129349311Y-100584311D01*
X129045378Y-100887714D01*
X128880687Y-101284332D01*
X128880313Y-101713784D01*
X129044311Y-102110689D01*
X129347714Y-102414622D01*
X129744332Y-102579313D01*
X130173784Y-102579687D01*
X130570689Y-102415689D01*
X130691555Y-102295033D01*
X134424572Y-102295033D01*
X130691555Y-102295033D01*
X130691555Y-102295033D01*
X134424572Y-102295033D01*
X134500121Y-102459145D01*
X134118285Y-102459145D01*
X134025668Y-102420687D01*
X133596216Y-102420313D01*
X133199311Y-102584311D01*
X132895378Y-102887714D01*
X132730687Y-103284332D01*
X132730313Y-103713784D01*
X132894311Y-104110689D01*
X133197714Y-104414622D01*
X133594332Y-104579313D01*
X134023784Y-104579687D01*
X134420689Y-104415689D01*
X134724622Y-104112286D01*
X134767926Y-104008000D01*
X135625600Y-104008000D01*
X135820003Y-103969331D01*
X135984810Y-103859210D01*
X136260049Y-103583971D01*
X146277391Y-103583971D01*
X136260049Y-103583971D01*
X136260049Y-103583971D01*
X146277391Y-103583971D01*
X145824172Y-103886803D01*
X145521340Y-104340022D01*
X145415000Y-104874631D01*
X114231000Y-104874631D01*
X114231000Y-102584311D01*
X125579311Y-102584311D01*
X125275378Y-102887714D01*
X125110687Y-103284332D01*
X125110313Y-103713784D01*
X125274311Y-104110689D01*
X125577714Y-104414622D01*
X125974332Y-104579313D01*
X126403784Y-104579687D01*
X126800689Y-104415689D01*
X127104622Y-104112286D01*
X127269313Y-103715668D01*
X127269687Y-103286216D01*
X127105689Y-102889311D01*
X126802286Y-102585378D01*
X126405668Y-102420687D01*
X125976216Y-102420313D01*
X125579311Y-102584311D01*
X114231000Y-102584311D01*
X114231000Y-94498213D01*
X118331891Y-94498213D01*
X117999381Y-94830144D01*
X117819206Y-95264054D01*
X117818796Y-95733885D01*
X117998213Y-96168109D01*
X118330144Y-96500619D01*
X118764054Y-96680794D01*
X119233885Y-96681204D01*
X119668109Y-96501787D01*
X120000619Y-96169856D01*
X120180794Y-95735946D01*
X120181204Y-95266115D01*
X120001787Y-94831891D01*
X119669856Y-94499381D01*
X119667044Y-94498213D01*
X125331891Y-94498213D01*
X119667044Y-94498213D01*
X119667044Y-94498213D01*
X125331891Y-94498213D01*
X124999381Y-94830144D01*
X124819206Y-95264054D01*
X124818796Y-95733885D01*
X124998213Y-96168109D01*
X125330144Y-96500619D01*
X125764054Y-96680794D01*
X126233885Y-96681204D01*
X126668109Y-96501787D01*
X127000619Y-96169856D01*
X127180794Y-95735946D01*
X127181204Y-95266115D01*
X127001787Y-94831891D01*
X126669856Y-94499381D01*
X126235946Y-94319206D01*
X125766115Y-94318796D01*
X125331891Y-94498213D01*
X119667044Y-94498213D01*
X119235946Y-94319206D01*
X118766115Y-94318796D01*
X118331891Y-94498213D01*
X114231000Y-94498213D01*
X114231000Y-90084311D01*
X125579311Y-90084311D01*
X125275378Y-90387714D01*
X125110687Y-90784332D01*
X125110313Y-91213784D01*
X125274311Y-91610689D01*
X125577714Y-91914622D01*
X125974332Y-92079313D01*
X126403784Y-92079687D01*
X126800689Y-91915689D01*
X127104622Y-91612286D01*
X127269313Y-91215668D01*
X127269687Y-90786216D01*
X127105689Y-90389311D01*
X126802286Y-90085378D01*
X126405668Y-89920687D01*
X125976216Y-89920313D01*
X125579311Y-90084311D01*
X114231000Y-90084311D01*
X114231000Y-81998213D01*
X118331891Y-81998213D01*
X117999381Y-82330144D01*
X117819206Y-82764054D01*
X117818796Y-83233885D01*
X117998213Y-83668109D01*
X118330144Y-84000619D01*
X118764054Y-84180794D01*
X119233885Y-84181204D01*
X119668109Y-84001787D01*
X120000619Y-83669856D01*
X120180794Y-83235946D01*
X120181204Y-82766115D01*
X120001787Y-82331891D01*
X119669856Y-81999381D01*
X119667044Y-81998213D01*
X125331891Y-81998213D01*
X124999381Y-82330144D01*
X124819206Y-82764054D01*
X124818796Y-83233885D01*
X124998213Y-83668109D01*
X125330144Y-84000619D01*
X125764054Y-84180794D01*
X126233885Y-84181204D01*
X126668109Y-84001787D01*
X127000619Y-83669856D01*
X127180794Y-83235946D01*
X127181204Y-82766115D01*
X127001787Y-82331891D01*
X126669856Y-81999381D01*
X126235946Y-81819206D01*
X125766115Y-81818796D01*
X125331891Y-81998213D01*
X119667044Y-81998213D01*
X119235946Y-81819206D01*
X118766115Y-81818796D01*
X118331891Y-81998213D01*
X114231000Y-81998213D01*
X114231000Y-73810142D01*
X115859854Y-73810142D01*
X115541261Y-74128180D01*
X115368627Y-74543929D01*
X115368234Y-74994096D01*
X115540142Y-75410146D01*
X115858180Y-75728739D01*
X116273929Y-75901373D01*
X116724096Y-75901766D01*
X117140146Y-75729858D01*
X117458739Y-75411820D01*
X117631373Y-74996071D01*
X117631766Y-74545904D01*
X117459858Y-74129854D01*
X117141820Y-73811261D01*
X116726071Y-73638627D01*
X116275904Y-73638234D01*
X115859854Y-73810142D01*
X114231000Y-73810142D01*
X114231000Y-73538983D01*
X121770000Y-73538983D01*
X122246288Y-73444243D01*
X122650065Y-73174448D01*
X122919860Y-72770671D01*
X123014600Y-72294383D01*
X123014600Y-72245617D01*
X122919860Y-71769329D01*
X122650065Y-71365552D01*
X122246288Y-71095757D01*
X121770000Y-71001017D01*
X121293712Y-71095757D01*
X119618534Y-71095757D01*
X119549118Y-71067007D01*
X119357000Y-71127688D01*
X119357000Y-72143000D01*
X120372865Y-72143000D01*
X120433005Y-71950880D01*
X120219310Y-71514801D01*
X119855001Y-71193695D01*
X119618534Y-71095757D01*
X121293712Y-71095757D01*
X119618534Y-71095757D01*
X119618534Y-71095757D01*
X121293712Y-71095757D01*
X120889935Y-71365552D01*
X120620140Y-71769329D01*
X120525400Y-72245617D01*
X117635542Y-72245617D01*
X117614572Y-71950880D01*
X118026995Y-71950880D01*
X118087135Y-72143000D01*
X119103000Y-72143000D01*
X119103000Y-71127688D01*
X118910882Y-71067007D01*
X118604999Y-71193695D01*
X116969455Y-71193695D01*
X116644207Y-71085309D01*
X116195176Y-71117257D01*
X115928715Y-71227629D01*
X115846744Y-71397139D01*
X116500000Y-72050395D01*
X117153256Y-71397139D01*
X117071285Y-71227629D01*
X116969455Y-71193695D01*
X118604999Y-71193695D01*
X116969455Y-71193695D01*
X116969455Y-71193695D01*
X118604999Y-71193695D01*
X118240690Y-71514801D01*
X118026995Y-71950880D01*
X117614572Y-71950880D01*
X117612743Y-71925176D01*
X117502371Y-71658715D01*
X117332861Y-71576744D01*
X116679605Y-72230000D01*
X117332861Y-72883256D01*
X117502371Y-72801285D01*
X117637095Y-72397000D01*
X118087135Y-72397000D01*
X118026995Y-72589120D01*
X118240690Y-73025199D01*
X118604999Y-73346305D01*
X118910882Y-73472993D01*
X119103000Y-73412312D01*
X119103000Y-72397000D01*
X118087135Y-72397000D01*
X117637095Y-72397000D01*
X117644691Y-72374207D01*
X117635542Y-72245617D01*
X120525400Y-72245617D01*
X117635542Y-72245617D01*
X117635542Y-72245617D01*
X120525400Y-72245617D01*
X120525400Y-72294383D01*
X120620140Y-72770671D01*
X120344038Y-72770671D01*
X120433005Y-72589120D01*
X120372865Y-72397000D01*
X119357000Y-72397000D01*
X119357000Y-73412312D01*
X119549118Y-73472993D01*
X119855001Y-73346305D01*
X120219310Y-73025199D01*
X120344038Y-72770671D01*
X120620140Y-72770671D01*
X120344038Y-72770671D01*
X120344038Y-72770671D01*
X120620140Y-72770671D01*
X120889935Y-73174448D01*
X121293712Y-73444243D01*
X121770000Y-73538983D01*
X114231000Y-73538983D01*
X114231000Y-73062861D01*
X115846744Y-73062861D01*
X115928715Y-73232371D01*
X116355793Y-73374691D01*
X116804824Y-73342743D01*
X117071285Y-73232371D01*
X117153256Y-73062861D01*
X116500000Y-72409605D01*
X115846744Y-73062861D01*
X114231000Y-73062861D01*
X114231000Y-71658715D01*
X115497629Y-71658715D01*
X115355309Y-72085793D01*
X115387257Y-72534824D01*
X115497629Y-72801285D01*
X115667139Y-72883256D01*
X116320395Y-72230000D01*
X115667139Y-71576744D01*
X115497629Y-71658715D01*
X114231000Y-71658715D01*
X114231000Y-68555757D01*
X118753712Y-68555757D01*
X118349935Y-68825552D01*
X118080140Y-69229329D01*
X117985400Y-69705617D01*
X117985400Y-69754383D01*
X118080140Y-70230671D01*
X118349935Y-70634448D01*
X118753712Y-70904243D01*
X119230000Y-70998983D01*
X119706288Y-70904243D01*
X120110065Y-70634448D01*
X120379860Y-70230671D01*
X120474600Y-69754383D01*
X120474600Y-69705617D01*
X120379860Y-69229329D01*
X120110065Y-68825552D01*
X119706288Y-68555757D01*
X121293712Y-68555757D01*
X120889935Y-68825552D01*
X120620140Y-69229329D01*
X120525400Y-69705617D01*
X120525400Y-69754383D01*
X120620140Y-70230671D01*
X120889935Y-70634448D01*
X121293712Y-70904243D01*
X121770000Y-70998983D01*
X122246288Y-70904243D01*
X122650065Y-70634448D01*
X122919860Y-70230671D01*
X123014600Y-69754383D01*
X123014600Y-69705617D01*
X122919860Y-69229329D01*
X122650065Y-68825552D01*
X122301828Y-68592867D01*
X125354581Y-68592867D01*
X125718280Y-68915570D01*
X126177787Y-69074527D01*
X126373000Y-68990643D01*
X126373000Y-67967000D01*
X126627000Y-67967000D01*
X126373000Y-67967000D01*
X126373000Y-67967000D01*
X126627000Y-67967000D01*
X126627000Y-68990643D01*
X126822213Y-69074527D01*
X127281720Y-68915570D01*
X127645419Y-68592867D01*
X127855393Y-68159118D01*
X127794712Y-67967000D01*
X126627000Y-67967000D01*
X126373000Y-67967000D01*
X126373000Y-67967000D01*
X125205288Y-67967000D01*
X122735222Y-67967000D01*
X122834603Y-67818266D01*
X129117263Y-67818266D01*
X129150030Y-68246466D01*
X129250855Y-68489879D01*
X129414967Y-68565428D01*
X130030395Y-67950000D01*
X130389605Y-67950000D01*
X131005033Y-68565428D01*
X131169145Y-68489879D01*
X131302737Y-68081734D01*
X131269970Y-67653534D01*
X131169145Y-67410121D01*
X131005033Y-67334572D01*
X130389605Y-67950000D01*
X130030395Y-67950000D01*
X130030395Y-67950000D01*
X129414967Y-67334572D01*
X129250855Y-67410121D01*
X127801775Y-67410121D01*
X127645419Y-67087133D01*
X127423277Y-66890030D01*
X129913534Y-66890030D01*
X129670121Y-66990855D01*
X129594572Y-67154967D01*
X130210000Y-67770395D01*
X130825428Y-67154967D01*
X130749879Y-66990855D01*
X130341734Y-66857263D01*
X129913534Y-66890030D01*
X127423277Y-66890030D01*
X127281720Y-66764430D01*
X126822213Y-66605473D01*
X126627000Y-66689357D01*
X126627000Y-67713000D01*
X127794712Y-67713000D01*
X127855393Y-67520882D01*
X127801775Y-67410121D01*
X129250855Y-67410121D01*
X127801775Y-67410121D01*
X127801775Y-67410121D01*
X129250855Y-67410121D01*
X129117263Y-67818266D01*
X122834603Y-67818266D01*
X122919860Y-67690671D01*
X123014600Y-67214383D01*
X123014600Y-67165617D01*
X122934799Y-66764430D01*
X125718280Y-66764430D01*
X125354581Y-67087133D01*
X125144607Y-67520882D01*
X125205288Y-67713000D01*
X126373000Y-67713000D01*
X126373000Y-66689357D01*
X126177787Y-66605473D01*
X125718280Y-66764430D01*
X122934799Y-66764430D01*
X122919860Y-66689329D01*
X122650065Y-66285552D01*
X122246288Y-66015757D01*
X121770000Y-65921017D01*
X121293712Y-66015757D01*
X120889935Y-66285552D01*
X120620140Y-66689329D01*
X120525400Y-67165617D01*
X120525400Y-67214383D01*
X120620140Y-67690671D01*
X120889935Y-68094448D01*
X121293712Y-68364243D01*
X121770000Y-68458983D01*
X122246288Y-68364243D01*
X122650065Y-68094448D01*
X122735222Y-67967000D01*
X125205288Y-67967000D01*
X122735222Y-67967000D01*
X122735222Y-67967000D01*
X125205288Y-67967000D01*
X125144607Y-68159118D01*
X125354581Y-68592867D01*
X122301828Y-68592867D01*
X122246288Y-68555757D01*
X121770000Y-68461017D01*
X121293712Y-68555757D01*
X119706288Y-68555757D01*
X119706288Y-68555757D01*
X119230000Y-68461017D01*
X118753712Y-68555757D01*
X114231000Y-68555757D01*
X114231000Y-66015757D01*
X118753712Y-66015757D01*
X118349935Y-66285552D01*
X118080140Y-66689329D01*
X117985400Y-67165617D01*
X117985400Y-67214383D01*
X118080140Y-67690671D01*
X118349935Y-68094448D01*
X118753712Y-68364243D01*
X119230000Y-68458983D01*
X119706288Y-68364243D01*
X120110065Y-68094448D01*
X120379860Y-67690671D01*
X120474600Y-67214383D01*
X120474600Y-67165617D01*
X120379860Y-66689329D01*
X120110065Y-66285552D01*
X119706288Y-66015757D01*
X119230000Y-65921017D01*
X118753712Y-66015757D01*
X114231000Y-66015757D01*
X114231000Y-65427000D01*
X125205288Y-65427000D01*
X125144607Y-65619118D01*
X125354581Y-66052867D01*
X125718280Y-66375570D01*
X126177787Y-66534527D01*
X126373000Y-66450643D01*
X126373000Y-65427000D01*
X126627000Y-65427000D01*
X126627000Y-66450643D01*
X126822213Y-66534527D01*
X127281720Y-66375570D01*
X127645419Y-66052867D01*
X127855393Y-65619118D01*
X127794712Y-65427000D01*
X126627000Y-65427000D01*
X126373000Y-65427000D01*
X126373000Y-65427000D01*
X125205288Y-65427000D01*
X114231000Y-65427000D01*
X114231000Y-64224430D01*
X125718280Y-64224430D01*
X125354581Y-64547133D01*
X125144607Y-64980882D01*
X125205288Y-65173000D01*
X126373000Y-65173000D01*
X126373000Y-64149357D01*
X126627000Y-64149357D01*
X126373000Y-64149357D01*
X126373000Y-64149357D01*
X126627000Y-64149357D01*
X126627000Y-65173000D01*
X127794712Y-65173000D01*
X127855393Y-64980882D01*
X127645419Y-64547133D01*
X127281720Y-64224430D01*
X126822213Y-64065473D01*
X126627000Y-64149357D01*
X126373000Y-64149357D01*
X126373000Y-64149357D01*
X126177787Y-64065473D01*
X125718280Y-64224430D01*
X114231000Y-64224430D01*
X114231000Y-61507936D01*
X125484000Y-61507936D01*
X125338726Y-61536122D01*
X125211044Y-61619996D01*
X125125574Y-61746616D01*
X125095536Y-61896400D01*
X125095536Y-63623600D01*
X125123722Y-63768874D01*
X125207596Y-63896556D01*
X125334216Y-63982026D01*
X125484000Y-64012064D01*
X127516000Y-64012064D01*
X127661274Y-63983878D01*
X127788956Y-63900004D01*
X127874426Y-63773384D01*
X127904464Y-63623600D01*
X127904464Y-61896400D01*
X127876278Y-61751126D01*
X127792404Y-61623444D01*
X127665784Y-61537974D01*
X127516000Y-61507936D01*
X125484000Y-61507936D01*
X114231000Y-61507936D01*
X114231000Y-61481000D01*
X142136409Y-61481000D01*
X141869327Y-62124204D01*
X141869327Y-62124204D01*
G37*
X141869327Y-62124204D02*
X141868674Y-62872513D01*
X142154436Y-63564109D01*
X142683108Y-64093704D01*
X143374204Y-64380673D01*
X144122513Y-64381326D01*
X144814109Y-64095564D01*
X145343704Y-63566892D01*
X145630673Y-62875796D01*
X145631326Y-62127487D01*
X145364203Y-61481000D01*
X149269000Y-61481000D01*
X149269000Y-62500000D01*
X149278242Y-62546463D01*
X149278242Y-62593838D01*
X149527232Y-63845596D01*
X149502016Y-65413958D01*
X149502438Y-65416275D01*
X149502026Y-65418596D01*
X149506867Y-65440576D01*
X149510901Y-65462708D01*
X149512178Y-65464687D01*
X149512685Y-65466989D01*
X149525563Y-65485435D01*
X149537765Y-65504348D01*
X149539703Y-65505689D01*
X149541052Y-65507620D01*
X151712052Y-67591619D01*
X151731830Y-67604258D01*
X151751399Y-67617333D01*
X151752695Y-67617590D01*
X151753808Y-67618302D01*
X151776960Y-67622417D01*
X151800000Y-67627000D01*
X152922945Y-67627000D01*
X154656162Y-67971758D01*
X154703537Y-67971758D01*
X154750000Y-67981000D01*
X166019000Y-67981000D01*
X166019000Y-107019000D01*
X154750000Y-107019000D01*
X154703537Y-107028242D01*
X154656162Y-107028242D01*
X152922945Y-107373000D01*
X152500000Y-107373000D01*
X152495159Y-107373962D01*
X152490259Y-107373374D01*
X152471006Y-107378767D01*
X152451399Y-107382667D01*
X152447295Y-107385408D01*
X152442543Y-107386740D01*
X152426823Y-107399087D01*
X152410197Y-107410197D01*
X152407453Y-107414302D01*
X152403574Y-107417350D01*
X152054346Y-107824782D01*
X150947237Y-108564529D01*
X150814529Y-108697236D01*
X149730665Y-110319354D01*
X149658844Y-110492745D01*
X149626003Y-110657849D01*
X149403574Y-110917349D01*
X149393773Y-110934776D01*
X149382667Y-110951399D01*
X149381704Y-110956238D01*
X149379285Y-110960541D01*
X149376898Y-110980398D01*
X149373000Y-111000000D01*
X149373000Y-111929781D01*
X149278242Y-112406162D01*
X149278242Y-112453537D01*
X149269000Y-112500000D01*
X149269000Y-113519000D01*
X145363591Y-113519000D01*
X145630673Y-112875796D01*
X145631326Y-112127487D01*
X145345564Y-111435891D01*
X144816892Y-110906296D01*
X144125796Y-110619327D01*
X143377487Y-110618674D01*
X142685891Y-110904436D01*
X142156296Y-111433108D01*
X141869327Y-112124204D01*
X141868674Y-112872513D01*
X142135797Y-113519000D01*
X138170658Y-113519000D01*
X138420689Y-113415689D01*
X138724622Y-113112286D01*
X138889313Y-112715668D01*
X138889687Y-112286216D01*
X138725689Y-111889311D01*
X138422286Y-111585378D01*
X138025668Y-111420687D01*
X137596216Y-111420313D01*
X137199311Y-111584311D01*
X136895378Y-111887714D01*
X136730687Y-112284332D01*
X136730313Y-112713784D01*
X136894311Y-113110689D01*
X137197714Y-113414622D01*
X137449083Y-113519000D01*
X130550658Y-113519000D01*
X130800689Y-113415689D01*
X131104622Y-113112286D01*
X131147926Y-113008000D01*
X131960000Y-113008000D01*
X132154403Y-112969331D01*
X132319210Y-112859210D01*
X133641717Y-111536703D01*
X133744332Y-111579313D01*
X134173784Y-111579687D01*
X134570689Y-111415689D01*
X134691555Y-111295033D01*
X138424572Y-111295033D01*
X138500121Y-111459145D01*
X138908266Y-111592737D01*
X139336466Y-111559970D01*
X139579879Y-111459145D01*
X139655428Y-111295033D01*
X139475823Y-111115428D01*
X139835033Y-111115428D01*
X139999145Y-111039879D01*
X140132737Y-110631734D01*
X140099970Y-110203534D01*
X139999145Y-109960121D01*
X139835033Y-109884572D01*
X139219605Y-110500000D01*
X138860395Y-110500000D01*
X138860395Y-110500000D01*
X138244967Y-109884572D01*
X138080855Y-109960121D01*
X137947263Y-110368266D01*
X137980030Y-110796466D01*
X138080855Y-111039879D01*
X138244967Y-111115428D01*
X138860395Y-110500000D01*
X139219605Y-110500000D01*
X138860395Y-110500000D01*
X138860395Y-110500000D01*
X139219605Y-110500000D01*
X139835033Y-111115428D01*
X139475823Y-111115428D01*
X139040000Y-110679605D01*
X138424572Y-111295033D01*
X134691555Y-111295033D01*
X134874622Y-111112286D01*
X135039313Y-110715668D01*
X135039687Y-110286216D01*
X134996566Y-110181854D01*
X136170420Y-109008000D01*
X138081881Y-109008000D01*
X138124311Y-109110689D01*
X138427714Y-109414622D01*
X138616061Y-109492831D01*
X138500121Y-109540855D01*
X138424572Y-109704967D01*
X139040000Y-110320395D01*
X139655428Y-109704967D01*
X139579879Y-109540855D01*
X139450363Y-109498462D01*
X139650689Y-109415689D01*
X139954622Y-109112286D01*
X140119313Y-108715668D01*
X140119687Y-108286216D01*
X139955689Y-107889311D01*
X139652286Y-107585378D01*
X139612844Y-107569000D01*
X145510250Y-107569000D01*
X145415000Y-107664250D01*
X145415000Y-108533786D01*
X145473004Y-108673820D01*
X145580181Y-108780996D01*
X145720215Y-108839000D01*
X146589750Y-108839000D01*
X146685000Y-108743750D01*
X146685000Y-107569000D01*
X146939000Y-107569000D01*
X146685000Y-107569000D01*
X146685000Y-107569000D01*
X146939000Y-107569000D01*
X146939000Y-108743750D01*
X147034250Y-108839000D01*
X147903785Y-108839000D01*
X148043819Y-108780996D01*
X148150996Y-108673820D01*
X148209000Y-108533786D01*
X148209000Y-107664250D01*
X148113750Y-107569000D01*
X146939000Y-107569000D01*
X146685000Y-107569000D01*
X146685000Y-107569000D01*
X145510250Y-107569000D01*
X139612844Y-107569000D01*
X139255668Y-107420687D01*
X138826216Y-107420313D01*
X138429311Y-107584311D01*
X138125378Y-107887714D01*
X138082074Y-107992000D01*
X135960000Y-107992000D01*
X135765596Y-108030669D01*
X135600790Y-108140790D01*
X135039325Y-108702255D01*
X135039687Y-108286216D01*
X134875689Y-107889311D01*
X134572286Y-107585378D01*
X134175668Y-107420687D01*
X133746216Y-107420313D01*
X133349311Y-107584311D01*
X133045378Y-107887714D01*
X132880687Y-108284332D01*
X132880313Y-108713784D01*
X133044311Y-109110689D01*
X133347714Y-109414622D01*
X133553342Y-109500007D01*
X133349311Y-109584311D01*
X133045378Y-109887714D01*
X132880687Y-110284332D01*
X132880313Y-110713784D01*
X132923434Y-110818146D01*
X131749580Y-111992000D01*
X131148119Y-111992000D01*
X131105689Y-111889311D01*
X130802286Y-111585378D01*
X130405668Y-111420687D01*
X129976216Y-111420313D01*
X129579311Y-111584311D01*
X129275378Y-111887714D01*
X129110687Y-112284332D01*
X129110313Y-112713784D01*
X129274311Y-113110689D01*
X129577714Y-113414622D01*
X129829083Y-113519000D01*
X114231000Y-113519000D01*
X114231000Y-106998213D01*
X118331891Y-106998213D01*
X117999381Y-107330144D01*
X117819206Y-107764054D01*
X117818796Y-108233885D01*
X117998213Y-108668109D01*
X118330144Y-109000619D01*
X118764054Y-109180794D01*
X119233885Y-109181204D01*
X119668109Y-109001787D01*
X120000619Y-108669856D01*
X120180794Y-108235946D01*
X120181204Y-107766115D01*
X120001787Y-107331891D01*
X119669856Y-106999381D01*
X119667044Y-106998213D01*
X125331891Y-106998213D01*
X119667044Y-106998213D01*
X119667044Y-106998213D01*
X125331891Y-106998213D01*
X124999381Y-107330144D01*
X124819206Y-107764054D01*
X124818796Y-108233885D01*
X124998213Y-108668109D01*
X125330144Y-109000619D01*
X125764054Y-109180794D01*
X126233885Y-109181204D01*
X126668109Y-109001787D01*
X127000619Y-108669856D01*
X127180794Y-108235946D01*
X127181204Y-107766115D01*
X127001787Y-107331891D01*
X126669856Y-106999381D01*
X126235946Y-106819206D01*
X125766115Y-106818796D01*
X125331891Y-106998213D01*
X119667044Y-106998213D01*
X119235946Y-106819206D01*
X118766115Y-106818796D01*
X118331891Y-106998213D01*
X114231000Y-106998213D01*
X114231000Y-104874631D01*
X145415000Y-104874631D01*
X145415000Y-104929369D01*
X145521340Y-105463978D01*
X145824172Y-105917197D01*
X146015442Y-106045000D01*
X145720215Y-106045000D01*
X145580181Y-106103004D01*
X145473004Y-106210180D01*
X145415000Y-106350214D01*
X145415000Y-107219750D01*
X145510250Y-107315000D01*
X146685000Y-107315000D01*
X146685000Y-107295000D01*
X146939000Y-107295000D01*
X146939000Y-107315000D01*
X148113750Y-107315000D01*
X148209000Y-107219750D01*
X148209000Y-106350214D01*
X148150996Y-106210180D01*
X148043819Y-106103004D01*
X147903785Y-106045000D01*
X147608558Y-106045000D01*
X147799828Y-105917197D01*
X148102660Y-105463978D01*
X148209000Y-104929369D01*
X148209000Y-104874631D01*
X148102660Y-104340022D01*
X147799828Y-103886803D01*
X147346609Y-103583971D01*
X146812000Y-103477631D01*
X146277391Y-103583971D01*
X136260049Y-103583971D01*
X138939584Y-100904436D01*
X161685891Y-100904436D01*
X161156296Y-101433108D01*
X160869327Y-102124204D01*
X160868674Y-102872513D01*
X161154436Y-103564109D01*
X161683108Y-104093704D01*
X162374204Y-104380673D01*
X163122513Y-104381326D01*
X163814109Y-104095564D01*
X164343704Y-103566892D01*
X164630673Y-102875796D01*
X164631326Y-102127487D01*
X164345564Y-101435891D01*
X163816892Y-100906296D01*
X163125796Y-100619327D01*
X162377487Y-100618674D01*
X161685891Y-100904436D01*
X138939584Y-100904436D01*
X140741159Y-99102861D01*
X160346744Y-99102861D01*
X160428715Y-99272371D01*
X160855793Y-99414691D01*
X161304824Y-99382743D01*
X161571285Y-99272371D01*
X161653256Y-99102861D01*
X161000000Y-98449605D01*
X160346744Y-99102861D01*
X140741159Y-99102861D01*
X142145305Y-97698715D01*
X159997629Y-97698715D01*
X159855309Y-98125793D01*
X159887257Y-98574824D01*
X159997629Y-98841285D01*
X160167139Y-98923256D01*
X160820395Y-98270000D01*
X161179605Y-98270000D01*
X161832861Y-98923256D01*
X162002371Y-98841285D01*
X162144691Y-98414207D01*
X162112743Y-97965176D01*
X162002371Y-97698715D01*
X161832861Y-97616744D01*
X161179605Y-98270000D01*
X160820395Y-98270000D01*
X160820395Y-98270000D01*
X160167139Y-97616744D01*
X159997629Y-97698715D01*
X142145305Y-97698715D01*
X142686763Y-97157257D01*
X160695176Y-97157257D01*
X160428715Y-97267629D01*
X160346744Y-97437139D01*
X161000000Y-98090395D01*
X161653256Y-97437139D01*
X161571285Y-97267629D01*
X161144207Y-97125309D01*
X160695176Y-97157257D01*
X142686763Y-97157257D01*
X145073878Y-94770142D01*
X160359854Y-94770142D01*
X160041261Y-95088180D01*
X159868627Y-95503929D01*
X159868234Y-95954096D01*
X160040142Y-96370146D01*
X160358180Y-96688739D01*
X160773929Y-96861373D01*
X161224096Y-96861766D01*
X161640146Y-96689858D01*
X161958739Y-96371820D01*
X162131373Y-95956071D01*
X162131766Y-95505904D01*
X161959858Y-95089854D01*
X161641820Y-94771261D01*
X161226071Y-94598627D01*
X160775904Y-94598234D01*
X160359854Y-94770142D01*
X145073878Y-94770142D01*
X145900420Y-93943600D01*
X162595536Y-93943600D01*
X162623722Y-94088874D01*
X162707596Y-94216556D01*
X162834216Y-94302026D01*
X162984000Y-94332064D01*
X165016000Y-94332064D01*
X165161274Y-94303878D01*
X165288956Y-94220004D01*
X165374426Y-94093384D01*
X165404464Y-93943600D01*
X165404464Y-92216400D01*
X165376278Y-92071126D01*
X165292404Y-91943444D01*
X165165784Y-91857974D01*
X165016000Y-91827936D01*
X163046356Y-91827936D01*
X163008000Y-91789580D01*
X163008000Y-91465390D01*
X163343943Y-91689860D01*
X163820231Y-91784600D01*
X164179769Y-91784600D01*
X164656057Y-91689860D01*
X165059834Y-91420065D01*
X165329629Y-91016288D01*
X165424369Y-90540000D01*
X165329629Y-90063712D01*
X165059834Y-89659935D01*
X164656057Y-89390140D01*
X164179769Y-89295400D01*
X163820231Y-89295400D01*
X163343943Y-89390140D01*
X163202841Y-89484421D01*
X162658000Y-88939580D01*
X162658000Y-88346784D01*
X162854581Y-88752867D01*
X163218280Y-89075570D01*
X163677787Y-89234527D01*
X163873000Y-89150643D01*
X163873000Y-88127000D01*
X164127000Y-88127000D01*
X164127000Y-89150643D01*
X164322213Y-89234527D01*
X164781720Y-89075570D01*
X165145419Y-88752867D01*
X165355393Y-88319118D01*
X165294712Y-88127000D01*
X164127000Y-88127000D01*
X163873000Y-88127000D01*
X163873000Y-88127000D01*
X163853000Y-88127000D01*
X163853000Y-87873000D01*
X163873000Y-87873000D01*
X163873000Y-86849357D01*
X164127000Y-86849357D01*
X164127000Y-87873000D01*
X165294712Y-87873000D01*
X165355393Y-87680882D01*
X165145419Y-87247133D01*
X164781720Y-86924430D01*
X164322213Y-86765473D01*
X164127000Y-86849357D01*
X163873000Y-86849357D01*
X163873000Y-86849357D01*
X163677787Y-86765473D01*
X163218280Y-86924430D01*
X162854581Y-87247133D01*
X162657200Y-87654868D01*
X162657200Y-85870073D01*
X162670371Y-85936288D01*
X162940166Y-86340065D01*
X163343943Y-86609860D01*
X163820231Y-86704600D01*
X164179769Y-86704600D01*
X164656057Y-86609860D01*
X165059834Y-86340065D01*
X165329629Y-85936288D01*
X165424369Y-85460000D01*
X165329629Y-84983712D01*
X165059834Y-84579935D01*
X164656057Y-84310140D01*
X164179769Y-84215400D01*
X163820231Y-84215400D01*
X163343943Y-84310140D01*
X162940166Y-84579935D01*
X162670371Y-84983712D01*
X162657200Y-85049927D01*
X162657200Y-83330073D01*
X162670371Y-83396288D01*
X162940166Y-83800065D01*
X163343943Y-84069860D01*
X163820231Y-84164600D01*
X164179769Y-84164600D01*
X164656057Y-84069860D01*
X165059834Y-83800065D01*
X165329629Y-83396288D01*
X165424369Y-82920000D01*
X165329629Y-82443712D01*
X165059834Y-82039935D01*
X164656057Y-81770140D01*
X164179769Y-81675400D01*
X163820231Y-81675400D01*
X163343943Y-81770140D01*
X162940166Y-82039935D01*
X162670371Y-82443712D01*
X162657200Y-82509927D01*
X162657200Y-78609200D01*
X162619628Y-78420313D01*
X162618531Y-78414796D01*
X162508410Y-78249990D01*
X162036703Y-77778283D01*
X162079313Y-77675668D01*
X162079687Y-77246216D01*
X161915689Y-76849311D01*
X161612286Y-76545378D01*
X161215668Y-76380687D01*
X160786216Y-76380313D01*
X160389311Y-76544311D01*
X158173242Y-76544311D01*
X158239331Y-76445403D01*
X158278000Y-76251000D01*
X158278000Y-75014460D01*
X158410146Y-74959858D01*
X158728739Y-74641820D01*
X158901373Y-74226071D01*
X158901766Y-73775904D01*
X158729858Y-73359854D01*
X158411820Y-73041261D01*
X158005430Y-72872513D01*
X160868674Y-72872513D01*
X161154436Y-73564109D01*
X161683108Y-74093704D01*
X162374204Y-74380673D01*
X163122513Y-74381326D01*
X163814109Y-74095564D01*
X164343704Y-73566892D01*
X164630673Y-72875796D01*
X164631326Y-72127487D01*
X164345564Y-71435891D01*
X163816892Y-70906296D01*
X163125796Y-70619327D01*
X162377487Y-70618674D01*
X161685891Y-70904436D01*
X158600580Y-70904436D01*
X158600580Y-70676841D01*
X158537356Y-70358992D01*
X158357309Y-70089532D01*
X158087849Y-69909485D01*
X157770000Y-69846261D01*
X157452151Y-69909485D01*
X157182691Y-70089532D01*
X157135000Y-70160907D01*
X157087309Y-70089532D01*
X156817849Y-69909485D01*
X156500000Y-69846261D01*
X156182151Y-69909485D01*
X155912691Y-70089532D01*
X155860623Y-70167458D01*
X155727506Y-70021899D01*
X155483840Y-69908170D01*
X155357000Y-69974730D01*
X155357000Y-70873000D01*
X155377000Y-70873000D01*
X155377000Y-71127000D01*
X155357000Y-71127000D01*
X155357000Y-72025270D01*
X155483840Y-72091830D01*
X155727506Y-71978101D01*
X155860623Y-71832542D01*
X155912691Y-71910468D01*
X156182151Y-72090515D01*
X156500000Y-72153739D01*
X156817849Y-72090515D01*
X157087309Y-71910468D01*
X157135000Y-71839093D01*
X157182691Y-71910468D01*
X157452151Y-72090515D01*
X157770000Y-72153739D01*
X158087849Y-72090515D01*
X158357309Y-71910468D01*
X158537356Y-71641008D01*
X158600580Y-71323159D01*
X158600580Y-70904436D01*
X161685891Y-70904436D01*
X158600580Y-70904436D01*
X158600580Y-70904436D01*
X161685891Y-70904436D01*
X161156296Y-71433108D01*
X160869327Y-72124204D01*
X160868674Y-72872513D01*
X158005430Y-72872513D01*
X157996071Y-72868627D01*
X157545904Y-72868234D01*
X157129854Y-73040142D01*
X156811261Y-73358180D01*
X156638627Y-73773929D01*
X156638234Y-74224096D01*
X156810142Y-74640146D01*
X157128180Y-74958739D01*
X157262000Y-75014306D01*
X157262000Y-76040580D01*
X155350900Y-77951680D01*
X155350900Y-77872998D01*
X155255652Y-77872998D01*
X155350900Y-77777750D01*
X155350900Y-77454315D01*
X155292896Y-77314281D01*
X155185720Y-77207104D01*
X155045686Y-77149100D01*
X154722250Y-77149100D01*
X154627000Y-77244350D01*
X154627000Y-77873000D01*
X154647000Y-77873000D01*
X154647000Y-78127000D01*
X154627000Y-78127000D01*
X154627000Y-78147000D01*
X154373000Y-78147000D01*
X154373000Y-78127000D01*
X154353000Y-78127000D01*
X154353000Y-77873000D01*
X154373000Y-77873000D01*
X154373000Y-77244350D01*
X154277750Y-77149100D01*
X153954314Y-77149100D01*
X153814280Y-77207104D01*
X153727460Y-77293924D01*
X153712625Y-77279063D01*
X153399997Y-77149248D01*
X153097405Y-77148984D01*
X152589210Y-76640790D01*
X152424403Y-76530669D01*
X152230000Y-76492000D01*
X135958119Y-76492000D01*
X135915689Y-76389311D01*
X135612286Y-76085378D01*
X135215668Y-75920687D01*
X134786216Y-75920313D01*
X134389311Y-76084311D01*
X134085378Y-76387714D01*
X133920687Y-76784332D01*
X133920313Y-77213784D01*
X134084311Y-77610689D01*
X134387714Y-77914622D01*
X134784332Y-78079313D01*
X135213784Y-78079687D01*
X135610689Y-77915689D01*
X135914622Y-77612286D01*
X135957926Y-77508000D01*
X144898454Y-77508000D01*
X144889063Y-77517375D01*
X144853570Y-77602850D01*
X144796790Y-77640790D01*
X144686669Y-77805597D01*
X144648000Y-78000000D01*
X144686669Y-78194403D01*
X144796790Y-78359210D01*
X144853369Y-78397015D01*
X144888222Y-78481366D01*
X145127375Y-78720937D01*
X145320902Y-78801297D01*
X145610000Y-79090395D01*
X145899226Y-78801169D01*
X146091366Y-78721778D01*
X146245058Y-78568354D01*
X146311646Y-78635058D01*
X146159063Y-78787375D01*
X146078703Y-78980902D01*
X145789605Y-79270000D01*
X146078831Y-79559226D01*
X146158222Y-79751366D01*
X146397375Y-79990937D01*
X146710003Y-80120752D01*
X147048512Y-80121047D01*
X147361366Y-79991778D01*
X147515058Y-79838354D01*
X147667375Y-79990937D01*
X147980003Y-80120752D01*
X148318512Y-80121047D01*
X148631366Y-79991778D01*
X148724826Y-79898481D01*
X148971124Y-79898481D01*
X149018293Y-80038967D01*
X149343142Y-80134159D01*
X149679692Y-80097790D01*
X149821707Y-80038967D01*
X149868876Y-79898481D01*
X150241124Y-79898481D01*
X149868876Y-79898481D01*
X149868876Y-79898481D01*
X150241124Y-79898481D01*
X150288293Y-80038967D01*
X150613142Y-80134159D01*
X150949692Y-80097790D01*
X151091707Y-80038967D01*
X151138876Y-79898481D01*
X150690000Y-79449605D01*
X150330790Y-79449605D01*
X150510395Y-79270000D01*
X150245730Y-79005335D01*
X150188967Y-78868293D01*
X150068109Y-78827714D01*
X150061519Y-78821124D01*
X150055000Y-78823313D01*
X150048481Y-78821124D01*
X150041891Y-78827714D01*
X149921033Y-78868293D01*
X149887758Y-78981847D01*
X149599605Y-79270000D01*
X149864270Y-79534665D01*
X149921033Y-79671707D01*
X150041891Y-79712286D01*
X150048481Y-79718876D01*
X150055000Y-79716687D01*
X150061519Y-79718876D01*
X150068109Y-79712286D01*
X150188967Y-79671707D01*
X150222242Y-79558153D01*
X150330790Y-79449605D01*
X150690000Y-79449605D01*
X150330790Y-79449605D01*
X150330790Y-79449605D01*
X150690000Y-79449605D01*
X150241124Y-79898481D01*
X149868876Y-79898481D01*
X149868876Y-79898481D01*
X149420000Y-79449605D01*
X148971124Y-79898481D01*
X148724826Y-79898481D01*
X148870937Y-79752625D01*
X148951297Y-79559098D01*
X149240395Y-79270000D01*
X148951169Y-78980774D01*
X148871778Y-78788634D01*
X148718354Y-78634942D01*
X148870937Y-78482625D01*
X148886863Y-78444270D01*
X149155335Y-78444270D01*
X149018293Y-78501033D01*
X148977714Y-78621891D01*
X148971124Y-78628481D01*
X148973313Y-78635000D01*
X148971124Y-78641519D01*
X148977714Y-78648109D01*
X149018293Y-78768967D01*
X149131847Y-78802242D01*
X149420000Y-79090395D01*
X149684665Y-78825730D01*
X149821707Y-78768967D01*
X149862286Y-78648109D01*
X149868876Y-78641519D01*
X149866687Y-78635000D01*
X149868876Y-78628481D01*
X149862286Y-78621891D01*
X149821707Y-78501033D01*
X149708153Y-78467758D01*
X149420000Y-78179605D01*
X149155335Y-78444270D01*
X148886863Y-78444270D01*
X148951297Y-78289098D01*
X149240395Y-78000000D01*
X149226253Y-77985858D01*
X149405858Y-77806253D01*
X149420000Y-77820395D01*
X149434143Y-77806253D01*
X149613748Y-77985858D01*
X149599605Y-78000000D01*
X149864270Y-78264665D01*
X149921033Y-78401707D01*
X150041891Y-78442286D01*
X150048481Y-78448876D01*
X150055000Y-78446687D01*
X150061519Y-78448876D01*
X150066125Y-78444270D01*
X150425335Y-78444270D01*
X150288293Y-78501033D01*
X150247714Y-78621891D01*
X150241124Y-78628481D01*
X150243313Y-78635000D01*
X150241124Y-78641519D01*
X150247714Y-78648109D01*
X150288293Y-78768967D01*
X150401847Y-78802242D01*
X150690000Y-79090395D01*
X150954665Y-78825730D01*
X151091707Y-78768967D01*
X151132286Y-78648109D01*
X151138876Y-78641519D01*
X151136687Y-78635000D01*
X151138876Y-78628481D01*
X151132286Y-78621891D01*
X151091707Y-78501033D01*
X150978153Y-78467758D01*
X150690000Y-78179605D01*
X150425335Y-78444270D01*
X150066125Y-78444270D01*
X150068109Y-78442286D01*
X150188967Y-78401707D01*
X150222242Y-78288153D01*
X150510395Y-78000000D01*
X150496253Y-77985858D01*
X150675858Y-77806253D01*
X150690000Y-77820395D01*
X150704143Y-77806253D01*
X150883748Y-77985858D01*
X150869605Y-78000000D01*
X151134270Y-78264665D01*
X151191033Y-78401707D01*
X151311891Y-78442286D01*
X151318481Y-78448876D01*
X151325000Y-78446687D01*
X151331519Y-78448876D01*
X151338109Y-78442286D01*
X151458967Y-78401707D01*
X151492242Y-78288153D01*
X151780395Y-78000000D01*
X151766253Y-77985858D01*
X151945858Y-77806253D01*
X151960000Y-77820395D01*
X151974143Y-77806253D01*
X152153748Y-77985858D01*
X152139605Y-78000000D01*
X152428831Y-78289226D01*
X152508222Y-78481366D01*
X152661646Y-78635058D01*
X152594942Y-78701646D01*
X152442625Y-78549063D01*
X152249098Y-78468703D01*
X151960000Y-78179605D01*
X151670774Y-78468831D01*
X151478634Y-78548222D01*
X151239063Y-78787375D01*
X151158703Y-78980902D01*
X150869605Y-79270000D01*
X151158831Y-79559226D01*
X151238222Y-79751366D01*
X151477375Y-79990937D01*
X151790003Y-80120752D01*
X152092596Y-80121016D01*
X152682890Y-80711310D01*
X152748439Y-80869952D01*
X152939841Y-81061687D01*
X152978246Y-81077634D01*
X151833880Y-82222000D01*
X144404464Y-82222000D01*
X144404464Y-81714000D01*
X144376278Y-81568726D01*
X144292404Y-81441044D01*
X144165784Y-81355574D01*
X144016000Y-81325536D01*
X141984000Y-81325536D01*
X141838726Y-81353722D01*
X141711044Y-81437596D01*
X141625574Y-81564216D01*
X141595536Y-81714000D01*
X141595536Y-82222000D01*
X140940420Y-82222000D01*
X138616901Y-79898481D01*
X145161124Y-79898481D01*
X145208293Y-80038967D01*
X145533142Y-80134159D01*
X145869692Y-80097790D01*
X146011707Y-80038967D01*
X146058876Y-79898481D01*
X145610000Y-79449605D01*
X145161124Y-79898481D01*
X138616901Y-79898481D01*
X138536703Y-79818283D01*
X138579313Y-79715668D01*
X138579687Y-79286216D01*
X138415689Y-78889311D01*
X138394708Y-78868293D01*
X144841033Y-78868293D01*
X144745841Y-79193142D01*
X144782210Y-79529692D01*
X144841033Y-79671707D01*
X144981519Y-79718876D01*
X145430395Y-79270000D01*
X144981519Y-78821124D01*
X144841033Y-78868293D01*
X138394708Y-78868293D01*
X138112286Y-78585378D01*
X137715668Y-78420687D01*
X137286216Y-78420313D01*
X136889311Y-78584311D01*
X136585378Y-78887714D01*
X136420687Y-79284332D01*
X136420313Y-79713784D01*
X136584311Y-80110689D01*
X136887714Y-80414622D01*
X137284332Y-80579313D01*
X137713784Y-80579687D01*
X137818146Y-80536566D01*
X140370790Y-83089210D01*
X140535597Y-83199331D01*
X140730000Y-83238000D01*
X141595536Y-83238000D01*
X141595536Y-83746000D01*
X141623722Y-83891274D01*
X141707596Y-84018956D01*
X141834216Y-84104426D01*
X141984000Y-84134464D01*
X142192272Y-84134464D01*
X142012172Y-84254803D01*
X141709340Y-84708022D01*
X141603000Y-85242631D01*
X141603000Y-85297369D01*
X141709340Y-85831978D01*
X142012172Y-86285197D01*
X142465391Y-86588029D01*
X143000000Y-86694369D01*
X143534609Y-86588029D01*
X143987828Y-86285197D01*
X144290660Y-85831978D01*
X144397000Y-85297369D01*
X144397000Y-85242631D01*
X144290660Y-84708022D01*
X143987828Y-84254803D01*
X143807728Y-84134464D01*
X144016000Y-84134464D01*
X144161274Y-84106278D01*
X144288956Y-84022404D01*
X144374426Y-83895784D01*
X144404464Y-83746000D01*
X144404464Y-83238000D01*
X152044300Y-83238000D01*
X152238703Y-83199331D01*
X152403510Y-83089210D01*
X154859210Y-80633510D01*
X154969331Y-80468704D01*
X154992975Y-80349835D01*
X155008000Y-80274300D01*
X155008000Y-79965190D01*
X155220937Y-79752625D01*
X155350752Y-79439997D01*
X155350797Y-79388623D01*
X158129210Y-76610210D01*
X158173242Y-76544311D01*
X160389311Y-76544311D01*
X158173242Y-76544311D01*
X158173242Y-76544311D01*
X160389311Y-76544311D01*
X160085378Y-76847714D01*
X159920687Y-77244332D01*
X159920313Y-77673784D01*
X160084311Y-78070689D01*
X160387714Y-78374622D01*
X160784332Y-78539313D01*
X161213784Y-78539687D01*
X161318146Y-78496566D01*
X161641200Y-78819620D01*
X161641200Y-81654343D01*
X161612286Y-81625378D01*
X161215668Y-81460687D01*
X160786216Y-81460313D01*
X160389311Y-81624311D01*
X160085378Y-81927714D01*
X159920687Y-82324332D01*
X159920313Y-82753784D01*
X159963434Y-82858146D01*
X157549880Y-85271700D01*
X151279394Y-85271700D01*
X151279418Y-85244635D01*
X151175961Y-84994248D01*
X150984559Y-84802513D01*
X150734354Y-84698618D01*
X150463435Y-84698382D01*
X150213048Y-84801839D01*
X150021313Y-84993241D01*
X149917418Y-85243446D01*
X149917182Y-85514365D01*
X150020639Y-85764752D01*
X150212041Y-85956487D01*
X150462246Y-86060382D01*
X150560848Y-86060468D01*
X150639290Y-86138910D01*
X150804096Y-86249031D01*
X150836350Y-86255446D01*
X150998500Y-86287700D01*
X157259938Y-86287700D01*
X157290969Y-86443703D01*
X157401090Y-86608510D01*
X161992000Y-91199420D01*
X155259940Y-91199420D01*
X153000533Y-88940013D01*
X153000618Y-88842535D01*
X152897161Y-88592148D01*
X152705759Y-88400413D01*
X152455554Y-88296518D01*
X152184635Y-88296282D01*
X151934248Y-88399739D01*
X151742513Y-88591141D01*
X151638618Y-88841346D01*
X151638382Y-89112265D01*
X151741839Y-89362652D01*
X151933241Y-89554387D01*
X152183446Y-89658282D01*
X152282048Y-89658368D01*
X155478060Y-92854380D01*
X155477982Y-92943965D01*
X155581439Y-93194352D01*
X155772841Y-93386087D01*
X156023046Y-93489982D01*
X156293965Y-93490218D01*
X156544352Y-93386761D01*
X156736087Y-93195359D01*
X156839982Y-92945154D01*
X156840218Y-92674235D01*
X156736761Y-92423848D01*
X156545359Y-92232113D01*
X156295154Y-92128218D01*
X156188645Y-92128125D01*
X155259940Y-91199420D01*
X161992000Y-91199420D01*
X155259940Y-91199420D01*
X155259940Y-91199420D01*
X161992000Y-91199420D01*
X161992000Y-92000000D01*
X162030669Y-92194403D01*
X162140790Y-92359210D01*
X162595536Y-92813956D01*
X162595536Y-93943600D01*
X145900420Y-93943600D01*
X146114187Y-93729833D01*
X146211665Y-93729918D01*
X146462052Y-93626461D01*
X146653787Y-93435059D01*
X146757682Y-93184854D01*
X146757918Y-92913935D01*
X146654461Y-92663548D01*
X146585169Y-92594135D01*
X146910146Y-92459858D01*
X147228739Y-92141820D01*
X147401373Y-91726071D01*
X147401766Y-91275904D01*
X147229858Y-90859854D01*
X146911820Y-90541261D01*
X146496071Y-90368627D01*
X146045904Y-90368234D01*
X145629854Y-90540142D01*
X145311261Y-90858180D01*
X145138627Y-91273929D01*
X145138234Y-91724096D01*
X145310142Y-92140146D01*
X145628180Y-92458739D01*
X145681705Y-92480965D01*
X145499813Y-92662541D01*
X145395918Y-92912746D01*
X145395832Y-93011348D01*
X135415180Y-102992000D01*
X134768119Y-102992000D01*
X134725689Y-102889311D01*
X134422286Y-102585378D01*
X134118285Y-102459145D01*
X134500121Y-102459145D01*
X134908266Y-102592737D01*
X135336466Y-102559970D01*
X135579879Y-102459145D01*
X135655428Y-102295033D01*
X135475823Y-102115428D01*
X135835033Y-102115428D01*
X135999145Y-102039879D01*
X136132737Y-101631734D01*
X136099970Y-101203534D01*
X135999145Y-100960121D01*
X135835033Y-100884572D01*
X135219605Y-101500000D01*
X134860395Y-101500000D01*
X134860395Y-101500000D01*
X134244967Y-100884572D01*
X134080855Y-100960121D01*
X133947263Y-101368266D01*
X133980030Y-101796466D01*
X134080855Y-102039879D01*
X134244967Y-102115428D01*
X134860395Y-101500000D01*
X135219605Y-101500000D01*
X134860395Y-101500000D01*
X134860395Y-101500000D01*
X135219605Y-101500000D01*
X135835033Y-102115428D01*
X135475823Y-102115428D01*
X135040000Y-101679605D01*
X134424572Y-102295033D01*
X130691555Y-102295033D01*
X130874622Y-102112286D01*
X131039313Y-101715668D01*
X131039687Y-101286216D01*
X130996566Y-101181854D01*
X132170420Y-100008000D01*
X134081881Y-100008000D01*
X134124311Y-100110689D01*
X134427714Y-100414622D01*
X134616061Y-100492831D01*
X134500121Y-100540855D01*
X134424572Y-100704967D01*
X135040000Y-101320395D01*
X135655428Y-100704967D01*
X135579879Y-100540855D01*
X135450363Y-100498462D01*
X135650689Y-100415689D01*
X135954622Y-100112286D01*
X136119313Y-99715668D01*
X136119687Y-99286216D01*
X135955689Y-98889311D01*
X135652286Y-98585378D01*
X135255668Y-98420687D01*
X134826216Y-98420313D01*
X134429311Y-98584311D01*
X134125378Y-98887714D01*
X134082074Y-98992000D01*
X131960000Y-98992000D01*
X131765596Y-99030669D01*
X131600790Y-99140790D01*
X131039325Y-99702255D01*
X131039687Y-99286216D01*
X130875689Y-98889311D01*
X130572286Y-98585378D01*
X130175668Y-98420687D01*
X129746216Y-98420313D01*
X129641854Y-98463434D01*
X129214600Y-98036180D01*
X129214600Y-92332861D01*
X143076744Y-92332861D01*
X143158715Y-92502371D01*
X143585793Y-92644691D01*
X144034824Y-92612743D01*
X144301285Y-92502371D01*
X144383256Y-92332861D01*
X144203651Y-92153256D01*
X144562861Y-92153256D01*
X144732371Y-92071285D01*
X144874691Y-91644207D01*
X144842743Y-91195176D01*
X144732371Y-90928715D01*
X144562861Y-90846744D01*
X143909605Y-91500000D01*
X143550395Y-91500000D01*
X143550395Y-91500000D01*
X142897139Y-90846744D01*
X142727629Y-90928715D01*
X142585309Y-91355793D01*
X142617257Y-91804824D01*
X142727629Y-92071285D01*
X142897139Y-92153256D01*
X143550395Y-91500000D01*
X143909605Y-91500000D01*
X143550395Y-91500000D01*
X143550395Y-91500000D01*
X143909605Y-91500000D01*
X144562861Y-92153256D01*
X144203651Y-92153256D01*
X143730000Y-91679605D01*
X143076744Y-92332861D01*
X129214600Y-92332861D01*
X129214600Y-89781275D01*
X129347714Y-89914622D01*
X129744332Y-90079313D01*
X130173784Y-90079687D01*
X130570689Y-89915689D01*
X130874622Y-89612286D01*
X131039313Y-89215668D01*
X131039687Y-88786216D01*
X130996566Y-88681854D01*
X131218299Y-88460121D01*
X134080855Y-88460121D01*
X133947263Y-88868266D01*
X133980030Y-89296466D01*
X134080855Y-89539879D01*
X134244967Y-89615428D01*
X134860395Y-89000000D01*
X134244967Y-88384572D01*
X134080855Y-88460121D01*
X131218299Y-88460121D01*
X132170420Y-87508000D01*
X134081881Y-87508000D01*
X134124311Y-87610689D01*
X134427714Y-87914622D01*
X134616061Y-87992831D01*
X134500121Y-88040855D01*
X134424572Y-88204967D01*
X135040000Y-88820395D01*
X135655428Y-88204967D01*
X135579879Y-88040855D01*
X135450363Y-87998462D01*
X135650689Y-87915689D01*
X135930727Y-87636139D01*
X146519148Y-87636139D01*
X146327413Y-87827541D01*
X146223518Y-88077746D01*
X146223432Y-88176348D01*
X144827880Y-89571900D01*
X135929587Y-89571900D01*
X135999145Y-89539879D01*
X136132737Y-89131734D01*
X136099970Y-88703534D01*
X135999145Y-88460121D01*
X135835033Y-88384572D01*
X135219605Y-89000000D01*
X135233748Y-89014143D01*
X135054143Y-89193748D01*
X135040000Y-89179605D01*
X134627246Y-89592359D01*
X134535697Y-89610569D01*
X134370890Y-89720690D01*
X134128283Y-89963297D01*
X134025668Y-89920687D01*
X133596216Y-89920313D01*
X133199311Y-90084311D01*
X132895378Y-90387714D01*
X132730687Y-90784332D01*
X132730313Y-91213784D01*
X132894311Y-91610689D01*
X133197714Y-91914622D01*
X133594332Y-92079313D01*
X134023784Y-92079687D01*
X134420689Y-91915689D01*
X134724622Y-91612286D01*
X134889313Y-91215668D01*
X134889687Y-90786216D01*
X134846566Y-90681854D01*
X134940520Y-90587900D01*
X143115062Y-90587900D01*
X143076744Y-90667139D01*
X143730000Y-91320395D01*
X144383256Y-90667139D01*
X144344938Y-90587900D01*
X145038300Y-90587900D01*
X145232703Y-90549231D01*
X145397510Y-90439110D01*
X146941787Y-88894833D01*
X147039265Y-88894918D01*
X147289652Y-88791461D01*
X147481387Y-88600059D01*
X147585282Y-88349854D01*
X147585518Y-88078935D01*
X147482061Y-87828548D01*
X147290659Y-87636813D01*
X147040454Y-87532918D01*
X146769535Y-87532682D01*
X146519148Y-87636139D01*
X135930727Y-87636139D01*
X135954622Y-87612286D01*
X136119313Y-87215668D01*
X136119687Y-86786216D01*
X135955689Y-86389311D01*
X135652286Y-86085378D01*
X135255668Y-85920687D01*
X134826216Y-85920313D01*
X134429311Y-86084311D01*
X134125378Y-86387714D01*
X134082074Y-86492000D01*
X131960000Y-86492000D01*
X131765596Y-86530669D01*
X131600790Y-86640790D01*
X131039325Y-87202255D01*
X131039687Y-86786216D01*
X130875689Y-86389311D01*
X130572286Y-86085378D01*
X130175668Y-85920687D01*
X129746216Y-85920313D01*
X129641854Y-85963434D01*
X129222200Y-85543780D01*
X129222200Y-76555600D01*
X129379403Y-76524331D01*
X129544210Y-76414210D01*
X130663387Y-75295033D01*
X136884572Y-75295033D01*
X136960121Y-75459145D01*
X137368266Y-75592737D01*
X137796466Y-75559970D01*
X138039879Y-75459145D01*
X138115428Y-75295033D01*
X137965086Y-75144691D01*
X147585793Y-75144691D01*
X148034824Y-75112743D01*
X148301285Y-75002371D01*
X148383256Y-74832861D01*
X147730000Y-74179605D01*
X147076744Y-74832861D01*
X138526905Y-74832861D01*
X138592737Y-74631734D01*
X138567721Y-74304824D01*
X146617257Y-74304824D01*
X146727629Y-74571285D01*
X146897139Y-74653256D01*
X147550395Y-74000000D01*
X147909605Y-74000000D01*
X148562861Y-74653256D01*
X148732371Y-74571285D01*
X148874691Y-74144207D01*
X148842743Y-73695176D01*
X148732371Y-73428715D01*
X148562861Y-73346744D01*
X147909605Y-74000000D01*
X147550395Y-74000000D01*
X147550395Y-74000000D01*
X146897139Y-73346744D01*
X146727629Y-73428715D01*
X137697274Y-73428715D01*
X137631734Y-73407263D01*
X137203534Y-73440030D01*
X136960121Y-73540855D01*
X136884572Y-73704967D01*
X137500000Y-74320395D01*
X138115428Y-73704967D01*
X138039879Y-73540855D01*
X137697274Y-73428715D01*
X146727629Y-73428715D01*
X137697274Y-73428715D01*
X137697274Y-73428715D01*
X146727629Y-73428715D01*
X146585309Y-73855793D01*
X146617257Y-74304824D01*
X138567721Y-74304824D01*
X138559970Y-74203534D01*
X138459145Y-73960121D01*
X138295033Y-73884572D01*
X137679605Y-74500000D01*
X138295033Y-75115428D01*
X138459145Y-75039879D01*
X138526905Y-74832861D01*
X147076744Y-74832861D01*
X138526905Y-74832861D01*
X138526905Y-74832861D01*
X147076744Y-74832861D01*
X147158715Y-75002371D01*
X147585793Y-75144691D01*
X155085793Y-75144691D01*
X155534824Y-75112743D01*
X155801285Y-75002371D01*
X155883256Y-74832861D01*
X155230000Y-74179605D01*
X154576744Y-74832861D01*
X151037364Y-74832861D01*
X151228739Y-74641820D01*
X151401373Y-74226071D01*
X151401766Y-73775904D01*
X151258311Y-73428715D01*
X154227629Y-73428715D01*
X154085309Y-73855793D01*
X154117257Y-74304824D01*
X154227629Y-74571285D01*
X154397139Y-74653256D01*
X155050395Y-74000000D01*
X155409605Y-74000000D01*
X156062861Y-74653256D01*
X156232371Y-74571285D01*
X156374691Y-74144207D01*
X156342743Y-73695176D01*
X156232371Y-73428715D01*
X156062861Y-73346744D01*
X155409605Y-74000000D01*
X155050395Y-74000000D01*
X155050395Y-74000000D01*
X154397139Y-73346744D01*
X154227629Y-73428715D01*
X151258311Y-73428715D01*
X151229858Y-73359854D01*
X150911820Y-73041261D01*
X150540938Y-72887257D01*
X154925176Y-72887257D01*
X154658715Y-72997629D01*
X154576744Y-73167139D01*
X155230000Y-73820395D01*
X155883256Y-73167139D01*
X155801285Y-72997629D01*
X155374207Y-72855309D01*
X154925176Y-72887257D01*
X150540938Y-72887257D01*
X150496071Y-72868627D01*
X150045904Y-72868234D01*
X149629854Y-73040142D01*
X149311261Y-73358180D01*
X149138627Y-73773929D01*
X149138234Y-74224096D01*
X149310142Y-74640146D01*
X149628180Y-74958739D01*
X150043929Y-75131373D01*
X150494096Y-75131766D01*
X150910146Y-74959858D01*
X151037364Y-74832861D01*
X154576744Y-74832861D01*
X151037364Y-74832861D01*
X151037364Y-74832861D01*
X154576744Y-74832861D01*
X154658715Y-75002371D01*
X155085793Y-75144691D01*
X147585793Y-75144691D01*
X147585793Y-75144691D01*
X137965086Y-75144691D01*
X137500000Y-74679605D01*
X136884572Y-75295033D01*
X130663387Y-75295033D01*
X131998299Y-73960121D01*
X136540855Y-73960121D01*
X136407263Y-74368266D01*
X136440030Y-74796466D01*
X136540855Y-75039879D01*
X136704967Y-75115428D01*
X137320395Y-74500000D01*
X136704967Y-73884572D01*
X136540855Y-73960121D01*
X131998299Y-73960121D01*
X134210675Y-71747745D01*
X134210313Y-72163784D01*
X134374311Y-72560689D01*
X134677714Y-72864622D01*
X135074332Y-73029313D01*
X135503784Y-73029687D01*
X135848490Y-72887257D01*
X147425176Y-72887257D01*
X147158715Y-72997629D01*
X147076744Y-73167139D01*
X147730000Y-73820395D01*
X148383256Y-73167139D01*
X148301285Y-72997629D01*
X147874207Y-72855309D01*
X147425176Y-72887257D01*
X135848490Y-72887257D01*
X135900689Y-72865689D01*
X136204622Y-72562286D01*
X136369313Y-72165668D01*
X136369323Y-72153739D01*
X149000000Y-72153739D01*
X149317849Y-72090515D01*
X149587309Y-71910468D01*
X149635000Y-71839093D01*
X149682691Y-71910468D01*
X149952151Y-72090515D01*
X150270000Y-72153739D01*
X150587849Y-72090515D01*
X150857309Y-71910468D01*
X151037356Y-71641008D01*
X151100580Y-71323159D01*
X151100580Y-71127000D01*
X154399420Y-71127000D01*
X154399420Y-71427990D01*
X154511245Y-71736172D01*
X154732494Y-71978101D01*
X154976160Y-72091830D01*
X155103000Y-72025270D01*
X155103000Y-71127000D01*
X154399420Y-71127000D01*
X151100580Y-71127000D01*
X151100580Y-70676841D01*
X151037356Y-70358992D01*
X150857309Y-70089532D01*
X150756089Y-70021899D01*
X154732494Y-70021899D01*
X154511245Y-70263828D01*
X154399420Y-70572010D01*
X154399420Y-70873000D01*
X155103000Y-70873000D01*
X155103000Y-69974730D01*
X154976160Y-69908170D01*
X154732494Y-70021899D01*
X150756089Y-70021899D01*
X150587849Y-69909485D01*
X150270000Y-69846261D01*
X149952151Y-69909485D01*
X149682691Y-70089532D01*
X149635000Y-70160907D01*
X149587309Y-70089532D01*
X149317849Y-69909485D01*
X149000000Y-69846261D01*
X144753941Y-69846261D01*
X144958739Y-69641820D01*
X145131373Y-69226071D01*
X145131766Y-68775904D01*
X144959858Y-68359854D01*
X144641820Y-68041261D01*
X144226071Y-67868627D01*
X143775904Y-67868234D01*
X143359854Y-68040142D01*
X143041261Y-68358180D01*
X142868627Y-68773929D01*
X142868234Y-69224096D01*
X143040142Y-69640146D01*
X143358180Y-69958739D01*
X143773929Y-70131373D01*
X144224096Y-70131766D01*
X144640146Y-69959858D01*
X144753941Y-69846261D01*
X149000000Y-69846261D01*
X144753941Y-69846261D01*
X144753941Y-69846261D01*
X149000000Y-69846261D01*
X148682151Y-69909485D01*
X148412691Y-70089532D01*
X148360623Y-70167458D01*
X148227506Y-70021899D01*
X147983840Y-69908170D01*
X147476160Y-69908170D01*
X147476160Y-69908170D01*
X147232494Y-70021899D01*
X147011245Y-70263828D01*
X146899420Y-70572010D01*
X146899420Y-70873000D01*
X147603000Y-70873000D01*
X147603000Y-69974730D01*
X147476160Y-69908170D01*
X147983840Y-69908170D01*
X147476160Y-69908170D01*
X147476160Y-69908170D01*
X147983840Y-69908170D01*
X147857000Y-69974730D01*
X147857000Y-70873000D01*
X147877000Y-70873000D01*
X147877000Y-71127000D01*
X147857000Y-71127000D01*
X147603000Y-71127000D01*
X147603000Y-71127000D01*
X146899420Y-71127000D01*
X146899420Y-71427990D01*
X147011245Y-71736172D01*
X147232494Y-71978101D01*
X147476160Y-72091830D01*
X147603000Y-72025270D01*
X147603000Y-71127000D01*
X147857000Y-71127000D01*
X147603000Y-71127000D01*
X147603000Y-71127000D01*
X147857000Y-71127000D01*
X147857000Y-72025270D01*
X147983840Y-72091830D01*
X148227506Y-71978101D01*
X148360623Y-71832542D01*
X148412691Y-71910468D01*
X148682151Y-72090515D01*
X149000000Y-72153739D01*
X136369323Y-72153739D01*
X136369687Y-71736216D01*
X136205689Y-71339311D01*
X135902286Y-71035378D01*
X135696658Y-70949993D01*
X135900689Y-70865689D01*
X136204622Y-70562286D01*
X136369313Y-70165668D01*
X136369602Y-69832861D01*
X140806744Y-69832861D01*
X140888715Y-70002371D01*
X141315793Y-70144691D01*
X141764824Y-70112743D01*
X142031285Y-70002371D01*
X142113256Y-69832861D01*
X141460000Y-69179605D01*
X140806744Y-69832861D01*
X136369602Y-69832861D01*
X136369687Y-69736216D01*
X136205689Y-69339311D01*
X135902286Y-69035378D01*
X135696658Y-68949993D01*
X135900689Y-68865689D01*
X136204622Y-68562286D01*
X136260085Y-68428715D01*
X140457629Y-68428715D01*
X140315309Y-68855793D01*
X140347257Y-69304824D01*
X140457629Y-69571285D01*
X140627139Y-69653256D01*
X141280395Y-69000000D01*
X141639605Y-69000000D01*
X142292861Y-69653256D01*
X142462371Y-69571285D01*
X142604691Y-69144207D01*
X142572743Y-68695176D01*
X142462371Y-68428715D01*
X142292861Y-68346744D01*
X141639605Y-69000000D01*
X141280395Y-69000000D01*
X141280395Y-69000000D01*
X140627139Y-68346744D01*
X140457629Y-68428715D01*
X136260085Y-68428715D01*
X136369313Y-68165668D01*
X136369555Y-67887257D01*
X141155176Y-67887257D01*
X140888715Y-67997629D01*
X140806744Y-68167139D01*
X141460000Y-68820395D01*
X142113256Y-68167139D01*
X142031285Y-67997629D01*
X141604207Y-67855309D01*
X141155176Y-67887257D01*
X136369555Y-67887257D01*
X136369687Y-67736216D01*
X136205689Y-67339311D01*
X135902286Y-67035378D01*
X135505668Y-66870687D01*
X135076216Y-66870313D01*
X134679311Y-67034311D01*
X134375378Y-67337714D01*
X134210687Y-67734332D01*
X134210313Y-68163784D01*
X134253434Y-68268146D01*
X133079580Y-69442000D01*
X131168119Y-69442000D01*
X131125689Y-69339311D01*
X130822286Y-69035378D01*
X130633939Y-68957169D01*
X130749879Y-68909145D01*
X130825428Y-68745033D01*
X130210000Y-68129605D01*
X129594572Y-68745033D01*
X129670121Y-68909145D01*
X129799637Y-68951538D01*
X129599311Y-69034311D01*
X129295378Y-69337714D01*
X129130687Y-69734332D01*
X129130313Y-70163784D01*
X129294311Y-70560689D01*
X129597714Y-70864622D01*
X129803342Y-70950007D01*
X129599311Y-71034311D01*
X129295378Y-71337714D01*
X129130687Y-71734332D01*
X129130313Y-72163784D01*
X129294311Y-72560689D01*
X129597714Y-72864622D01*
X129994332Y-73029313D01*
X130423784Y-73029687D01*
X130820689Y-72865689D01*
X131124622Y-72562286D01*
X131289313Y-72165668D01*
X131289687Y-71736216D01*
X131125689Y-71339311D01*
X130822286Y-71035378D01*
X130616658Y-70949993D01*
X130820689Y-70865689D01*
X131124622Y-70562286D01*
X131167926Y-70458000D01*
X133290000Y-70458000D01*
X133484403Y-70419331D01*
X133649210Y-70309210D01*
X134210675Y-69747745D01*
X134210313Y-70163784D01*
X134253434Y-70268146D01*
X128974580Y-75547000D01*
X123014600Y-75547000D01*
X123014600Y-75032250D01*
X122919350Y-74937000D01*
X121897000Y-74937000D01*
X121897000Y-74957000D01*
X121643000Y-74957000D01*
X121643000Y-74937000D01*
X120620650Y-74937000D01*
X120525400Y-75032250D01*
X120525400Y-75386980D01*
X120391346Y-75252926D01*
X120474600Y-74834383D01*
X120474600Y-74785617D01*
X120379860Y-74309329D01*
X120110065Y-73905552D01*
X119706288Y-73635757D01*
X119352582Y-73565400D01*
X120830615Y-73565400D01*
X120690581Y-73623404D01*
X120583404Y-73730580D01*
X120525400Y-73870614D01*
X120525400Y-74587750D01*
X120620650Y-74683000D01*
X121643000Y-74683000D01*
X121643000Y-73660650D01*
X121547750Y-73565400D01*
X121992250Y-73565400D01*
X121897000Y-73660650D01*
X121897000Y-74683000D01*
X122919350Y-74683000D01*
X123014600Y-74587750D01*
X123014600Y-73870614D01*
X122956596Y-73730580D01*
X122849419Y-73623404D01*
X122709385Y-73565400D01*
X121992250Y-73565400D01*
X121547750Y-73565400D01*
X121547750Y-73565400D01*
X120830615Y-73565400D01*
X119352582Y-73565400D01*
X119230000Y-73541017D01*
X118753712Y-73635757D01*
X118349935Y-73905552D01*
X118080140Y-74309329D01*
X117985400Y-74785617D01*
X117985400Y-74834383D01*
X118080140Y-75310671D01*
X118349935Y-75714448D01*
X118753712Y-75984243D01*
X119230000Y-76078983D01*
X119689218Y-75987638D01*
X120133790Y-76432210D01*
X120298597Y-76542331D01*
X120493000Y-76581000D01*
X121031000Y-76581000D01*
X121121492Y-76563000D01*
X128206200Y-76563000D01*
X128206200Y-85754200D01*
X128244869Y-85948603D01*
X128354990Y-86113410D01*
X128923297Y-86681717D01*
X128880687Y-86784332D01*
X128880313Y-87213784D01*
X128923434Y-87318146D01*
X128347390Y-87894190D01*
X128237269Y-88058997D01*
X128198600Y-88253400D01*
X128198600Y-98246600D01*
X128237269Y-98441003D01*
X128347390Y-98605810D01*
X128923297Y-99181717D01*
X128880687Y-99284332D01*
X128880313Y-99713784D01*
X129044311Y-100110689D01*
X129347714Y-100414622D01*
X129553342Y-100500007D01*
X129349311Y-100584311D01*
X129045378Y-100887714D01*
X128880687Y-101284332D01*
X128880313Y-101713784D01*
X129044311Y-102110689D01*
X129347714Y-102414622D01*
X129744332Y-102579313D01*
X130173784Y-102579687D01*
X130570689Y-102415689D01*
X130691555Y-102295033D01*
X134424572Y-102295033D01*
X130691555Y-102295033D01*
X130691555Y-102295033D01*
X134424572Y-102295033D01*
X134500121Y-102459145D01*
X134118285Y-102459145D01*
X134025668Y-102420687D01*
X133596216Y-102420313D01*
X133199311Y-102584311D01*
X132895378Y-102887714D01*
X132730687Y-103284332D01*
X132730313Y-103713784D01*
X132894311Y-104110689D01*
X133197714Y-104414622D01*
X133594332Y-104579313D01*
X134023784Y-104579687D01*
X134420689Y-104415689D01*
X134724622Y-104112286D01*
X134767926Y-104008000D01*
X135625600Y-104008000D01*
X135820003Y-103969331D01*
X135984810Y-103859210D01*
X136260049Y-103583971D01*
X146277391Y-103583971D01*
X136260049Y-103583971D01*
X136260049Y-103583971D01*
X146277391Y-103583971D01*
X145824172Y-103886803D01*
X145521340Y-104340022D01*
X145415000Y-104874631D01*
X114231000Y-104874631D01*
X114231000Y-102584311D01*
X125579311Y-102584311D01*
X125275378Y-102887714D01*
X125110687Y-103284332D01*
X125110313Y-103713784D01*
X125274311Y-104110689D01*
X125577714Y-104414622D01*
X125974332Y-104579313D01*
X126403784Y-104579687D01*
X126800689Y-104415689D01*
X127104622Y-104112286D01*
X127269313Y-103715668D01*
X127269687Y-103286216D01*
X127105689Y-102889311D01*
X126802286Y-102585378D01*
X126405668Y-102420687D01*
X125976216Y-102420313D01*
X125579311Y-102584311D01*
X114231000Y-102584311D01*
X114231000Y-94498213D01*
X118331891Y-94498213D01*
X117999381Y-94830144D01*
X117819206Y-95264054D01*
X117818796Y-95733885D01*
X117998213Y-96168109D01*
X118330144Y-96500619D01*
X118764054Y-96680794D01*
X119233885Y-96681204D01*
X119668109Y-96501787D01*
X120000619Y-96169856D01*
X120180794Y-95735946D01*
X120181204Y-95266115D01*
X120001787Y-94831891D01*
X119669856Y-94499381D01*
X119667044Y-94498213D01*
X125331891Y-94498213D01*
X119667044Y-94498213D01*
X119667044Y-94498213D01*
X125331891Y-94498213D01*
X124999381Y-94830144D01*
X124819206Y-95264054D01*
X124818796Y-95733885D01*
X124998213Y-96168109D01*
X125330144Y-96500619D01*
X125764054Y-96680794D01*
X126233885Y-96681204D01*
X126668109Y-96501787D01*
X127000619Y-96169856D01*
X127180794Y-95735946D01*
X127181204Y-95266115D01*
X127001787Y-94831891D01*
X126669856Y-94499381D01*
X126235946Y-94319206D01*
X125766115Y-94318796D01*
X125331891Y-94498213D01*
X119667044Y-94498213D01*
X119235946Y-94319206D01*
X118766115Y-94318796D01*
X118331891Y-94498213D01*
X114231000Y-94498213D01*
X114231000Y-90084311D01*
X125579311Y-90084311D01*
X125275378Y-90387714D01*
X125110687Y-90784332D01*
X125110313Y-91213784D01*
X125274311Y-91610689D01*
X125577714Y-91914622D01*
X125974332Y-92079313D01*
X126403784Y-92079687D01*
X126800689Y-91915689D01*
X127104622Y-91612286D01*
X127269313Y-91215668D01*
X127269687Y-90786216D01*
X127105689Y-90389311D01*
X126802286Y-90085378D01*
X126405668Y-89920687D01*
X125976216Y-89920313D01*
X125579311Y-90084311D01*
X114231000Y-90084311D01*
X114231000Y-81998213D01*
X118331891Y-81998213D01*
X117999381Y-82330144D01*
X117819206Y-82764054D01*
X117818796Y-83233885D01*
X117998213Y-83668109D01*
X118330144Y-84000619D01*
X118764054Y-84180794D01*
X119233885Y-84181204D01*
X119668109Y-84001787D01*
X120000619Y-83669856D01*
X120180794Y-83235946D01*
X120181204Y-82766115D01*
X120001787Y-82331891D01*
X119669856Y-81999381D01*
X119667044Y-81998213D01*
X125331891Y-81998213D01*
X124999381Y-82330144D01*
X124819206Y-82764054D01*
X124818796Y-83233885D01*
X124998213Y-83668109D01*
X125330144Y-84000619D01*
X125764054Y-84180794D01*
X126233885Y-84181204D01*
X126668109Y-84001787D01*
X127000619Y-83669856D01*
X127180794Y-83235946D01*
X127181204Y-82766115D01*
X127001787Y-82331891D01*
X126669856Y-81999381D01*
X126235946Y-81819206D01*
X125766115Y-81818796D01*
X125331891Y-81998213D01*
X119667044Y-81998213D01*
X119235946Y-81819206D01*
X118766115Y-81818796D01*
X118331891Y-81998213D01*
X114231000Y-81998213D01*
X114231000Y-73810142D01*
X115859854Y-73810142D01*
X115541261Y-74128180D01*
X115368627Y-74543929D01*
X115368234Y-74994096D01*
X115540142Y-75410146D01*
X115858180Y-75728739D01*
X116273929Y-75901373D01*
X116724096Y-75901766D01*
X117140146Y-75729858D01*
X117458739Y-75411820D01*
X117631373Y-74996071D01*
X117631766Y-74545904D01*
X117459858Y-74129854D01*
X117141820Y-73811261D01*
X116726071Y-73638627D01*
X116275904Y-73638234D01*
X115859854Y-73810142D01*
X114231000Y-73810142D01*
X114231000Y-73538983D01*
X121770000Y-73538983D01*
X122246288Y-73444243D01*
X122650065Y-73174448D01*
X122919860Y-72770671D01*
X123014600Y-72294383D01*
X123014600Y-72245617D01*
X122919860Y-71769329D01*
X122650065Y-71365552D01*
X122246288Y-71095757D01*
X121770000Y-71001017D01*
X121293712Y-71095757D01*
X119618534Y-71095757D01*
X119549118Y-71067007D01*
X119357000Y-71127688D01*
X119357000Y-72143000D01*
X120372865Y-72143000D01*
X120433005Y-71950880D01*
X120219310Y-71514801D01*
X119855001Y-71193695D01*
X119618534Y-71095757D01*
X121293712Y-71095757D01*
X119618534Y-71095757D01*
X119618534Y-71095757D01*
X121293712Y-71095757D01*
X120889935Y-71365552D01*
X120620140Y-71769329D01*
X120525400Y-72245617D01*
X117635542Y-72245617D01*
X117614572Y-71950880D01*
X118026995Y-71950880D01*
X118087135Y-72143000D01*
X119103000Y-72143000D01*
X119103000Y-71127688D01*
X118910882Y-71067007D01*
X118604999Y-71193695D01*
X116969455Y-71193695D01*
X116644207Y-71085309D01*
X116195176Y-71117257D01*
X115928715Y-71227629D01*
X115846744Y-71397139D01*
X116500000Y-72050395D01*
X117153256Y-71397139D01*
X117071285Y-71227629D01*
X116969455Y-71193695D01*
X118604999Y-71193695D01*
X116969455Y-71193695D01*
X116969455Y-71193695D01*
X118604999Y-71193695D01*
X118240690Y-71514801D01*
X118026995Y-71950880D01*
X117614572Y-71950880D01*
X117612743Y-71925176D01*
X117502371Y-71658715D01*
X117332861Y-71576744D01*
X116679605Y-72230000D01*
X117332861Y-72883256D01*
X117502371Y-72801285D01*
X117637095Y-72397000D01*
X118087135Y-72397000D01*
X118026995Y-72589120D01*
X118240690Y-73025199D01*
X118604999Y-73346305D01*
X118910882Y-73472993D01*
X119103000Y-73412312D01*
X119103000Y-72397000D01*
X118087135Y-72397000D01*
X117637095Y-72397000D01*
X117644691Y-72374207D01*
X117635542Y-72245617D01*
X120525400Y-72245617D01*
X117635542Y-72245617D01*
X117635542Y-72245617D01*
X120525400Y-72245617D01*
X120525400Y-72294383D01*
X120620140Y-72770671D01*
X120344038Y-72770671D01*
X120433005Y-72589120D01*
X120372865Y-72397000D01*
X119357000Y-72397000D01*
X119357000Y-73412312D01*
X119549118Y-73472993D01*
X119855001Y-73346305D01*
X120219310Y-73025199D01*
X120344038Y-72770671D01*
X120620140Y-72770671D01*
X120344038Y-72770671D01*
X120344038Y-72770671D01*
X120620140Y-72770671D01*
X120889935Y-73174448D01*
X121293712Y-73444243D01*
X121770000Y-73538983D01*
X114231000Y-73538983D01*
X114231000Y-73062861D01*
X115846744Y-73062861D01*
X115928715Y-73232371D01*
X116355793Y-73374691D01*
X116804824Y-73342743D01*
X117071285Y-73232371D01*
X117153256Y-73062861D01*
X116500000Y-72409605D01*
X115846744Y-73062861D01*
X114231000Y-73062861D01*
X114231000Y-71658715D01*
X115497629Y-71658715D01*
X115355309Y-72085793D01*
X115387257Y-72534824D01*
X115497629Y-72801285D01*
X115667139Y-72883256D01*
X116320395Y-72230000D01*
X115667139Y-71576744D01*
X115497629Y-71658715D01*
X114231000Y-71658715D01*
X114231000Y-68555757D01*
X118753712Y-68555757D01*
X118349935Y-68825552D01*
X118080140Y-69229329D01*
X117985400Y-69705617D01*
X117985400Y-69754383D01*
X118080140Y-70230671D01*
X118349935Y-70634448D01*
X118753712Y-70904243D01*
X119230000Y-70998983D01*
X119706288Y-70904243D01*
X120110065Y-70634448D01*
X120379860Y-70230671D01*
X120474600Y-69754383D01*
X120474600Y-69705617D01*
X120379860Y-69229329D01*
X120110065Y-68825552D01*
X119706288Y-68555757D01*
X121293712Y-68555757D01*
X120889935Y-68825552D01*
X120620140Y-69229329D01*
X120525400Y-69705617D01*
X120525400Y-69754383D01*
X120620140Y-70230671D01*
X120889935Y-70634448D01*
X121293712Y-70904243D01*
X121770000Y-70998983D01*
X122246288Y-70904243D01*
X122650065Y-70634448D01*
X122919860Y-70230671D01*
X123014600Y-69754383D01*
X123014600Y-69705617D01*
X122919860Y-69229329D01*
X122650065Y-68825552D01*
X122301828Y-68592867D01*
X125354581Y-68592867D01*
X125718280Y-68915570D01*
X126177787Y-69074527D01*
X126373000Y-68990643D01*
X126373000Y-67967000D01*
X126627000Y-67967000D01*
X126373000Y-67967000D01*
X126373000Y-67967000D01*
X126627000Y-67967000D01*
X126627000Y-68990643D01*
X126822213Y-69074527D01*
X127281720Y-68915570D01*
X127645419Y-68592867D01*
X127855393Y-68159118D01*
X127794712Y-67967000D01*
X126627000Y-67967000D01*
X126373000Y-67967000D01*
X126373000Y-67967000D01*
X125205288Y-67967000D01*
X122735222Y-67967000D01*
X122834603Y-67818266D01*
X129117263Y-67818266D01*
X129150030Y-68246466D01*
X129250855Y-68489879D01*
X129414967Y-68565428D01*
X130030395Y-67950000D01*
X130389605Y-67950000D01*
X131005033Y-68565428D01*
X131169145Y-68489879D01*
X131302737Y-68081734D01*
X131269970Y-67653534D01*
X131169145Y-67410121D01*
X131005033Y-67334572D01*
X130389605Y-67950000D01*
X130030395Y-67950000D01*
X130030395Y-67950000D01*
X129414967Y-67334572D01*
X129250855Y-67410121D01*
X127801775Y-67410121D01*
X127645419Y-67087133D01*
X127423277Y-66890030D01*
X129913534Y-66890030D01*
X129670121Y-66990855D01*
X129594572Y-67154967D01*
X130210000Y-67770395D01*
X130825428Y-67154967D01*
X130749879Y-66990855D01*
X130341734Y-66857263D01*
X129913534Y-66890030D01*
X127423277Y-66890030D01*
X127281720Y-66764430D01*
X126822213Y-66605473D01*
X126627000Y-66689357D01*
X126627000Y-67713000D01*
X127794712Y-67713000D01*
X127855393Y-67520882D01*
X127801775Y-67410121D01*
X129250855Y-67410121D01*
X127801775Y-67410121D01*
X127801775Y-67410121D01*
X129250855Y-67410121D01*
X129117263Y-67818266D01*
X122834603Y-67818266D01*
X122919860Y-67690671D01*
X123014600Y-67214383D01*
X123014600Y-67165617D01*
X122934799Y-66764430D01*
X125718280Y-66764430D01*
X125354581Y-67087133D01*
X125144607Y-67520882D01*
X125205288Y-67713000D01*
X126373000Y-67713000D01*
X126373000Y-66689357D01*
X126177787Y-66605473D01*
X125718280Y-66764430D01*
X122934799Y-66764430D01*
X122919860Y-66689329D01*
X122650065Y-66285552D01*
X122246288Y-66015757D01*
X121770000Y-65921017D01*
X121293712Y-66015757D01*
X120889935Y-66285552D01*
X120620140Y-66689329D01*
X120525400Y-67165617D01*
X120525400Y-67214383D01*
X120620140Y-67690671D01*
X120889935Y-68094448D01*
X121293712Y-68364243D01*
X121770000Y-68458983D01*
X122246288Y-68364243D01*
X122650065Y-68094448D01*
X122735222Y-67967000D01*
X125205288Y-67967000D01*
X122735222Y-67967000D01*
X122735222Y-67967000D01*
X125205288Y-67967000D01*
X125144607Y-68159118D01*
X125354581Y-68592867D01*
X122301828Y-68592867D01*
X122246288Y-68555757D01*
X121770000Y-68461017D01*
X121293712Y-68555757D01*
X119706288Y-68555757D01*
X119706288Y-68555757D01*
X119230000Y-68461017D01*
X118753712Y-68555757D01*
X114231000Y-68555757D01*
X114231000Y-66015757D01*
X118753712Y-66015757D01*
X118349935Y-66285552D01*
X118080140Y-66689329D01*
X117985400Y-67165617D01*
X117985400Y-67214383D01*
X118080140Y-67690671D01*
X118349935Y-68094448D01*
X118753712Y-68364243D01*
X119230000Y-68458983D01*
X119706288Y-68364243D01*
X120110065Y-68094448D01*
X120379860Y-67690671D01*
X120474600Y-67214383D01*
X120474600Y-67165617D01*
X120379860Y-66689329D01*
X120110065Y-66285552D01*
X119706288Y-66015757D01*
X119230000Y-65921017D01*
X118753712Y-66015757D01*
X114231000Y-66015757D01*
X114231000Y-65427000D01*
X125205288Y-65427000D01*
X125144607Y-65619118D01*
X125354581Y-66052867D01*
X125718280Y-66375570D01*
X126177787Y-66534527D01*
X126373000Y-66450643D01*
X126373000Y-65427000D01*
X126627000Y-65427000D01*
X126627000Y-66450643D01*
X126822213Y-66534527D01*
X127281720Y-66375570D01*
X127645419Y-66052867D01*
X127855393Y-65619118D01*
X127794712Y-65427000D01*
X126627000Y-65427000D01*
X126373000Y-65427000D01*
X126373000Y-65427000D01*
X125205288Y-65427000D01*
X114231000Y-65427000D01*
X114231000Y-64224430D01*
X125718280Y-64224430D01*
X125354581Y-64547133D01*
X125144607Y-64980882D01*
X125205288Y-65173000D01*
X126373000Y-65173000D01*
X126373000Y-64149357D01*
X126627000Y-64149357D01*
X126373000Y-64149357D01*
X126373000Y-64149357D01*
X126627000Y-64149357D01*
X126627000Y-65173000D01*
X127794712Y-65173000D01*
X127855393Y-64980882D01*
X127645419Y-64547133D01*
X127281720Y-64224430D01*
X126822213Y-64065473D01*
X126627000Y-64149357D01*
X126373000Y-64149357D01*
X126373000Y-64149357D01*
X126177787Y-64065473D01*
X125718280Y-64224430D01*
X114231000Y-64224430D01*
X114231000Y-61507936D01*
X125484000Y-61507936D01*
X125338726Y-61536122D01*
X125211044Y-61619996D01*
X125125574Y-61746616D01*
X125095536Y-61896400D01*
X125095536Y-63623600D01*
X125123722Y-63768874D01*
X125207596Y-63896556D01*
X125334216Y-63982026D01*
X125484000Y-64012064D01*
X127516000Y-64012064D01*
X127661274Y-63983878D01*
X127788956Y-63900004D01*
X127874426Y-63773384D01*
X127904464Y-63623600D01*
X127904464Y-61896400D01*
X127876278Y-61751126D01*
X127792404Y-61623444D01*
X127665784Y-61537974D01*
X127516000Y-61507936D01*
X125484000Y-61507936D01*
X114231000Y-61507936D01*
X114231000Y-61481000D01*
X142136409Y-61481000D01*
X141869327Y-62124204D01*
M02*
