M48
;DRILL file {KiCad (2015-06-24 BZR 5814, Git a8bffb8)-product} date 7/5/2015 4:12:57 PM
;FORMAT={-:-/ absolute / inch / decimal}
FMAT,2
INCH,TZ
T1C0.016
T2C0.024
T3C0.028
T4C0.032
T5C0.032
T6C0.040
T7C0.063
T8C0.118
%
G90
G05
M72
T1
X5.0959Y-3.7358
X5.096Y-3.2495
X5.0961Y-4.2283
X5.1734Y-2.5578
X5.3996Y-2.458
X5.7511Y-3.6633
X5.7836Y-3.473
X5.9209Y-3.7143
X5.9291Y-3.3614
X5.9968Y-3.503
X6.0365Y-3.1687
X6.148Y-3.6539
X6.165Y-3.805
T2
X5.8161Y-2.7953
X5.8661Y-2.7953
X5.9161Y-2.7953
X6.1114Y-2.7953
X6.1614Y-2.7953
X6.2114Y-2.7953
T3
X5.7327Y-3.0709
X5.7327Y-3.1209
X5.7827Y-3.0709
X5.7827Y-3.1209
X5.8327Y-3.0709
X5.8327Y-3.1209
X5.8827Y-3.0709
X5.8827Y-3.1209
X5.9327Y-3.0709
X5.9327Y-3.1209
X5.9827Y-3.0709
X5.9827Y-3.1209
X6.0327Y-3.0709
X6.0327Y-3.1209
X6.0827Y-3.0709
X6.0827Y-3.1209
T4
X4.5866Y-2.8437
X4.5866Y-2.9437
X5.5693Y-2.7165
X5.6587Y-3.6024
X5.6693Y-2.7165
X5.7587Y-3.6024
X5.8161Y-2.9134
X5.9161Y-2.9134
X6.1114Y-2.9134
X6.2114Y-2.9134
X6.3386Y-3.7689
X6.3386Y-3.8689
T5
X4.9681Y-3.5827
X4.9681Y-4.0748
X5.1165Y-3.4252
X5.1165Y-3.5039
X5.1165Y-3.9173
X5.1165Y-3.9961
X5.1256Y-4.4291
X5.1264Y-2.6752
X5.1264Y-2.7539
X5.1264Y-2.8327
X5.2681Y-3.5827
X5.2681Y-4.0748
X5.274Y-4.2717
X5.274Y-4.3504
X5.315Y-3.0315
X5.3165Y-3.4252
X5.3165Y-3.5039
X5.3165Y-3.9173
X5.3165Y-3.9961
X5.3264Y-2.6752
X5.3264Y-2.7539
X5.3264Y-2.8327
X5.4134Y-2.9331
X5.4134Y-3.1299
X5.4256Y-4.4291
X5.474Y-4.2717
X5.474Y-4.3504
X6.3386Y-3.0496
X6.3386Y-3.2496
T6
X4.6941Y-2.6453
X4.6941Y-2.7453
X4.6941Y-2.8453
X4.6941Y-2.9453
X4.7941Y-2.6453
X4.7941Y-2.7453
X4.7941Y-2.8453
X4.7941Y-2.9453
X4.9803Y-2.4709
X4.9803Y-2.5709
X4.9803Y-2.6709
X5.6299Y-3.2571
X5.6299Y-3.3571
X5.78Y-4.13
X5.78Y-4.23
X6.4567Y-3.2646
X6.4567Y-3.3646
X6.4567Y-3.4646
X6.4567Y-3.5646
X6.4567Y-3.6646
T7
X4.685Y-3.2677
X4.685Y-3.7598
X4.685Y-4.252
X4.9606Y-3.2677
X4.9606Y-3.7598
X4.9606Y-4.252
T8
X5.6594Y-2.4606
X5.6594Y-4.4291
X6.4075Y-2.8543
X6.4075Y-4.0354
T0
M30
