%TF.GenerationSoftware,KiCad,Pcbnew,(2015-06-24 BZR 5814, Git a8bffb8)-product*%
%TF.CreationDate,2015-07-05T17:44:44-06:00*%
%TF.JobID,Power Monitor,506F776572204D6F6E69746F722E6B69,rev?*%
%TF.FileFunction,Legend,Top*%
%FSLAX46Y46*%
G04 Gerber Fmt 4.6, Leading zero omitted, Abs format (unit mm)*
G04 Created by KiCad (PCBNEW (2015-06-24 BZR 5814, Git a8bffb8)-product) date 7/5/2015 5:44:44 PM*
%MOMM*%
G01*
G04 APERTURE LIST*
%ADD10C,0.100000*%
%ADD11C,0.254000*%
%ADD12C,0.300000*%
%ADD13C,0.150000*%
%ADD14C,3.000000*%
%ADD15R,1.727200X1.727200*%
%ADD16O,1.727200X1.727200*%
%ADD17R,1.400000X0.800000*%
%ADD18R,0.939800X0.939800*%
%ADD19C,0.939800*%
%ADD20C,1.397000*%
%ADD21C,1.600000*%
%ADD22R,2.200000X2.100000*%
%ADD23R,2.700000X2.100000*%
%ADD24R,2.000000X2.100000*%
%ADD25R,2.600000X2.700000*%
%ADD26C,1.501140*%
%ADD27R,2.032000X1.727200*%
%ADD28O,2.032000X1.727200*%
%ADD29O,0.899160X1.501140*%
%ADD30R,2.032000X2.032000*%
%ADD31O,2.032000X2.032000*%
%ADD32R,2.000000X0.600000*%
G04 APERTURE END LIST*
D10*
D11*
X165305619Y-94959714D02*
X165305619Y-95540285D01*
X165305619Y-95249999D02*
X164289619Y-95249999D01*
X164434762Y-95346761D01*
X164531524Y-95443523D01*
X164579905Y-95540285D01*
D12*
X165016571Y-80700285D02*
X163516571Y-80700285D01*
X164873714Y-79128856D02*
X164945143Y-79200285D01*
X165016571Y-79414571D01*
X165016571Y-79557428D01*
X164945143Y-79771713D01*
X164802286Y-79914571D01*
X164659429Y-79985999D01*
X164373714Y-80057428D01*
X164159429Y-80057428D01*
X163873714Y-79985999D01*
X163730857Y-79914571D01*
X163588000Y-79771713D01*
X163516571Y-79557428D01*
X163516571Y-79414571D01*
X163588000Y-79200285D01*
X163659429Y-79128856D01*
X164945143Y-78557428D02*
X165016571Y-78343142D01*
X165016571Y-77985999D01*
X164945143Y-77843142D01*
X164873714Y-77771713D01*
X164730857Y-77700285D01*
X164588000Y-77700285D01*
X164445143Y-77771713D01*
X164373714Y-77843142D01*
X164302286Y-77985999D01*
X164230857Y-78271713D01*
X164159429Y-78414571D01*
X164088000Y-78485999D01*
X163945143Y-78557428D01*
X163802286Y-78557428D01*
X163659429Y-78485999D01*
X163588000Y-78414571D01*
X163516571Y-78271713D01*
X163516571Y-77914571D01*
X163588000Y-77700285D01*
X165016571Y-77057428D02*
X163516571Y-77057428D01*
X163516571Y-76486000D01*
X163588000Y-76343142D01*
X163659429Y-76271714D01*
X163802286Y-76200285D01*
X164016571Y-76200285D01*
X164159429Y-76271714D01*
X164230857Y-76343142D01*
X164302286Y-76486000D01*
X164302286Y-77057428D01*
X140144572Y-85197143D02*
X141287429Y-85197143D01*
X140144572Y-82657143D02*
X141287429Y-82657143D01*
X140716000Y-83228571D02*
X140716000Y-82085714D01*
X133507238Y-95270524D02*
X133507238Y-94000524D01*
X133991047Y-94000524D01*
X134112000Y-94061000D01*
X134172476Y-94121476D01*
X134232952Y-94242429D01*
X134232952Y-94423857D01*
X134172476Y-94544810D01*
X134112000Y-94605286D01*
X133991047Y-94665762D01*
X133507238Y-94665762D01*
X134958667Y-95270524D02*
X134837714Y-95210048D01*
X134777238Y-95149571D01*
X134716762Y-95028619D01*
X134716762Y-94665762D01*
X134777238Y-94544810D01*
X134837714Y-94484333D01*
X134958667Y-94423857D01*
X135140095Y-94423857D01*
X135261047Y-94484333D01*
X135321524Y-94544810D01*
X135382000Y-94665762D01*
X135382000Y-95028619D01*
X135321524Y-95149571D01*
X135261047Y-95210048D01*
X135140095Y-95270524D01*
X134958667Y-95270524D01*
X135805334Y-94423857D02*
X136047238Y-95270524D01*
X136289143Y-94665762D01*
X136531048Y-95270524D01*
X136772953Y-94423857D01*
X137740571Y-95210048D02*
X137619619Y-95270524D01*
X137377714Y-95270524D01*
X137256762Y-95210048D01*
X137196286Y-95089095D01*
X137196286Y-94605286D01*
X137256762Y-94484333D01*
X137377714Y-94423857D01*
X137619619Y-94423857D01*
X137740571Y-94484333D01*
X137801048Y-94605286D01*
X137801048Y-94726238D01*
X137196286Y-94847190D01*
X138345333Y-95270524D02*
X138345333Y-94423857D01*
X138345333Y-94665762D02*
X138405809Y-94544810D01*
X138466285Y-94484333D01*
X138587238Y-94423857D01*
X138708190Y-94423857D01*
X140099142Y-95270524D02*
X140099142Y-94000524D01*
X140522475Y-94907667D01*
X140945809Y-94000524D01*
X140945809Y-95270524D01*
X141732000Y-95270524D02*
X141611047Y-95210048D01*
X141550571Y-95149571D01*
X141490095Y-95028619D01*
X141490095Y-94665762D01*
X141550571Y-94544810D01*
X141611047Y-94484333D01*
X141732000Y-94423857D01*
X141913428Y-94423857D01*
X142034380Y-94484333D01*
X142094857Y-94544810D01*
X142155333Y-94665762D01*
X142155333Y-95028619D01*
X142094857Y-95149571D01*
X142034380Y-95210048D01*
X141913428Y-95270524D01*
X141732000Y-95270524D01*
X142699619Y-94423857D02*
X142699619Y-95270524D01*
X142699619Y-94544810D02*
X142760095Y-94484333D01*
X142881048Y-94423857D01*
X143062476Y-94423857D01*
X143183428Y-94484333D01*
X143243905Y-94605286D01*
X143243905Y-95270524D01*
X143848667Y-95270524D02*
X143848667Y-94423857D01*
X143848667Y-94000524D02*
X143788191Y-94061000D01*
X143848667Y-94121476D01*
X143909143Y-94061000D01*
X143848667Y-94000524D01*
X143848667Y-94121476D01*
X144272000Y-94423857D02*
X144755810Y-94423857D01*
X144453429Y-94000524D02*
X144453429Y-95089095D01*
X144513905Y-95210048D01*
X144634858Y-95270524D01*
X144755810Y-95270524D01*
X145360572Y-95270524D02*
X145239619Y-95210048D01*
X145179143Y-95149571D01*
X145118667Y-95028619D01*
X145118667Y-94665762D01*
X145179143Y-94544810D01*
X145239619Y-94484333D01*
X145360572Y-94423857D01*
X145542000Y-94423857D01*
X145662952Y-94484333D01*
X145723429Y-94544810D01*
X145783905Y-94665762D01*
X145783905Y-95028619D01*
X145723429Y-95149571D01*
X145662952Y-95210048D01*
X145542000Y-95270524D01*
X145360572Y-95270524D01*
X146328191Y-95270524D02*
X146328191Y-94423857D01*
X146328191Y-94665762D02*
X146388667Y-94544810D01*
X146449143Y-94484333D01*
X146570096Y-94423857D01*
X146691048Y-94423857D01*
X142457715Y-97348524D02*
X142034382Y-96743762D01*
X141732001Y-97348524D02*
X141732001Y-96078524D01*
X142215810Y-96078524D01*
X142336763Y-96139000D01*
X142397239Y-96199476D01*
X142457715Y-96320429D01*
X142457715Y-96501857D01*
X142397239Y-96622810D01*
X142336763Y-96683286D01*
X142215810Y-96743762D01*
X141732001Y-96743762D01*
X143485810Y-97288048D02*
X143364858Y-97348524D01*
X143122953Y-97348524D01*
X143002001Y-97288048D01*
X142941525Y-97167095D01*
X142941525Y-96683286D01*
X143002001Y-96562333D01*
X143122953Y-96501857D01*
X143364858Y-96501857D01*
X143485810Y-96562333D01*
X143546287Y-96683286D01*
X143546287Y-96804238D01*
X142941525Y-96925190D01*
X143969620Y-96501857D02*
X144272001Y-97348524D01*
X144574381Y-96501857D01*
X145965334Y-96985667D02*
X146570096Y-96985667D01*
X145844381Y-97348524D02*
X146267715Y-96078524D01*
X146691048Y-97348524D01*
X141127240Y-98821762D02*
X141127240Y-99426524D01*
X140703906Y-98156524D02*
X141127240Y-98821762D01*
X141550573Y-98156524D01*
X142457715Y-99366048D02*
X142336763Y-99426524D01*
X142094858Y-99426524D01*
X141973906Y-99366048D01*
X141913430Y-99245095D01*
X141913430Y-98761286D01*
X141973906Y-98640333D01*
X142094858Y-98579857D01*
X142336763Y-98579857D01*
X142457715Y-98640333D01*
X142518192Y-98761286D01*
X142518192Y-98882238D01*
X141913430Y-99003190D01*
X143062477Y-98579857D02*
X143062477Y-99426524D01*
X143062477Y-98700810D02*
X143122953Y-98640333D01*
X143243906Y-98579857D01*
X143425334Y-98579857D01*
X143546286Y-98640333D01*
X143606763Y-98761286D01*
X143606763Y-99426524D01*
X144090573Y-98579857D02*
X144755811Y-98579857D01*
X144090573Y-99426524D01*
X144755811Y-99426524D01*
X145723429Y-99366048D02*
X145602477Y-99426524D01*
X145360572Y-99426524D01*
X145239620Y-99366048D01*
X145179144Y-99245095D01*
X145179144Y-98761286D01*
X145239620Y-98640333D01*
X145360572Y-98579857D01*
X145602477Y-98579857D01*
X145723429Y-98640333D01*
X145783906Y-98761286D01*
X145783906Y-98882238D01*
X145179144Y-99003190D01*
X146328191Y-99426524D02*
X146328191Y-98579857D01*
X146328191Y-98821762D02*
X146388667Y-98700810D01*
X146449143Y-98640333D01*
X146570096Y-98579857D01*
X146691048Y-98579857D01*
X118162001Y-62845143D02*
X119304858Y-62845143D01*
X118733429Y-63416571D02*
X118733429Y-62273714D01*
X120090572Y-63416571D02*
X120376287Y-63416571D01*
X120519144Y-63345143D01*
X120590572Y-63273714D01*
X120733430Y-63059429D01*
X120804858Y-62773714D01*
X120804858Y-62202286D01*
X120733430Y-62059429D01*
X120662001Y-61988000D01*
X120519144Y-61916571D01*
X120233430Y-61916571D01*
X120090572Y-61988000D01*
X120019144Y-62059429D01*
X119947715Y-62202286D01*
X119947715Y-62559429D01*
X120019144Y-62702286D01*
X120090572Y-62773714D01*
X120233430Y-62845143D01*
X120519144Y-62845143D01*
X120662001Y-62773714D01*
X120733430Y-62702286D01*
X120804858Y-62559429D01*
X121233429Y-61916571D02*
X121733429Y-63416571D01*
X122233429Y-61916571D01*
X123376286Y-63416571D02*
X123376286Y-62630857D01*
X123304857Y-62488000D01*
X123162000Y-62416571D01*
X122876286Y-62416571D01*
X122733429Y-62488000D01*
X123376286Y-63345143D02*
X123233429Y-63416571D01*
X122876286Y-63416571D01*
X122733429Y-63345143D01*
X122662000Y-63202286D01*
X122662000Y-63059429D01*
X122733429Y-62916571D01*
X122876286Y-62845143D01*
X123233429Y-62845143D01*
X123376286Y-62773714D01*
X124733429Y-63345143D02*
X124590572Y-63416571D01*
X124304858Y-63416571D01*
X124162000Y-63345143D01*
X124090572Y-63273714D01*
X124019143Y-63130857D01*
X124019143Y-62702286D01*
X124090572Y-62559429D01*
X124162000Y-62488000D01*
X124304858Y-62416571D01*
X124590572Y-62416571D01*
X124733429Y-62488000D01*
D13*
X123040000Y-73540000D02*
X123040000Y-65920000D01*
X123040000Y-65920000D02*
X117960000Y-65920000D01*
X117960000Y-65920000D02*
X117960000Y-76080000D01*
X117960000Y-76080000D02*
X120500000Y-76080000D01*
X123040000Y-76080000D02*
X123040000Y-73540000D01*
X120500000Y-76080000D02*
X120500000Y-73540000D01*
X120500000Y-73540000D02*
X123040000Y-73540000D01*
X123040000Y-76080000D02*
X120500000Y-76080000D01*
X134400000Y-61400000D02*
X134400000Y-66150000D01*
X134950000Y-66150000D02*
X131050000Y-66150000D01*
X131050000Y-66150000D02*
X131050000Y-61400000D01*
X131050000Y-61400000D02*
X134950000Y-61400000D01*
X134950000Y-61400000D02*
X134950000Y-66150000D01*
X141700000Y-81100000D02*
X158200000Y-81100000D01*
X158200000Y-81100000D02*
X158200000Y-76000000D01*
X158200000Y-76000000D02*
X141700000Y-76000000D01*
X141700000Y-76000000D02*
X141700000Y-81100000D01*
X137500000Y-80500000D02*
X134000000Y-80500000D01*
X134000000Y-80500000D02*
X134000000Y-73500000D01*
X134000000Y-73500000D02*
X141000000Y-73500000D01*
X141000000Y-73500000D02*
X141000000Y-80500000D01*
X141000000Y-80500000D02*
X137500000Y-80500000D01*
X115500000Y-110500000D02*
X115500000Y-111000000D01*
X115500000Y-105500000D02*
X115500000Y-105000000D01*
X115500000Y-110500000D02*
X113000000Y-110500000D01*
X113000000Y-110500000D02*
X113000000Y-105500000D01*
X113000000Y-105500000D02*
X115500000Y-105500000D01*
X115500000Y-105000000D02*
X130000000Y-105000000D01*
X130000000Y-105000000D02*
X130000000Y-111000000D01*
X130000000Y-111000000D02*
X115500000Y-111000000D01*
X115500000Y-98000000D02*
X115500000Y-98500000D01*
X115500000Y-93000000D02*
X115500000Y-92500000D01*
X115500000Y-98000000D02*
X113000000Y-98000000D01*
X113000000Y-98000000D02*
X113000000Y-93000000D01*
X113000000Y-93000000D02*
X115500000Y-93000000D01*
X115500000Y-92500000D02*
X130000000Y-92500000D01*
X130000000Y-92500000D02*
X130000000Y-98500000D01*
X130000000Y-98500000D02*
X115500000Y-98500000D01*
X115500000Y-85500000D02*
X115500000Y-86000000D01*
X115500000Y-80500000D02*
X115500000Y-80000000D01*
X115500000Y-85500000D02*
X113000000Y-85500000D01*
X113000000Y-85500000D02*
X113000000Y-80500000D01*
X113000000Y-80500000D02*
X115500000Y-80500000D01*
X115500000Y-80000000D02*
X130000000Y-80000000D01*
X130000000Y-80000000D02*
X130000000Y-86000000D01*
X130000000Y-86000000D02*
X115500000Y-86000000D01*
X161000000Y-78095000D02*
X161000000Y-78603000D01*
X161000000Y-81905000D02*
X161000000Y-81397000D01*
X161000000Y-81397000D02*
X162016000Y-81397000D01*
X162016000Y-81270000D02*
X162016000Y-78603000D01*
X162016000Y-78603000D02*
X159984000Y-78603000D01*
X159984000Y-78730000D02*
X159984000Y-81270000D01*
X159984000Y-81397000D02*
X161000000Y-81397000D01*
X161508000Y-78730000D02*
X162016000Y-79238000D01*
X134655000Y-67950000D02*
X134147000Y-67950000D01*
X130845000Y-67950000D02*
X131353000Y-67950000D01*
X131353000Y-67950000D02*
X131353000Y-68966000D01*
X131480000Y-68966000D02*
X134147000Y-68966000D01*
X134147000Y-68966000D02*
X134147000Y-66934000D01*
X134020000Y-66934000D02*
X131480000Y-66934000D01*
X131353000Y-66934000D02*
X131353000Y-67950000D01*
X134020000Y-68458000D02*
X133512000Y-68966000D01*
X134655000Y-69950000D02*
X134147000Y-69950000D01*
X130845000Y-69950000D02*
X131353000Y-69950000D01*
X131353000Y-69950000D02*
X131353000Y-70966000D01*
X131480000Y-70966000D02*
X134147000Y-70966000D01*
X134147000Y-70966000D02*
X134147000Y-68934000D01*
X134020000Y-68934000D02*
X131480000Y-68934000D01*
X131353000Y-68934000D02*
X131353000Y-69950000D01*
X134020000Y-70458000D02*
X133512000Y-70966000D01*
X134595000Y-110500000D02*
X135103000Y-110500000D01*
X138405000Y-110500000D02*
X137897000Y-110500000D01*
X137897000Y-110500000D02*
X137897000Y-109484000D01*
X137770000Y-109484000D02*
X135103000Y-109484000D01*
X135103000Y-109484000D02*
X135103000Y-111516000D01*
X135230000Y-111516000D02*
X137770000Y-111516000D01*
X137897000Y-111516000D02*
X137897000Y-110500000D01*
X135230000Y-109992000D02*
X135738000Y-109484000D01*
X134595000Y-108500000D02*
X135103000Y-108500000D01*
X138405000Y-108500000D02*
X137897000Y-108500000D01*
X137897000Y-108500000D02*
X137897000Y-107484000D01*
X137770000Y-107484000D02*
X135103000Y-107484000D01*
X135103000Y-107484000D02*
X135103000Y-109516000D01*
X135230000Y-109516000D02*
X137770000Y-109516000D01*
X137897000Y-109516000D02*
X137897000Y-108500000D01*
X135230000Y-107992000D02*
X135738000Y-107484000D01*
X130595000Y-101500000D02*
X131103000Y-101500000D01*
X134405000Y-101500000D02*
X133897000Y-101500000D01*
X133897000Y-101500000D02*
X133897000Y-100484000D01*
X133770000Y-100484000D02*
X131103000Y-100484000D01*
X131103000Y-100484000D02*
X131103000Y-102516000D01*
X131230000Y-102516000D02*
X133770000Y-102516000D01*
X133897000Y-102516000D02*
X133897000Y-101500000D01*
X131230000Y-100992000D02*
X131738000Y-100484000D01*
X130595000Y-99500000D02*
X131103000Y-99500000D01*
X134405000Y-99500000D02*
X133897000Y-99500000D01*
X133897000Y-99500000D02*
X133897000Y-98484000D01*
X133770000Y-98484000D02*
X131103000Y-98484000D01*
X131103000Y-98484000D02*
X131103000Y-100516000D01*
X131230000Y-100516000D02*
X133770000Y-100516000D01*
X133897000Y-100516000D02*
X133897000Y-99500000D01*
X131230000Y-98992000D02*
X131738000Y-98484000D01*
X130595000Y-89000000D02*
X131103000Y-89000000D01*
X134405000Y-89000000D02*
X133897000Y-89000000D01*
X133897000Y-89000000D02*
X133897000Y-87984000D01*
X133770000Y-87984000D02*
X131103000Y-87984000D01*
X131103000Y-87984000D02*
X131103000Y-90016000D01*
X131230000Y-90016000D02*
X133770000Y-90016000D01*
X133897000Y-90016000D02*
X133897000Y-89000000D01*
X131230000Y-88492000D02*
X131738000Y-87984000D01*
X130595000Y-87000000D02*
X131103000Y-87000000D01*
X134405000Y-87000000D02*
X133897000Y-87000000D01*
X133897000Y-87000000D02*
X133897000Y-85984000D01*
X133770000Y-85984000D02*
X131103000Y-85984000D01*
X131103000Y-85984000D02*
X131103000Y-88016000D01*
X131230000Y-88016000D02*
X133770000Y-88016000D01*
X133897000Y-88016000D02*
X133897000Y-87000000D01*
X131230000Y-86492000D02*
X131738000Y-85984000D01*
X134655000Y-71950000D02*
X134147000Y-71950000D01*
X130845000Y-71950000D02*
X131353000Y-71950000D01*
X131353000Y-71950000D02*
X131353000Y-72966000D01*
X131480000Y-72966000D02*
X134147000Y-72966000D01*
X134147000Y-72966000D02*
X134147000Y-70934000D01*
X134020000Y-70934000D02*
X131480000Y-70934000D01*
X131353000Y-70934000D02*
X131353000Y-71950000D01*
X134020000Y-72458000D02*
X133512000Y-72966000D01*
X137810000Y-112500000D02*
X137302000Y-112500000D01*
X130190000Y-112500000D02*
X130698000Y-112500000D01*
X130698000Y-112500000D02*
X130698000Y-113516000D01*
X130698000Y-113516000D02*
X137302000Y-113516000D01*
X137302000Y-113516000D02*
X137302000Y-111484000D01*
X137302000Y-111484000D02*
X130698000Y-111484000D01*
X130698000Y-111484000D02*
X130698000Y-112500000D01*
X137302000Y-113008000D02*
X136794000Y-113516000D01*
X133810000Y-103500000D02*
X133302000Y-103500000D01*
X126190000Y-103500000D02*
X126698000Y-103500000D01*
X126698000Y-103500000D02*
X126698000Y-104516000D01*
X126698000Y-104516000D02*
X133302000Y-104516000D01*
X133302000Y-104516000D02*
X133302000Y-102484000D01*
X133302000Y-102484000D02*
X126698000Y-102484000D01*
X126698000Y-102484000D02*
X126698000Y-103500000D01*
X133302000Y-104008000D02*
X132794000Y-104516000D01*
X133810000Y-91000000D02*
X133302000Y-91000000D01*
X126190000Y-91000000D02*
X126698000Y-91000000D01*
X126698000Y-91000000D02*
X126698000Y-92016000D01*
X126698000Y-92016000D02*
X133302000Y-92016000D01*
X133302000Y-92016000D02*
X133302000Y-89984000D01*
X133302000Y-89984000D02*
X126698000Y-89984000D01*
X126698000Y-89984000D02*
X126698000Y-91000000D01*
X133302000Y-91508000D02*
X132794000Y-92016000D01*
X143730760Y-71199640D02*
X143730760Y-70198880D01*
X144231140Y-70699260D02*
X143230380Y-70699260D01*
X145879600Y-69000000D02*
G75*
G03X145879600Y-69000000I-3149600J0D01*
G01*
X125230000Y-64030000D02*
X125230000Y-69110000D01*
X125230000Y-69110000D02*
X127770000Y-69110000D01*
X127770000Y-69110000D02*
X127770000Y-64030000D01*
X127770000Y-61490000D02*
X127770000Y-64030000D01*
X127770000Y-64030000D02*
X125230000Y-64030000D01*
X127770000Y-61490000D02*
X125230000Y-61490000D01*
X125230000Y-61490000D02*
X125230000Y-64030000D01*
X147489200Y-92770000D02*
X142460000Y-92770000D01*
X142460000Y-92770000D02*
X142460000Y-90230000D01*
X142460000Y-90230000D02*
X147540000Y-90230000D01*
X147540000Y-90230000D02*
X147540000Y-92770000D01*
X147540000Y-92135000D02*
X146905000Y-92770000D01*
X158989200Y-75270000D02*
X153960000Y-75270000D01*
X153960000Y-75270000D02*
X153960000Y-72730000D01*
X153960000Y-72730000D02*
X159040000Y-72730000D01*
X159040000Y-72730000D02*
X159040000Y-75270000D01*
X159040000Y-74635000D02*
X158405000Y-75270000D01*
X151489200Y-75270000D02*
X146460000Y-75270000D01*
X146460000Y-75270000D02*
X146460000Y-72730000D01*
X146460000Y-72730000D02*
X151540000Y-72730000D01*
X151540000Y-72730000D02*
X151540000Y-75270000D01*
X151540000Y-74635000D02*
X150905000Y-75270000D01*
X162270000Y-94510800D02*
X162270000Y-99540000D01*
X162270000Y-99540000D02*
X159730000Y-99540000D01*
X159730000Y-99540000D02*
X159730000Y-94460000D01*
X159730000Y-94460000D02*
X162270000Y-94460000D01*
X161635000Y-94460000D02*
X162270000Y-95095000D01*
X115230000Y-75989200D02*
X115230000Y-70960000D01*
X115230000Y-70960000D02*
X117770000Y-70960000D01*
X117770000Y-70960000D02*
X117770000Y-76040000D01*
X117770000Y-76040000D02*
X115230000Y-76040000D01*
X115865000Y-76040000D02*
X115230000Y-75405000D01*
X156500000Y-67952000D02*
X157008000Y-67952000D01*
X157008000Y-67952000D02*
X157516000Y-68079000D01*
X157516000Y-68079000D02*
X158024000Y-68333000D01*
X158024000Y-68333000D02*
X158405000Y-68587000D01*
X158405000Y-68587000D02*
X158786000Y-68968000D01*
X158786000Y-68968000D02*
X159167000Y-69476000D01*
X159167000Y-69476000D02*
X159421000Y-70111000D01*
X159421000Y-70111000D02*
X159548000Y-70619000D01*
X159548000Y-70619000D02*
X159548000Y-71254000D01*
X159548000Y-71254000D02*
X159421000Y-71889000D01*
X159421000Y-71889000D02*
X159294000Y-72270000D01*
X159294000Y-72270000D02*
X159167000Y-72524000D01*
X153706000Y-72143000D02*
X153579000Y-71762000D01*
X153579000Y-71762000D02*
X153452000Y-71254000D01*
X153452000Y-71254000D02*
X153452000Y-70746000D01*
X153452000Y-70746000D02*
X153579000Y-70111000D01*
X153579000Y-70111000D02*
X153833000Y-69476000D01*
X153833000Y-69476000D02*
X154214000Y-68841000D01*
X154214000Y-68841000D02*
X154849000Y-68460000D01*
X154849000Y-68460000D02*
X155230000Y-68206000D01*
X155230000Y-68206000D02*
X155738000Y-68079000D01*
X155738000Y-68079000D02*
X156246000Y-67952000D01*
X156246000Y-67952000D02*
X156500000Y-67952000D01*
X153833000Y-72524000D02*
X153706000Y-72270000D01*
X153833000Y-72524000D02*
X159167000Y-72524000D01*
X149000000Y-67952000D02*
X149508000Y-67952000D01*
X149508000Y-67952000D02*
X150016000Y-68079000D01*
X150016000Y-68079000D02*
X150524000Y-68333000D01*
X150524000Y-68333000D02*
X150905000Y-68587000D01*
X150905000Y-68587000D02*
X151286000Y-68968000D01*
X151286000Y-68968000D02*
X151667000Y-69476000D01*
X151667000Y-69476000D02*
X151921000Y-70111000D01*
X151921000Y-70111000D02*
X152048000Y-70619000D01*
X152048000Y-70619000D02*
X152048000Y-71254000D01*
X152048000Y-71254000D02*
X151921000Y-71889000D01*
X151921000Y-71889000D02*
X151794000Y-72270000D01*
X151794000Y-72270000D02*
X151667000Y-72524000D01*
X146206000Y-72143000D02*
X146079000Y-71762000D01*
X146079000Y-71762000D02*
X145952000Y-71254000D01*
X145952000Y-71254000D02*
X145952000Y-70746000D01*
X145952000Y-70746000D02*
X146079000Y-70111000D01*
X146079000Y-70111000D02*
X146333000Y-69476000D01*
X146333000Y-69476000D02*
X146714000Y-68841000D01*
X146714000Y-68841000D02*
X147349000Y-68460000D01*
X147349000Y-68460000D02*
X147730000Y-68206000D01*
X147730000Y-68206000D02*
X148238000Y-68079000D01*
X148238000Y-68079000D02*
X148746000Y-67952000D01*
X148746000Y-67952000D02*
X149000000Y-67952000D01*
X146333000Y-72524000D02*
X146206000Y-72270000D01*
X146333000Y-72524000D02*
X151667000Y-72524000D01*
X144270000Y-84000000D02*
X141730000Y-84000000D01*
X144270000Y-81460000D02*
X141730000Y-81460000D01*
X141730000Y-81460000D02*
X141730000Y-84000000D01*
X141730000Y-84000000D02*
X141730000Y-86540000D01*
X141730000Y-86540000D02*
X144270000Y-86540000D01*
X144270000Y-86540000D02*
X144270000Y-81460000D01*
X145542000Y-106172000D02*
X148082000Y-106172000D01*
X145542000Y-108712000D02*
X148082000Y-108712000D01*
X148082000Y-108712000D02*
X148082000Y-106172000D01*
X148082000Y-106172000D02*
X148082000Y-103632000D01*
X148082000Y-103632000D02*
X145542000Y-103632000D01*
X145542000Y-103632000D02*
X145542000Y-108712000D01*
X149625000Y-84375000D02*
X149625000Y-84720000D01*
X157375000Y-84375000D02*
X157375000Y-84720000D01*
X157375000Y-102625000D02*
X157375000Y-102280000D01*
X149625000Y-102625000D02*
X149625000Y-102280000D01*
X149625000Y-84375000D02*
X157375000Y-84375000D01*
X149625000Y-102625000D02*
X157375000Y-102625000D01*
X149625000Y-84720000D02*
X147800000Y-84720000D01*
X162730000Y-91810000D02*
X162730000Y-81650000D01*
X162730000Y-81650000D02*
X165270000Y-81650000D01*
X165270000Y-81650000D02*
X165270000Y-91810000D01*
X162730000Y-94350000D02*
X162730000Y-91810000D01*
X162730000Y-91810000D02*
X165270000Y-91810000D01*
X162730000Y-94350000D02*
X165270000Y-94350000D01*
X165270000Y-94350000D02*
X165270000Y-91810000D01*
X123262381Y-76398333D02*
X123976667Y-76398333D01*
X124119524Y-76445953D01*
X124214762Y-76541191D01*
X124262381Y-76684048D01*
X124262381Y-76779286D01*
X123262381Y-76017381D02*
X123262381Y-75350714D01*
X124262381Y-75779286D01*
X137261905Y-63952381D02*
X137261905Y-62952381D01*
X137500000Y-62952381D01*
X137642858Y-63000000D01*
X137738096Y-63095238D01*
X137785715Y-63190476D01*
X137833334Y-63380952D01*
X137833334Y-63523810D01*
X137785715Y-63714286D01*
X137738096Y-63809524D01*
X137642858Y-63904762D01*
X137500000Y-63952381D01*
X137261905Y-63952381D01*
X138785715Y-63952381D02*
X138214286Y-63952381D01*
X138500000Y-63952381D02*
X138500000Y-62952381D01*
X138404762Y-63095238D01*
X138309524Y-63190476D01*
X138214286Y-63238095D01*
X149166667Y-81452381D02*
X149166667Y-82166667D01*
X149119047Y-82309524D01*
X149023809Y-82404762D01*
X148880952Y-82452381D01*
X148785714Y-82452381D01*
X150071429Y-81452381D02*
X149880952Y-81452381D01*
X149785714Y-81500000D01*
X149738095Y-81547619D01*
X149642857Y-81690476D01*
X149595238Y-81880952D01*
X149595238Y-82261905D01*
X149642857Y-82357143D01*
X149690476Y-82404762D01*
X149785714Y-82452381D01*
X149976191Y-82452381D01*
X150071429Y-82404762D01*
X150119048Y-82357143D01*
X150166667Y-82261905D01*
X150166667Y-82023810D01*
X150119048Y-81928571D01*
X150071429Y-81880952D01*
X149976191Y-81833333D01*
X149785714Y-81833333D01*
X149690476Y-81880952D01*
X149642857Y-81928571D01*
X149595238Y-82023810D01*
X133452381Y-77595238D02*
X132976190Y-77928572D01*
X133452381Y-78166667D02*
X132452381Y-78166667D01*
X132452381Y-77785714D01*
X132500000Y-77690476D01*
X132547619Y-77642857D01*
X132642857Y-77595238D01*
X132785714Y-77595238D01*
X132880952Y-77642857D01*
X132928571Y-77690476D01*
X132976190Y-77785714D01*
X132976190Y-78166667D01*
X132452381Y-77309524D02*
X133452381Y-76976191D01*
X132452381Y-76642857D01*
X133452381Y-75785714D02*
X133452381Y-76357143D01*
X133452381Y-76071429D02*
X132452381Y-76071429D01*
X132595238Y-76166667D01*
X132690476Y-76261905D01*
X132738095Y-76357143D01*
X122000000Y-111678571D02*
X122000000Y-112750000D01*
X121928572Y-112964286D01*
X121785715Y-113107143D01*
X121571429Y-113178571D01*
X121428572Y-113178571D01*
X123357143Y-112178571D02*
X123357143Y-113178571D01*
X123000000Y-111607143D02*
X122642857Y-112678571D01*
X123571429Y-112678571D01*
X122000000Y-99178571D02*
X122000000Y-100250000D01*
X121928572Y-100464286D01*
X121785715Y-100607143D01*
X121571429Y-100678571D01*
X121428572Y-100678571D01*
X122571429Y-99178571D02*
X123500000Y-99178571D01*
X123000000Y-99750000D01*
X123214286Y-99750000D01*
X123357143Y-99821429D01*
X123428572Y-99892857D01*
X123500000Y-100035714D01*
X123500000Y-100392857D01*
X123428572Y-100535714D01*
X123357143Y-100607143D01*
X123214286Y-100678571D01*
X122785714Y-100678571D01*
X122642857Y-100607143D01*
X122571429Y-100535714D01*
X122000000Y-86678571D02*
X122000000Y-87750000D01*
X121928572Y-87964286D01*
X121785715Y-88107143D01*
X121571429Y-88178571D01*
X121428572Y-88178571D01*
X122642857Y-86821429D02*
X122714286Y-86750000D01*
X122857143Y-86678571D01*
X123214286Y-86678571D01*
X123357143Y-86750000D01*
X123428572Y-86821429D01*
X123500000Y-86964286D01*
X123500000Y-87107143D01*
X123428572Y-87321429D01*
X122571429Y-88178571D01*
X123500000Y-88178571D01*
X159452381Y-80642857D02*
X158976190Y-80976191D01*
X159452381Y-81214286D02*
X158452381Y-81214286D01*
X158452381Y-80833333D01*
X158500000Y-80738095D01*
X158547619Y-80690476D01*
X158642857Y-80642857D01*
X158785714Y-80642857D01*
X158880952Y-80690476D01*
X158928571Y-80738095D01*
X158976190Y-80833333D01*
X158976190Y-81214286D01*
X159452381Y-79690476D02*
X159452381Y-80261905D01*
X159452381Y-79976191D02*
X158452381Y-79976191D01*
X158595238Y-80071429D01*
X158690476Y-80166667D01*
X158738095Y-80261905D01*
X158452381Y-79357143D02*
X158452381Y-78738095D01*
X158833333Y-79071429D01*
X158833333Y-78928571D01*
X158880952Y-78833333D01*
X158928571Y-78785714D01*
X159023810Y-78738095D01*
X159261905Y-78738095D01*
X159357143Y-78785714D01*
X159404762Y-78833333D01*
X159452381Y-78928571D01*
X159452381Y-79214286D01*
X159404762Y-79309524D01*
X159357143Y-79357143D01*
X137107143Y-68402381D02*
X136773809Y-67926190D01*
X136535714Y-68402381D02*
X136535714Y-67402381D01*
X136916667Y-67402381D01*
X137011905Y-67450000D01*
X137059524Y-67497619D01*
X137107143Y-67592857D01*
X137107143Y-67735714D01*
X137059524Y-67830952D01*
X137011905Y-67878571D01*
X136916667Y-67926190D01*
X136535714Y-67926190D01*
X138059524Y-68402381D02*
X137488095Y-68402381D01*
X137773809Y-68402381D02*
X137773809Y-67402381D01*
X137678571Y-67545238D01*
X137583333Y-67640476D01*
X137488095Y-67688095D01*
X138440476Y-67497619D02*
X138488095Y-67450000D01*
X138583333Y-67402381D01*
X138821429Y-67402381D01*
X138916667Y-67450000D01*
X138964286Y-67497619D01*
X139011905Y-67592857D01*
X139011905Y-67688095D01*
X138964286Y-67830952D01*
X138392857Y-68402381D01*
X139011905Y-68402381D01*
X137107143Y-70402381D02*
X136773809Y-69926190D01*
X136535714Y-70402381D02*
X136535714Y-69402381D01*
X136916667Y-69402381D01*
X137011905Y-69450000D01*
X137059524Y-69497619D01*
X137107143Y-69592857D01*
X137107143Y-69735714D01*
X137059524Y-69830952D01*
X137011905Y-69878571D01*
X136916667Y-69926190D01*
X136535714Y-69926190D01*
X138059524Y-70402381D02*
X137488095Y-70402381D01*
X137773809Y-70402381D02*
X137773809Y-69402381D01*
X137678571Y-69545238D01*
X137583333Y-69640476D01*
X137488095Y-69688095D01*
X139011905Y-70402381D02*
X138440476Y-70402381D01*
X138726190Y-70402381D02*
X138726190Y-69402381D01*
X138630952Y-69545238D01*
X138535714Y-69640476D01*
X138440476Y-69688095D01*
X140857143Y-110952381D02*
X140523809Y-110476190D01*
X140285714Y-110952381D02*
X140285714Y-109952381D01*
X140666667Y-109952381D01*
X140761905Y-110000000D01*
X140809524Y-110047619D01*
X140857143Y-110142857D01*
X140857143Y-110285714D01*
X140809524Y-110380952D01*
X140761905Y-110428571D01*
X140666667Y-110476190D01*
X140285714Y-110476190D01*
X141809524Y-110952381D02*
X141238095Y-110952381D01*
X141523809Y-110952381D02*
X141523809Y-109952381D01*
X141428571Y-110095238D01*
X141333333Y-110190476D01*
X141238095Y-110238095D01*
X142428571Y-109952381D02*
X142523810Y-109952381D01*
X142619048Y-110000000D01*
X142666667Y-110047619D01*
X142714286Y-110142857D01*
X142761905Y-110333333D01*
X142761905Y-110571429D01*
X142714286Y-110761905D01*
X142666667Y-110857143D01*
X142619048Y-110904762D01*
X142523810Y-110952381D01*
X142428571Y-110952381D01*
X142333333Y-110904762D01*
X142285714Y-110857143D01*
X142238095Y-110761905D01*
X142190476Y-110571429D01*
X142190476Y-110333333D01*
X142238095Y-110142857D01*
X142285714Y-110047619D01*
X142333333Y-110000000D01*
X142428571Y-109952381D01*
X140833334Y-108952381D02*
X140500000Y-108476190D01*
X140261905Y-108952381D02*
X140261905Y-107952381D01*
X140642858Y-107952381D01*
X140738096Y-108000000D01*
X140785715Y-108047619D01*
X140833334Y-108142857D01*
X140833334Y-108285714D01*
X140785715Y-108380952D01*
X140738096Y-108428571D01*
X140642858Y-108476190D01*
X140261905Y-108476190D01*
X141309524Y-108952381D02*
X141500000Y-108952381D01*
X141595239Y-108904762D01*
X141642858Y-108857143D01*
X141738096Y-108714286D01*
X141785715Y-108523810D01*
X141785715Y-108142857D01*
X141738096Y-108047619D01*
X141690477Y-108000000D01*
X141595239Y-107952381D01*
X141404762Y-107952381D01*
X141309524Y-108000000D01*
X141261905Y-108047619D01*
X141214286Y-108142857D01*
X141214286Y-108380952D01*
X141261905Y-108476190D01*
X141309524Y-108523810D01*
X141404762Y-108571429D01*
X141595239Y-108571429D01*
X141690477Y-108523810D01*
X141738096Y-108476190D01*
X141785715Y-108380952D01*
X136833334Y-101952381D02*
X136500000Y-101476190D01*
X136261905Y-101952381D02*
X136261905Y-100952381D01*
X136642858Y-100952381D01*
X136738096Y-101000000D01*
X136785715Y-101047619D01*
X136833334Y-101142857D01*
X136833334Y-101285714D01*
X136785715Y-101380952D01*
X136738096Y-101428571D01*
X136642858Y-101476190D01*
X136261905Y-101476190D01*
X137404762Y-101380952D02*
X137309524Y-101333333D01*
X137261905Y-101285714D01*
X137214286Y-101190476D01*
X137214286Y-101142857D01*
X137261905Y-101047619D01*
X137309524Y-101000000D01*
X137404762Y-100952381D01*
X137595239Y-100952381D01*
X137690477Y-101000000D01*
X137738096Y-101047619D01*
X137785715Y-101142857D01*
X137785715Y-101190476D01*
X137738096Y-101285714D01*
X137690477Y-101333333D01*
X137595239Y-101380952D01*
X137404762Y-101380952D01*
X137309524Y-101428571D01*
X137261905Y-101476190D01*
X137214286Y-101571429D01*
X137214286Y-101761905D01*
X137261905Y-101857143D01*
X137309524Y-101904762D01*
X137404762Y-101952381D01*
X137595239Y-101952381D01*
X137690477Y-101904762D01*
X137738096Y-101857143D01*
X137785715Y-101761905D01*
X137785715Y-101571429D01*
X137738096Y-101476190D01*
X137690477Y-101428571D01*
X137595239Y-101380952D01*
X136833334Y-99952381D02*
X136500000Y-99476190D01*
X136261905Y-99952381D02*
X136261905Y-98952381D01*
X136642858Y-98952381D01*
X136738096Y-99000000D01*
X136785715Y-99047619D01*
X136833334Y-99142857D01*
X136833334Y-99285714D01*
X136785715Y-99380952D01*
X136738096Y-99428571D01*
X136642858Y-99476190D01*
X136261905Y-99476190D01*
X137166667Y-98952381D02*
X137833334Y-98952381D01*
X137404762Y-99952381D01*
X136833334Y-89452381D02*
X136500000Y-88976190D01*
X136261905Y-89452381D02*
X136261905Y-88452381D01*
X136642858Y-88452381D01*
X136738096Y-88500000D01*
X136785715Y-88547619D01*
X136833334Y-88642857D01*
X136833334Y-88785714D01*
X136785715Y-88880952D01*
X136738096Y-88928571D01*
X136642858Y-88976190D01*
X136261905Y-88976190D01*
X137690477Y-88452381D02*
X137500000Y-88452381D01*
X137404762Y-88500000D01*
X137357143Y-88547619D01*
X137261905Y-88690476D01*
X137214286Y-88880952D01*
X137214286Y-89261905D01*
X137261905Y-89357143D01*
X137309524Y-89404762D01*
X137404762Y-89452381D01*
X137595239Y-89452381D01*
X137690477Y-89404762D01*
X137738096Y-89357143D01*
X137785715Y-89261905D01*
X137785715Y-89023810D01*
X137738096Y-88928571D01*
X137690477Y-88880952D01*
X137595239Y-88833333D01*
X137404762Y-88833333D01*
X137309524Y-88880952D01*
X137261905Y-88928571D01*
X137214286Y-89023810D01*
X136833334Y-87452381D02*
X136500000Y-86976190D01*
X136261905Y-87452381D02*
X136261905Y-86452381D01*
X136642858Y-86452381D01*
X136738096Y-86500000D01*
X136785715Y-86547619D01*
X136833334Y-86642857D01*
X136833334Y-86785714D01*
X136785715Y-86880952D01*
X136738096Y-86928571D01*
X136642858Y-86976190D01*
X136261905Y-86976190D01*
X137738096Y-86452381D02*
X137261905Y-86452381D01*
X137214286Y-86928571D01*
X137261905Y-86880952D01*
X137357143Y-86833333D01*
X137595239Y-86833333D01*
X137690477Y-86880952D01*
X137738096Y-86928571D01*
X137785715Y-87023810D01*
X137785715Y-87261905D01*
X137738096Y-87357143D01*
X137690477Y-87404762D01*
X137595239Y-87452381D01*
X137357143Y-87452381D01*
X137261905Y-87404762D01*
X137214286Y-87357143D01*
X137083334Y-72402381D02*
X136750000Y-71926190D01*
X136511905Y-72402381D02*
X136511905Y-71402381D01*
X136892858Y-71402381D01*
X136988096Y-71450000D01*
X137035715Y-71497619D01*
X137083334Y-71592857D01*
X137083334Y-71735714D01*
X137035715Y-71830952D01*
X136988096Y-71878571D01*
X136892858Y-71926190D01*
X136511905Y-71926190D01*
X137940477Y-71735714D02*
X137940477Y-72402381D01*
X137702381Y-71354762D02*
X137464286Y-72069048D01*
X138083334Y-72069048D01*
X139333334Y-112952381D02*
X139000000Y-112476190D01*
X138761905Y-112952381D02*
X138761905Y-111952381D01*
X139142858Y-111952381D01*
X139238096Y-112000000D01*
X139285715Y-112047619D01*
X139333334Y-112142857D01*
X139333334Y-112285714D01*
X139285715Y-112380952D01*
X139238096Y-112428571D01*
X139142858Y-112476190D01*
X138761905Y-112476190D01*
X139666667Y-111952381D02*
X140285715Y-111952381D01*
X139952381Y-112333333D01*
X140095239Y-112333333D01*
X140190477Y-112380952D01*
X140238096Y-112428571D01*
X140285715Y-112523810D01*
X140285715Y-112761905D01*
X140238096Y-112857143D01*
X140190477Y-112904762D01*
X140095239Y-112952381D01*
X139809524Y-112952381D01*
X139714286Y-112904762D01*
X139666667Y-112857143D01*
X135333334Y-103952381D02*
X135000000Y-103476190D01*
X134761905Y-103952381D02*
X134761905Y-102952381D01*
X135142858Y-102952381D01*
X135238096Y-103000000D01*
X135285715Y-103047619D01*
X135333334Y-103142857D01*
X135333334Y-103285714D01*
X135285715Y-103380952D01*
X135238096Y-103428571D01*
X135142858Y-103476190D01*
X134761905Y-103476190D01*
X135714286Y-103047619D02*
X135761905Y-103000000D01*
X135857143Y-102952381D01*
X136095239Y-102952381D01*
X136190477Y-103000000D01*
X136238096Y-103047619D01*
X136285715Y-103142857D01*
X136285715Y-103238095D01*
X136238096Y-103380952D01*
X135666667Y-103952381D01*
X136285715Y-103952381D01*
X135333334Y-91452381D02*
X135000000Y-90976190D01*
X134761905Y-91452381D02*
X134761905Y-90452381D01*
X135142858Y-90452381D01*
X135238096Y-90500000D01*
X135285715Y-90547619D01*
X135333334Y-90642857D01*
X135333334Y-90785714D01*
X135285715Y-90880952D01*
X135238096Y-90928571D01*
X135142858Y-90976190D01*
X134761905Y-90976190D01*
X136285715Y-91452381D02*
X135714286Y-91452381D01*
X136000000Y-91452381D02*
X136000000Y-90452381D01*
X135904762Y-90595238D01*
X135809524Y-90690476D01*
X135714286Y-90738095D01*
X142563334Y-73167143D02*
X142515715Y-73214762D01*
X142372858Y-73262381D01*
X142277620Y-73262381D01*
X142134762Y-73214762D01*
X142039524Y-73119524D01*
X141991905Y-73024286D01*
X141944286Y-72833810D01*
X141944286Y-72690952D01*
X141991905Y-72500476D01*
X142039524Y-72405238D01*
X142134762Y-72310000D01*
X142277620Y-72262381D01*
X142372858Y-72262381D01*
X142515715Y-72310000D01*
X142563334Y-72357619D01*
X142944286Y-72357619D02*
X142991905Y-72310000D01*
X143087143Y-72262381D01*
X143325239Y-72262381D01*
X143420477Y-72310000D01*
X143468096Y-72357619D01*
X143515715Y-72452857D01*
X143515715Y-72548095D01*
X143468096Y-72690952D01*
X142896667Y-73262381D01*
X143515715Y-73262381D01*
X126452381Y-70833333D02*
X127166667Y-70833333D01*
X127309524Y-70880953D01*
X127404762Y-70976191D01*
X127452381Y-71119048D01*
X127452381Y-71214286D01*
X127452381Y-69833333D02*
X127452381Y-70404762D01*
X127452381Y-70119048D02*
X126452381Y-70119048D01*
X126595238Y-70214286D01*
X126690476Y-70309524D01*
X126738095Y-70404762D01*
X141857143Y-91666666D02*
X141904762Y-91714285D01*
X141952381Y-91857142D01*
X141952381Y-91952380D01*
X141904762Y-92095238D01*
X141809524Y-92190476D01*
X141714286Y-92238095D01*
X141523810Y-92285714D01*
X141380952Y-92285714D01*
X141190476Y-92238095D01*
X141095238Y-92190476D01*
X141000000Y-92095238D01*
X140952381Y-91952380D01*
X140952381Y-91857142D01*
X141000000Y-91714285D01*
X141047619Y-91666666D01*
X141952381Y-90714285D02*
X141952381Y-91285714D01*
X141952381Y-91000000D02*
X140952381Y-91000000D01*
X141095238Y-91095238D01*
X141190476Y-91190476D01*
X141238095Y-91285714D01*
X160357143Y-74166666D02*
X160404762Y-74214285D01*
X160452381Y-74357142D01*
X160452381Y-74452380D01*
X160404762Y-74595238D01*
X160309524Y-74690476D01*
X160214286Y-74738095D01*
X160023810Y-74785714D01*
X159880952Y-74785714D01*
X159690476Y-74738095D01*
X159595238Y-74690476D01*
X159500000Y-74595238D01*
X159452381Y-74452380D01*
X159452381Y-74357142D01*
X159500000Y-74214285D01*
X159547619Y-74166666D01*
X159452381Y-73833333D02*
X159452381Y-73214285D01*
X159833333Y-73547619D01*
X159833333Y-73404761D01*
X159880952Y-73309523D01*
X159928571Y-73261904D01*
X160023810Y-73214285D01*
X160261905Y-73214285D01*
X160357143Y-73261904D01*
X160404762Y-73309523D01*
X160452381Y-73404761D01*
X160452381Y-73690476D01*
X160404762Y-73785714D01*
X160357143Y-73833333D01*
X152857143Y-74166666D02*
X152904762Y-74214285D01*
X152952381Y-74357142D01*
X152952381Y-74452380D01*
X152904762Y-74595238D01*
X152809524Y-74690476D01*
X152714286Y-74738095D01*
X152523810Y-74785714D01*
X152380952Y-74785714D01*
X152190476Y-74738095D01*
X152095238Y-74690476D01*
X152000000Y-74595238D01*
X151952381Y-74452380D01*
X151952381Y-74357142D01*
X152000000Y-74214285D01*
X152047619Y-74166666D01*
X152285714Y-73309523D02*
X152952381Y-73309523D01*
X151904762Y-73547619D02*
X152619048Y-73785714D01*
X152619048Y-73166666D01*
X160833334Y-94182143D02*
X160785715Y-94229762D01*
X160642858Y-94277381D01*
X160547620Y-94277381D01*
X160404762Y-94229762D01*
X160309524Y-94134524D01*
X160261905Y-94039286D01*
X160214286Y-93848810D01*
X160214286Y-93705952D01*
X160261905Y-93515476D01*
X160309524Y-93420238D01*
X160404762Y-93325000D01*
X160547620Y-93277381D01*
X160642858Y-93277381D01*
X160785715Y-93325000D01*
X160833334Y-93372619D01*
X161738096Y-93277381D02*
X161261905Y-93277381D01*
X161214286Y-93753571D01*
X161261905Y-93705952D01*
X161357143Y-93658333D01*
X161595239Y-93658333D01*
X161690477Y-93705952D01*
X161738096Y-93753571D01*
X161785715Y-93848810D01*
X161785715Y-94086905D01*
X161738096Y-94182143D01*
X161690477Y-94229762D01*
X161595239Y-94277381D01*
X161357143Y-94277381D01*
X161261905Y-94229762D01*
X161214286Y-94182143D01*
X116333334Y-70357143D02*
X116285715Y-70404762D01*
X116142858Y-70452381D01*
X116047620Y-70452381D01*
X115904762Y-70404762D01*
X115809524Y-70309524D01*
X115761905Y-70214286D01*
X115714286Y-70023810D01*
X115714286Y-69880952D01*
X115761905Y-69690476D01*
X115809524Y-69595238D01*
X115904762Y-69500000D01*
X116047620Y-69452381D01*
X116142858Y-69452381D01*
X116285715Y-69500000D01*
X116333334Y-69547619D01*
X117190477Y-69452381D02*
X117000000Y-69452381D01*
X116904762Y-69500000D01*
X116857143Y-69547619D01*
X116761905Y-69690476D01*
X116714286Y-69880952D01*
X116714286Y-70261905D01*
X116761905Y-70357143D01*
X116809524Y-70404762D01*
X116904762Y-70452381D01*
X117095239Y-70452381D01*
X117190477Y-70404762D01*
X117238096Y-70357143D01*
X117285715Y-70261905D01*
X117285715Y-70023810D01*
X117238096Y-69928571D01*
X117190477Y-69880952D01*
X117095239Y-69833333D01*
X116904762Y-69833333D01*
X116809524Y-69880952D01*
X116761905Y-69928571D01*
X116714286Y-70023810D01*
X158738095Y-67452381D02*
X158738095Y-68261905D01*
X158785714Y-68357143D01*
X158833333Y-68404762D01*
X158928571Y-68452381D01*
X159119048Y-68452381D01*
X159214286Y-68404762D01*
X159261905Y-68357143D01*
X159309524Y-68261905D01*
X159309524Y-67452381D01*
X160309524Y-68452381D02*
X159738095Y-68452381D01*
X160023809Y-68452381D02*
X160023809Y-67452381D01*
X159928571Y-67595238D01*
X159833333Y-67690476D01*
X159738095Y-67738095D01*
X151238095Y-67452381D02*
X151238095Y-68261905D01*
X151285714Y-68357143D01*
X151333333Y-68404762D01*
X151428571Y-68452381D01*
X151619048Y-68452381D01*
X151714286Y-68404762D01*
X151761905Y-68357143D01*
X151809524Y-68261905D01*
X151809524Y-67452381D01*
X152238095Y-67547619D02*
X152285714Y-67500000D01*
X152380952Y-67452381D01*
X152619048Y-67452381D01*
X152714286Y-67500000D01*
X152761905Y-67547619D01*
X152809524Y-67642857D01*
X152809524Y-67738095D01*
X152761905Y-67880952D01*
X152190476Y-68452381D01*
X152809524Y-68452381D01*
X145690762Y-85333333D02*
X145738381Y-85190476D01*
X145738381Y-84952380D01*
X145690762Y-84857142D01*
X145643143Y-84809523D01*
X145547905Y-84761904D01*
X145452667Y-84761904D01*
X145357429Y-84809523D01*
X145309810Y-84857142D01*
X145262190Y-84952380D01*
X145214571Y-85142857D01*
X145166952Y-85238095D01*
X145119333Y-85285714D01*
X145024095Y-85333333D01*
X144928857Y-85333333D01*
X144833619Y-85285714D01*
X144786000Y-85238095D01*
X144738381Y-85142857D01*
X144738381Y-84904761D01*
X144786000Y-84761904D01*
X144738381Y-84428571D02*
X145738381Y-84190476D01*
X145024095Y-83999999D01*
X145738381Y-83809523D01*
X144738381Y-83571428D01*
X145738381Y-82666666D02*
X145738381Y-83238095D01*
X145738381Y-82952381D02*
X144738381Y-82952381D01*
X144881238Y-83047619D01*
X144976476Y-83142857D01*
X145024095Y-83238095D01*
X144454571Y-107481523D02*
X144502190Y-107338666D01*
X144549810Y-107291047D01*
X144645048Y-107243428D01*
X144787905Y-107243428D01*
X144883143Y-107291047D01*
X144930762Y-107338666D01*
X144978381Y-107433904D01*
X144978381Y-107814857D01*
X143978381Y-107814857D01*
X143978381Y-107481523D01*
X144026000Y-107386285D01*
X144073619Y-107338666D01*
X144168857Y-107291047D01*
X144264095Y-107291047D01*
X144359333Y-107338666D01*
X144406952Y-107386285D01*
X144454571Y-107481523D01*
X144454571Y-107814857D01*
X143978381Y-106957714D02*
X143978381Y-106386285D01*
X144978381Y-106672000D02*
X143978381Y-106672000D01*
X144978381Y-106052952D02*
X143978381Y-106052952D01*
X144978381Y-105481523D01*
X143978381Y-105481523D01*
X144978381Y-104481523D02*
X144978381Y-105052952D01*
X144978381Y-104767238D02*
X143978381Y-104767238D01*
X144121238Y-104862476D01*
X144216476Y-104957714D01*
X144264095Y-105052952D01*
X152738095Y-82902381D02*
X152738095Y-83711905D01*
X152785714Y-83807143D01*
X152833333Y-83854762D01*
X152928571Y-83902381D01*
X153119048Y-83902381D01*
X153214286Y-83854762D01*
X153261905Y-83807143D01*
X153309524Y-83711905D01*
X153309524Y-82902381D01*
X153690476Y-82902381D02*
X154309524Y-82902381D01*
X153976190Y-83283333D01*
X154119048Y-83283333D01*
X154214286Y-83330952D01*
X154261905Y-83378571D01*
X154309524Y-83473810D01*
X154309524Y-83711905D01*
X154261905Y-83807143D01*
X154214286Y-83854762D01*
X154119048Y-83902381D01*
X153833333Y-83902381D01*
X153738095Y-83854762D01*
X153690476Y-83807143D01*
X148833333Y-104002381D02*
X148833333Y-103002381D01*
X149214286Y-103002381D01*
X149309524Y-103050000D01*
X149357143Y-103097619D01*
X149404762Y-103192857D01*
X149404762Y-103335714D01*
X149357143Y-103430952D01*
X149309524Y-103478571D01*
X149214286Y-103526190D01*
X148833333Y-103526190D01*
X149833333Y-104002381D02*
X149833333Y-103002381D01*
X150880952Y-103907143D02*
X150833333Y-103954762D01*
X150690476Y-104002381D01*
X150595238Y-104002381D01*
X150452380Y-103954762D01*
X150357142Y-103859524D01*
X150309523Y-103764286D01*
X150261904Y-103573810D01*
X150261904Y-103430952D01*
X150309523Y-103240476D01*
X150357142Y-103145238D01*
X150452380Y-103050000D01*
X150595238Y-103002381D01*
X150690476Y-103002381D01*
X150833333Y-103050000D01*
X150880952Y-103097619D01*
X151833333Y-104002381D02*
X151261904Y-104002381D01*
X151547618Y-104002381D02*
X151547618Y-103002381D01*
X151452380Y-103145238D01*
X151357142Y-103240476D01*
X151261904Y-103288095D01*
X152404761Y-103430952D02*
X152309523Y-103383333D01*
X152261904Y-103335714D01*
X152214285Y-103240476D01*
X152214285Y-103192857D01*
X152261904Y-103097619D01*
X152309523Y-103050000D01*
X152404761Y-103002381D01*
X152595238Y-103002381D01*
X152690476Y-103050000D01*
X152738095Y-103097619D01*
X152785714Y-103192857D01*
X152785714Y-103240476D01*
X152738095Y-103335714D01*
X152690476Y-103383333D01*
X152595238Y-103430952D01*
X152404761Y-103430952D01*
X152309523Y-103478571D01*
X152261904Y-103526190D01*
X152214285Y-103621429D01*
X152214285Y-103811905D01*
X152261904Y-103907143D01*
X152309523Y-103954762D01*
X152404761Y-104002381D01*
X152595238Y-104002381D01*
X152690476Y-103954762D01*
X152738095Y-103907143D01*
X152785714Y-103811905D01*
X152785714Y-103621429D01*
X152738095Y-103526190D01*
X152690476Y-103478571D01*
X152595238Y-103430952D01*
X153547619Y-103478571D02*
X153214285Y-103478571D01*
X153214285Y-104002381D02*
X153214285Y-103002381D01*
X153690476Y-103002381D01*
X154023809Y-103097619D02*
X154071428Y-103050000D01*
X154166666Y-103002381D01*
X154404762Y-103002381D01*
X154500000Y-103050000D01*
X154547619Y-103097619D01*
X154595238Y-103192857D01*
X154595238Y-103288095D01*
X154547619Y-103430952D01*
X153976190Y-104002381D01*
X154595238Y-104002381D01*
X155452381Y-103002381D02*
X155261904Y-103002381D01*
X155166666Y-103050000D01*
X155119047Y-103097619D01*
X155023809Y-103240476D01*
X154976190Y-103430952D01*
X154976190Y-103811905D01*
X155023809Y-103907143D01*
X155071428Y-103954762D01*
X155166666Y-104002381D01*
X155357143Y-104002381D01*
X155452381Y-103954762D01*
X155500000Y-103907143D01*
X155547619Y-103811905D01*
X155547619Y-103573810D01*
X155500000Y-103478571D01*
X155452381Y-103430952D01*
X155357143Y-103383333D01*
X155166666Y-103383333D01*
X155071428Y-103430952D01*
X155023809Y-103478571D01*
X154976190Y-103573810D01*
X156261905Y-103002381D02*
X156261905Y-103716667D01*
X156214285Y-103859524D01*
X156119047Y-103954762D01*
X155976190Y-104002381D01*
X155880952Y-104002381D01*
X157261905Y-104002381D02*
X156690476Y-104002381D01*
X156976190Y-104002381D02*
X156976190Y-103002381D01*
X156880952Y-103145238D01*
X156785714Y-103240476D01*
X156690476Y-103288095D01*
X157595238Y-103002381D02*
X158214286Y-103002381D01*
X157880952Y-103383333D01*
X158023810Y-103383333D01*
X158119048Y-103430952D01*
X158166667Y-103478571D01*
X158214286Y-103573810D01*
X158214286Y-103811905D01*
X158166667Y-103907143D01*
X158119048Y-103954762D01*
X158023810Y-104002381D01*
X157738095Y-104002381D01*
X157642857Y-103954762D01*
X157595238Y-103907143D01*
X161166381Y-88333333D02*
X161880667Y-88333333D01*
X162023524Y-88380953D01*
X162118762Y-88476191D01*
X162166381Y-88619048D01*
X162166381Y-88714286D01*
X161166381Y-87380952D02*
X161166381Y-87857143D01*
X161642571Y-87904762D01*
X161594952Y-87857143D01*
X161547333Y-87761905D01*
X161547333Y-87523809D01*
X161594952Y-87428571D01*
X161642571Y-87380952D01*
X161737810Y-87333333D01*
X161975905Y-87333333D01*
X162071143Y-87380952D01*
X162118762Y-87428571D01*
X162166381Y-87523809D01*
X162166381Y-87761905D01*
X162118762Y-87857143D01*
X162071143Y-87904762D01*
%LPC*%
D14*
X143750000Y-62500000D03*
X143750000Y-112500000D03*
X162750000Y-102500000D03*
D15*
X121770000Y-74810000D03*
D16*
X119230000Y-74810000D03*
X121770000Y-72270000D03*
X119230000Y-72270000D03*
X121770000Y-69730000D03*
X119230000Y-69730000D03*
X121770000Y-67190000D03*
X119230000Y-67190000D03*
D17*
X130150000Y-64970000D03*
X135850000Y-64970000D03*
X135850000Y-62430000D03*
X130150000Y-62430000D03*
D18*
X154500000Y-78000000D03*
D19*
X154500000Y-79270000D03*
X153230000Y-78000000D03*
X153230000Y-79270000D03*
X151960000Y-78000000D03*
X151960000Y-79270000D03*
X150690000Y-78000000D03*
X150690000Y-79270000D03*
X149420000Y-78000000D03*
X149420000Y-79270000D03*
X148150000Y-78000000D03*
X148150000Y-79270000D03*
X146880000Y-78000000D03*
X146880000Y-79270000D03*
X145610000Y-78000000D03*
X145610000Y-79270000D03*
D20*
X137500000Y-79500000D03*
X135000000Y-77000000D03*
X137500000Y-74500000D03*
D21*
X126000000Y-108000000D03*
D22*
X117900000Y-112050000D03*
X119800000Y-103950000D03*
D23*
X127200000Y-112050000D03*
D24*
X117100000Y-103950000D03*
D25*
X131300000Y-107400000D03*
D21*
X119000000Y-108000000D03*
X126000000Y-95500000D03*
D22*
X117900000Y-99550000D03*
X119800000Y-91450000D03*
D23*
X127200000Y-99550000D03*
D24*
X117100000Y-91450000D03*
D25*
X131300000Y-94900000D03*
D21*
X119000000Y-95500000D03*
X126000000Y-83000000D03*
D22*
X117900000Y-87050000D03*
X119800000Y-78950000D03*
D23*
X127200000Y-87050000D03*
D24*
X117100000Y-78950000D03*
D25*
X131300000Y-82400000D03*
D21*
X119000000Y-83000000D03*
D20*
X161000000Y-77460000D03*
X161000000Y-82540000D03*
X135290000Y-67950000D03*
X130210000Y-67950000D03*
X135290000Y-69950000D03*
X130210000Y-69950000D03*
X133960000Y-110500000D03*
X139040000Y-110500000D03*
X133960000Y-108500000D03*
X139040000Y-108500000D03*
X129960000Y-101500000D03*
X135040000Y-101500000D03*
X129960000Y-99500000D03*
X135040000Y-99500000D03*
X129960000Y-89000000D03*
X135040000Y-89000000D03*
X129960000Y-87000000D03*
X135040000Y-87000000D03*
X135290000Y-71950000D03*
X130210000Y-71950000D03*
X137810000Y-112500000D03*
X130190000Y-112500000D03*
X133810000Y-103500000D03*
X126190000Y-103500000D03*
X133810000Y-91000000D03*
X126190000Y-91000000D03*
D26*
X141460000Y-69000000D03*
X144000000Y-69000000D03*
D27*
X126500000Y-62760000D03*
D28*
X126500000Y-65300000D03*
X126500000Y-67840000D03*
D26*
X146270000Y-91500000D03*
X143730000Y-91500000D03*
X157770000Y-74000000D03*
X155230000Y-74000000D03*
X150270000Y-74000000D03*
X147730000Y-74000000D03*
X161000000Y-95730000D03*
X161000000Y-98270000D03*
X116500000Y-74770000D03*
X116500000Y-72230000D03*
D29*
X156500000Y-71000000D03*
X157770000Y-71000000D03*
X155230000Y-71000000D03*
X149000000Y-71000000D03*
X150270000Y-71000000D03*
X147730000Y-71000000D03*
D30*
X143000000Y-82730000D03*
D31*
X143000000Y-85270000D03*
D30*
X146812000Y-107442000D03*
D31*
X146812000Y-104902000D03*
D32*
X148800000Y-85245000D03*
X148800000Y-86515000D03*
X148800000Y-87785000D03*
X148800000Y-89055000D03*
X148800000Y-90325000D03*
X148800000Y-91595000D03*
X148800000Y-92865000D03*
X148800000Y-94135000D03*
X148800000Y-95405000D03*
X148800000Y-96675000D03*
X148800000Y-97945000D03*
X148800000Y-99215000D03*
X148800000Y-100485000D03*
X148800000Y-101755000D03*
X158200000Y-101755000D03*
X158200000Y-100485000D03*
X158200000Y-99215000D03*
X158200000Y-97945000D03*
X158200000Y-96675000D03*
X158200000Y-95405000D03*
X158200000Y-94135000D03*
X158200000Y-92865000D03*
X158200000Y-91595000D03*
X158200000Y-90325000D03*
X158200000Y-89055000D03*
X158200000Y-87785000D03*
X158200000Y-86515000D03*
X158200000Y-85245000D03*
D27*
X164000000Y-93080000D03*
D28*
X164000000Y-90540000D03*
X164000000Y-88000000D03*
X164000000Y-85460000D03*
X164000000Y-82920000D03*
D14*
X162750000Y-72500000D03*
M02*
